<svg xmlns="http://www.w3.org/2000/svg" width="800" height="800" viewBox="0 0 800 800" preserveAspectRatio="xMidYMid meet" style="width: 100%; height: 100%;"><defs><clipPath id="animationMask_JphnmCNMGs"><rect width="800" height="800" x="0" y="0"></rect></clipPath><filter id="QglM1Qbp3K" filterUnits="objectBoundingBox" x="0%" y="0%" width="100%" height="100%"><feColorMatrix type="matrix" color-interpolation-filters="sRGB" values="0 0 0 0 0.88 0 0 0 0 0.88 0 0 0 0 0.82 0 0 0 1 0"></feColorMatrix></filter><filter id="oznOeztegK" filterUnits="objectBoundingBox" x="0%" y="0%" width="100%" height="100%"><feColorMatrix type="matrix" color-interpolation-filters="sRGB" values="0 0 0 0 0.88 0 0 0 0 0.88 0 0 0 0 0.82 0 0 0 1 0"></feColorMatrix></filter><filter id="mUMgNGYc1V" filterUnits="objectBoundingBox" x="0%" y="0%" width="100%" height="100%"><feColorMatrix type="matrix" color-interpolation-filters="sRGB" values="0 0 0 0 0.88 0 0 0 0 0.88 0 0 0 0 0.82 0 0 0 1 0"></feColorMatrix></filter><filter id="2HqtvhlJFf" filterUnits="objectBoundingBox" x="0%" y="0%" width="100%" height="100%"><feColorMatrix type="matrix" color-interpolation-filters="sRGB" values="0 0 0 0 0.88 0 0 0 0 0.88 0 0 0 0 0.82 0 0 0 1 0"></feColorMatrix></filter><filter id="SLqFPN2ywG" filterUnits="objectBoundingBox" x="0%" y="0%" width="100%" height="100%"><feColorMatrix type="matrix" color-interpolation-filters="sRGB" values="0 0 0 0 0.88 0 0 0 0 0.88 0 0 0 0 0.82 0 0 0 1 0"></feColorMatrix></filter><filter id="4heyo4OjYm" filterUnits="objectBoundingBox" x="0%" y="0%" width="100%" height="100%"><feColorMatrix type="matrix" color-interpolation-filters="sRGB" values="0 0 0 0 0.88 0 0 0 0 0.88 0 0 0 0 0.82 0 0 0 1 0"></feColorMatrix></filter><filter id="txKwTWjeYF" filterUnits="objectBoundingBox" x="0%" y="0%" width="100%" height="100%"><feColorMatrix type="matrix" color-interpolation-filters="sRGB" values="0 0 0 0 0.88 0 0 0 0 0.88 0 0 0 0 0.82 0 0 0 1 0"></feColorMatrix></filter><filter id="PE19FfCsLJ" filterUnits="objectBoundingBox" x="0%" y="0%" width="100%" height="100%"><feColorMatrix type="matrix" color-interpolation-filters="sRGB" values="1 0 0 0 0 0 1 0 0 0 0 0 1 0 0 0 0 0 1 0"></feColorMatrix></filter><filter id="zGKWI9v58R" filterUnits="objectBoundingBox" x="0%" y="0%" width="100%" height="100%"><feColorMatrix type="matrix" color-interpolation-filters="sRGB" values="0 0 0 0 0.31 0 0 0 0 0.36 0 0 0 0 0.45 0 0 0 1 0"></feColorMatrix></filter></defs><g clip-path="url(#animationMask_JphnmCNMGs)"><g filter="url(#zGKWI9v58R)" transform="matrix(7.7999999414108805,0,0,7.7999999414108805,148.4500018894991,148.4500018894991)" opacity="1" style="-webkit-user-select: none;"><g opacity="1" transform="matrix(1,0,0,1,32.25,32.25)"><path fill="rgb(79,94,114)" fill-opacity="1" d=" M32,0 C32,17.673 17.673,32 0,32 C-17.673,32 -32,17.673 -32,0 C-32,-17.673 -17.673,-32 0,-32 C17.673,-32 32,-17.673 32,0z"></path></g></g><g filter="url(#PE19FfCsLJ)" style="-webkit-user-select: none; display: none;"><g><path style="display: none;"></path></g></g><g filter="url(#txKwTWjeYF)" transform="matrix(7.8,0,0,7.8,486.91700000000003,365.368)" opacity="1" style="-webkit-user-select: none;"><g opacity="1" transform="matrix(1,0,0,1,6.69,4.345)"><path fill="rgb(224,224,209)" fill-opacity="1" d=" M-49.833,-31.905 C-49.833,-31.905 14.167,-31.905 14.167,-31.905 C14.167,-31.905 14.167,32.095 14.167,32.095 C14.167,32.095 -49.833,32.095 -49.833,32.095 C-49.833,32.095 -49.833,-31.905 -49.833,-31.905z M-49.833,32.095 C-49.833,32.095 14.167,32.095 14.167,32.095 C14.167,32.095 14.167,-31.905 14.167,-31.905 C14.167,-31.905 -49.833,-31.905 -49.833,-31.905 C-49.833,-31.905 -49.833,32.095 -49.833,32.095z M-5.279,4.095 C-6.186,4.095 -6.44,3.473 -5.841,2.713 C-5.841,2.713 -1.087,-3.335 -1.087,-3.335 C-0.489,-4.095 0.49,-4.095 1.087,-3.335 C1.087,-3.335 5.842,2.713 5.842,2.713 C6.4399999999999995,3.473 6.186999999999999,4.095 5.281,4.095 C5.281,4.095 -5.279,4.095 -5.279,4.095z"></path><g opacity="1" transform="matrix(1,0,0,1,0,0)"></g></g></g><g filter="url(#4heyo4OjYm)" transform="matrix(7.8,0,0,7.8,208.71800000000002,365.368)" opacity="1" style="-webkit-user-select: none;"><g opacity="1" transform="matrix(1,0,0,1,6.691,4.345)"><path fill="rgb(224,224,209)" fill-opacity="1" d=" M-14.167,-31.905 C-14.167,-31.905 49.833,-31.905 49.833,-31.905 C49.833,-31.905 49.833,32.095 49.833,32.095 C49.833,32.095 -14.167,32.095 -14.167,32.095 C-14.167,32.095 -14.167,-31.905 -14.167,-31.905z M-14.167,32.095 C-14.167,32.095 49.833,32.095 49.833,32.095 C49.833,32.095 49.833,-31.905 49.833,-31.905 C49.833,-31.905 -14.167,-31.905 -14.167,-31.905 C-14.167,-31.905 -14.167,32.095 -14.167,32.095z M-5.279,4.095 C-6.186,4.095 -6.4399999999999995,3.473 -5.842,2.713 C-5.842,2.713 -1.087,-3.335 -1.087,-3.335 C-0.489,-4.095 0.489,-4.095 1.087,-3.335 C1.087,-3.335 5.842,2.713 5.842,2.713 C6.4399999999999995,3.473 6.186,4.095 5.279,4.095 C5.279,4.095 -5.279,4.095 -5.279,4.095z"></path><g opacity="1" transform="matrix(1,0,0,1,0,0)"></g></g></g><g filter="url(#SLqFPN2ywG)" transform="matrix(7.8,0,0,7.8,242.05,398.05)" opacity="1" style="-webkit-user-select: none;"><g opacity="1" transform="matrix(1,0,0,1,20.25,11.25)"><path fill="rgb(224,224,209)" fill-opacity="1" d=" M0,11 C-11.028,11 -20,2.0280000000000005 -20,-9 C-20,-10.104 -19.104,-11 -18,-11 C-16.896,-11 -16,-10.104 -16,-9 C-16,-0.17800000000000082 -8.822,7 0,7 C0,9.385 0,9.321 0,11z"></path></g></g><g filter="url(#2HqtvhlJFf)" transform="matrix(-7.8,0,0,7.8,557.95,398.05)" opacity="1" style="-webkit-user-select: none;"><g opacity="1" transform="matrix(1,0,0,1,20.25,11.25)"><path fill="rgb(224,224,209)" fill-opacity="1" d=" M0,11 C-11.028,11 -20,2.0280000000000005 -20,-9 C-20,-10.104 -19.104,-11 -18,-11 C-16.896,-11 -16,-10.104 -16,-9 C-16,-0.17800000000000082 -8.822,7 0,7 C0,9.385 0,9.321 0,11z"></path></g></g><g filter="url(#mUMgNGYc1V)" transform="matrix(7.8,0,0,7.8,382.45,304.45)" opacity="1" style="-webkit-user-select: none;"><g opacity="1" transform="matrix(1,0,0,1,2.25,16.25)"><path fill="rgb(224,224,209)" fill-opacity="1" d=" M2,16 C2,16 -2,16 -2,16 C-2,16 -2,-16 -2,-16 C-2,-16 2,-16 2,-16 C2,-16 2,16 2,16z"></path></g></g><g filter="url(#oznOeztegK)" transform="matrix(7.8,0,0,7.8,351.25,226.45)" opacity="1" style="-webkit-user-select: none;"><g opacity="1" transform="matrix(1,0,0,1,6.25,6.25)"><path fill="rgb(224,224,209)" fill-opacity="1" d=" M-32,-16 C-32,-16 32,-16 32,-16 C32,-16 32,48 32,48 C32,48 -32,48 -32,48 C-32,48 -32,-16 -32,-16z M-32,48 C-32,48 32,48 32,48 C32,48 32,-16 32,-16 C32,-16 -32,-16 -32,-16 C-32,-16 -32,48 -32,48z M0,6 C-3.309,6 -6,3.309 -6,0 C-6,-3.309 -3.309,-6 0,-6 C3.309,-6 6,-3.309 6,0 C6,3.309 3.309,6 0,6z M0,-2 C-1.103,-2 -2,-1.103 -2,0 C-2,1.103 -1.103,2 0,2 C1.103,2 2,1.103 2,0 C2,-1.103 1.103,-2 0,-2z"></path><g opacity="1" transform="matrix(1,0,0,1,0,0)"></g></g></g><g filter="url(#QglM1Qbp3K)" transform="matrix(7.8,0,0,7.8,335.65,359.05)" opacity="1" style="-webkit-user-select: none;"><g opacity="1" transform="matrix(1,0,0,1,8.25,2.25)"><path fill="rgb(224,224,209)" fill-opacity="1" d=" M8,0 C8,1.105 7.105,2 6,2 C6,2 -6,2 -6,2 C-7.105,2 -8,1.105 -8,0 C-8,-1.105 -7.105,-2 -6,-2 C-6,-2 6,-2 6,-2 C7.105,-2 8,-1.105 8,0z"></path></g></g><g></g></g></svg>