<svg xmlns="http://www.w3.org/2000/svg" width="800" height="800" viewBox="0 0 800 800" preserveAspectRatio="xMidYMid meet" style="width: 100%; height: 100%;"><defs><clipPath id="animationMask_ub1DklNkzU"><rect width="800" height="800" x="0" y="0"></rect></clipPath><filter id="HptdQ2xN32" filterUnits="objectBoundingBox" x="0%" y="0%" width="100%" height="100%"><feColorMatrix type="matrix" color-interpolation-filters="sRGB" values="1 0 0 0 0 0 1 0 0 0 0 0 1 0 0 0 0 0 1 0"></feColorMatrix></filter><filter id="XnXwtrfvsS" filterUnits="objectBoundingBox" x="0%" y="0%" width="100%" height="100%"><feColorMatrix type="matrix" color-interpolation-filters="sRGB" values="1 0 0 0 0 0 1 0 0 0 0 0 1 0 0 0 0 0 1 0"></feColorMatrix></filter><filter id="rTX4eR1Xqg" filterUnits="objectBoundingBox" x="0%" y="0%" width="100%" height="100%"><feColorMatrix type="matrix" color-interpolation-filters="sRGB" values="1 0 0 0 0 0 1 0 0 0 0 0 1 0 0 0 0 0 1 0"></feColorMatrix></filter><filter id="wZdvUtQG4H" filterUnits="objectBoundingBox" x="0%" y="0%" width="100%" height="100%"><feColorMatrix type="matrix" color-interpolation-filters="sRGB" values="1 0 0 0 0 0 1 0 0 0 0 0 1 0 0 0 0 0 1 0"></feColorMatrix></filter><filter id="h8Opiuo9Tq" filterUnits="objectBoundingBox" x="0%" y="0%" width="100%" height="100%"><feColorMatrix type="matrix" color-interpolation-filters="sRGB" values="1 0 0 0 0 0 1 0 0 0 0 0 1 0 0 0 0 0 1 0"></feColorMatrix></filter><filter id="9o4QlCiKy1" filterUnits="objectBoundingBox" x="0%" y="0%" width="100%" height="100%"><feColorMatrix type="matrix" color-interpolation-filters="sRGB" values="1 0 0 0 0 0 1 0 0 0 0 0 1 0 0 0 0 0 1 0"></feColorMatrix></filter><filter id="JBt2yXRwCf" filterUnits="objectBoundingBox" x="0%" y="0%" width="100%" height="100%"><feColorMatrix type="matrix" color-interpolation-filters="sRGB" values="1 0 0 0 0 0 1 0 0 0 0 0 1 0 0 0 0 0 1 0"></feColorMatrix></filter><filter id="y6cwb0jnFO" filterUnits="objectBoundingBox" x="0%" y="0%" width="100%" height="100%"><feColorMatrix type="matrix" color-interpolation-filters="sRGB" values="1 0 0 0 0 0 1 0 0 0 0 0 1 0 0 0 0 0 1 0"></feColorMatrix></filter><filter id="GzMO6vkcP9" filterUnits="objectBoundingBox" x="0%" y="0%" width="100%" height="100%"><feColorMatrix type="matrix" color-interpolation-filters="sRGB" values="1 0 0 0 0 0 1 0 0 0 0 0 1 0 0 0 0 0 1 0"></feColorMatrix></filter><filter id="Nlf8tfMlzO" filterUnits="objectBoundingBox" x="0%" y="0%" width="100%" height="100%"><feColorMatrix type="matrix" color-interpolation-filters="sRGB" values="1 0 0 0 0 0 1 0 0 0 0 0 1 0 0 0 0 0 1 0"></feColorMatrix></filter><filter id="WOqp9HRqBa" filterUnits="objectBoundingBox" x="0%" y="0%" width="100%" height="100%"><feColorMatrix type="matrix" color-interpolation-filters="sRGB" values="1 0 0 0 0 0 1 0 0 0 0 0 1 0 0 0 0 0 1 0"></feColorMatrix></filter><filter id="i3cggYcl7e" filterUnits="objectBoundingBox" x="0%" y="0%" width="100%" height="100%"><feColorMatrix type="matrix" color-interpolation-filters="sRGB" values="1 0 0 0 0 0 1 0 0 0 0 0 1 0 0 0 0 0 1 0"></feColorMatrix></filter><filter id="FIAJ1GrbOn" filterUnits="objectBoundingBox" x="0%" y="0%" width="100%" height="100%"><feColorMatrix type="matrix" color-interpolation-filters="sRGB" values="1 0 0 0 0 0 1 0 0 0 0 0 1 0 0 0 0 0 1 0"></feColorMatrix></filter><filter id="3lALytD7xM" filterUnits="objectBoundingBox" x="0%" y="0%" width="100%" height="100%"><feColorMatrix type="matrix" color-interpolation-filters="sRGB" values="1 0 0 0 0 0 1 0 0 0 0 0 1 0 0 0 0 0 1 0"></feColorMatrix></filter><filter id="RvyiXZQSFk" filterUnits="objectBoundingBox" x="0%" y="0%" width="100%" height="100%"><feColorMatrix type="matrix" color-interpolation-filters="sRGB" values="1 0 0 0 0 0 1 0 0 0 0 0 1 0 0 0 0 0 1 0"></feColorMatrix></filter><filter id="hEkmQMBjsX" filterUnits="objectBoundingBox" x="0%" y="0%" width="100%" height="100%"><feColorMatrix type="matrix" color-interpolation-filters="sRGB" values="1 0 0 0 0 0 1 0 0 0 0 0 1 0 0 0 0 0 1 0"></feColorMatrix></filter><filter id="agDdqHXoLV" filterUnits="objectBoundingBox" x="0%" y="0%" width="100%" height="100%"><feColorMatrix type="matrix" color-interpolation-filters="sRGB" values="1 0 0 0 0 0 1 0 0 0 0 0 1 0 0 0 0 0 1 0"></feColorMatrix></filter><filter id="ZJArv2jB4t" filterUnits="objectBoundingBox" x="0%" y="0%" width="100%" height="100%"><feColorMatrix type="matrix" color-interpolation-filters="sRGB" values="1 0 0 0 0 0 1 0 0 0 0 0 1 0 0 0 0 0 1 0"></feColorMatrix></filter><filter id="izDbM94oF6" filterUnits="objectBoundingBox" x="0%" y="0%" width="100%" height="100%"><feColorMatrix type="matrix" color-interpolation-filters="sRGB" values="1 0 0 0 0 0 1 0 0 0 0 0 1 0 0 0 0 0 1 0"></feColorMatrix></filter><filter id="U4TpfWLDyM" filterUnits="objectBoundingBox" x="0%" y="0%" width="100%" height="100%"><feColorMatrix type="matrix" color-interpolation-filters="sRGB" values="1 0 0 0 0 0 1 0 0 0 0 0 1 0 0 0 0 0 1 0"></feColorMatrix></filter><filter id="QQFMkoywfo" filterUnits="objectBoundingBox" x="0%" y="0%" width="100%" height="100%"><feColorMatrix type="matrix" color-interpolation-filters="sRGB" values="1 0 0 0 0 0 1 0 0 0 0 0 1 0 0 0 0 0 1 0"></feColorMatrix></filter><filter id="E6C9LAhfP5" filterUnits="objectBoundingBox" x="0%" y="0%" width="100%" height="100%"><feColorMatrix type="matrix" color-interpolation-filters="sRGB" values="1 0 0 0 0 0 1 0 0 0 0 0 1 0 0 0 0 0 1 0"></feColorMatrix></filter><filter id="axHFAlGVtB" filterUnits="objectBoundingBox" x="0%" y="0%" width="100%" height="100%"><feColorMatrix type="matrix" color-interpolation-filters="sRGB" values="1 0 0 0 0 0 1 0 0 0 0 0 1 0 0 0 0 0 1 0"></feColorMatrix></filter><filter id="PKVLFTyZvj" filterUnits="objectBoundingBox" x="0%" y="0%" width="100%" height="100%"><feColorMatrix type="matrix" color-interpolation-filters="sRGB" values="1 0 0 0 0 0 1 0 0 0 0 0 1 0 0 0 0 0 1 0"></feColorMatrix></filter><filter id="lzNZ9vNL0B" filterUnits="objectBoundingBox" x="0%" y="0%" width="100%" height="100%"><feColorMatrix type="matrix" color-interpolation-filters="sRGB" values="1 0 0 0 0 0 1 0 0 0 0 0 1 0 0 0 0 0 1 0"></feColorMatrix></filter><filter id="g6idoRI3jT" filterUnits="objectBoundingBox" x="0%" y="0%" width="100%" height="100%"><feColorMatrix type="matrix" color-interpolation-filters="sRGB" values="1 0 0 0 0 0 1 0 0 0 0 0 1 0 0 0 0 0 1 0"></feColorMatrix></filter><filter id="7nK7h11TIm" filterUnits="objectBoundingBox" x="0%" y="0%" width="100%" height="100%"><feColorMatrix type="matrix" color-interpolation-filters="sRGB" values="1 0 0 0 0 0 1 0 0 0 0 0 1 0 0 0 0 0 1 0"></feColorMatrix></filter><filter id="BsCnKyfCMX" filterUnits="objectBoundingBox" x="0%" y="0%" width="100%" height="100%"><feColorMatrix type="matrix" color-interpolation-filters="sRGB" values="0 0 0 0 1 0 0 0 0 0.99 0 0 0 0 0 0 0 0 1 0"></feColorMatrix></filter><filter id="B6NJNsXP9x" filterUnits="objectBoundingBox" x="0%" y="0%" width="100%" height="100%"><feColorMatrix type="matrix" color-interpolation-filters="sRGB" values="0 0 0 0 1 0 0 0 0 0.99 0 0 0 0 0 0 0 0 1 0"></feColorMatrix></filter><filter id="3O6fwTZojc" filterUnits="objectBoundingBox" x="0%" y="0%" width="100%" height="100%"><feColorMatrix type="matrix" color-interpolation-filters="sRGB" values="0 0 0 0 1 0 0 0 0 0.99 0 0 0 0 0 0 0 0 1 0"></feColorMatrix></filter><filter id="JXydYWlF9T" filterUnits="objectBoundingBox" x="0%" y="0%" width="100%" height="100%"><feColorMatrix type="matrix" color-interpolation-filters="sRGB" values="0 0 0 0 0 0 0 0 0 0.49 0 0 0 0 1 0 0 0 1 0"></feColorMatrix></filter><filter id="akA3DXwlSc" filterUnits="objectBoundingBox" x="0%" y="0%" width="100%" height="100%"><feColorMatrix type="matrix" color-interpolation-filters="sRGB" values="0 0 0 0 0 0 0 0 0 0.49 0 0 0 0 1 0 0 0 1 0"></feColorMatrix></filter><filter id="Hn3QykIBn7" filterUnits="objectBoundingBox" x="0%" y="0%" width="100%" height="100%"><feColorMatrix type="matrix" color-interpolation-filters="sRGB" values="0 0 0 0 0 0 0 0 0 0.49 0 0 0 0 1 0 0 0 1 0"></feColorMatrix></filter><filter id="X9jJUK5866" filterUnits="objectBoundingBox" x="0%" y="0%" width="100%" height="100%"><feColorMatrix type="matrix" color-interpolation-filters="sRGB" values="0 0 0 0 1 0 0 0 0 0 0 0 0 0 0 0 0 0 1 0"></feColorMatrix></filter><filter id="O8Il6o1A2Y" filterUnits="objectBoundingBox" x="0%" y="0%" width="100%" height="100%"><feColorMatrix type="matrix" color-interpolation-filters="sRGB" values="0 0 0 0 1 0 0 0 0 0 0 0 0 0 0 0 0 0 1 0"></feColorMatrix></filter><filter id="W15jlkhXQF" filterUnits="objectBoundingBox" x="0%" y="0%" width="100%" height="100%"><feColorMatrix type="matrix" color-interpolation-filters="sRGB" values="0 0 0 0 1 0 0 0 0 0 0 0 0 0 0 0 0 0 1 0"></feColorMatrix></filter><filter id="5yQvNulL9G" filterUnits="objectBoundingBox" x="0%" y="0%" width="100%" height="100%"><feColorMatrix type="matrix" color-interpolation-filters="sRGB" values="0 0 0 0 1 0 0 0 0 0.99 0 0 0 0 0 0 0 0 1 0"></feColorMatrix></filter><filter id="PkQt38Zj1J" filterUnits="objectBoundingBox" x="0%" y="0%" width="100%" height="100%"><feColorMatrix type="matrix" color-interpolation-filters="sRGB" values="0 0 0 0 1 0 0 0 0 0.99 0 0 0 0 0 0 0 0 1 0"></feColorMatrix></filter><filter id="8sGd8V6I3v" filterUnits="objectBoundingBox" x="0%" y="0%" width="100%" height="100%"><feColorMatrix type="matrix" color-interpolation-filters="sRGB" values="0 0 0 0 1 0 0 0 0 0.99 0 0 0 0 0 0 0 0 1 0"></feColorMatrix></filter><filter id="X261GuMn0U" filterUnits="objectBoundingBox" x="0%" y="0%" width="100%" height="100%"><feColorMatrix type="matrix" color-interpolation-filters="sRGB" values="0 0 0 0 0 0 0 0 0 0.49 0 0 0 0 1 0 0 0 1 0"></feColorMatrix></filter><filter id="Rbo67j7KyT" filterUnits="objectBoundingBox" x="0%" y="0%" width="100%" height="100%"><feColorMatrix type="matrix" color-interpolation-filters="sRGB" values="0 0 0 0 0 0 0 0 0 0.49 0 0 0 0 1 0 0 0 1 0"></feColorMatrix></filter><filter id="xaLCJQoJjO" filterUnits="objectBoundingBox" x="0%" y="0%" width="100%" height="100%"><feColorMatrix type="matrix" color-interpolation-filters="sRGB" values="0 0 0 0 0 0 0 0 0 0.49 0 0 0 0 1 0 0 0 1 0"></feColorMatrix></filter><filter id="ukmE3epHdZ" filterUnits="objectBoundingBox" x="0%" y="0%" width="100%" height="100%"><feColorMatrix type="matrix" color-interpolation-filters="sRGB" values="0 0 0 0 1 0 0 0 0 0 0 0 0 0 0 0 0 0 1 0"></feColorMatrix></filter><filter id="g54kHZ4Z2M" filterUnits="objectBoundingBox" x="0%" y="0%" width="100%" height="100%"><feColorMatrix type="matrix" color-interpolation-filters="sRGB" values="0 0 0 0 1 0 0 0 0 0 0 0 0 0 0 0 0 0 1 0"></feColorMatrix></filter><filter id="xwUlttyp4z" filterUnits="objectBoundingBox" x="0%" y="0%" width="100%" height="100%"><feColorMatrix type="matrix" color-interpolation-filters="sRGB" values="0 0 0 0 1 0 0 0 0 0 0 0 0 0 0 0 0 0 1 0"></feColorMatrix></filter></defs><g clip-path="url(#animationMask_ub1DklNkzU)"><g transform="matrix(7.799999942018594,0,0,7.799999942018594,148.45000186990032,148.45000186990032)" opacity="1" style="-webkit-user-select: none;"><g opacity="1" transform="matrix(1,0,0,1,32.25,32.25)"><path fill="rgb(119,178,211)" fill-opacity="1" d=" M32,0 C32,17.673 17.673,32 0,32 C-17.673,32 -32,17.673 -32,0 C-32,-17.673 -17.673,-32 0,-32 C17.673,-32 32,-17.673 32,0z"></path></g></g><g style="-webkit-user-select: none; display: none;"><g><path style="display: none;"></path></g></g><g filter="url(#xwUlttyp4z)" transform="matrix(7.8,0,0,7.8,226.45000000000002,226.45000000000002)" opacity="1" style="-webkit-user-select: none;"><g opacity="1" transform="matrix(1,0,0,1,22.25,22.25)"><path fill="rgb(255,255,255)" fill-opacity="1" d=" M0,22 C-12.131,22 -22,12.131 -22,0 C-22,-12.131 -12.131,-22 0,-22 C12.131,-22 22,-12.131 22,0 C22,4.521 20.639000000000003,8.866 18.062,12.563 C17.491,13.385 14.058,7.226 15.812,8.612 C17.247999999999998,5.982 18,3.041 18,0 C18,-9.925 9.925,-18 0,-18 C-9.925,-18 -18,-9.925 -18,0 C-18,9.925 -9.925,18 0,18 C2.905,18 5.677,17.330000000000002 8.238,16.009 C9.218,15.501000000000001 10.426,15.887 10.933,16.869 C11.439,17.851 11.053999999999998,19.058 10.072,19.563 C6.981999999999999,21.157 3.499,22 0,22z"></path></g></g><g filter="url(#g54kHZ4Z2M)" transform="matrix(7.8,0,0,7.8,226.45000000000002,226.45000000000002)" opacity="1" style="-webkit-user-select: none;"><g opacity="1" transform="matrix(1,0,0,1,22.25,22.25)"><path fill="rgb(255,255,255)" fill-opacity="1" d=" M18.062,12.563 C17.491,13.385 16.399,13.655 15.511,13.2 C15.18,13.030999999999999 7.417,8.954 7.417,0.083 C7.417,0.083 7.417,-8.706 7.417,-8.706 C7.417,-9.811 8.312999999999999,-10.706 9.417,-10.706 C10.521,-10.706 11.417,-9.811 11.417,-8.706 C11.417,-8.706 11.417,0.083 11.417,0.083 C11.417,4.416 14.058,7.226 15.812,8.612 C17.247999999999998,5.982 20.639000000000003,8.866 18.062,12.563z"></path></g></g><g filter="url(#ukmE3epHdZ)" transform="matrix(7.8,0,0,7.8,309.2626,309.26460000000003)" opacity="1" style="-webkit-user-select: none;"><g opacity="1" transform="matrix(1,0,0,1,11.633,11.633)"><path fill="rgb(255,255,255)" fill-opacity="1" d=" M-32,-32 C-32,-32 32,-32 32,-32 C32,-32 32,32 32,32 C32,32 -32,32 -32,32 C-32,32 -32,-32 -32,-32z M-32,32 C-32,32 32,32 32,32 C32,32 32,-32 32,-32 C32,-32 -32,-32 -32,-32 C-32,-32 -32,32 -32,32z M0,-7.383 C4.071,-7.383 7.383,-4.071 7.383,0 C7.383,4.071 4.071,7.383 0,7.383 C-4.071,7.383 -7.383,4.071 -7.383,0 C-7.383,-4.071 -4.071,-7.383 0,-7.383z M0,-11.383 C-6.287,-11.383 -11.383,-6.287 -11.383,0 C-11.383,6.287 -6.287,11.383 0,11.383 C6.287,11.383 11.383,6.287 11.383,0 C11.383,-6.287 6.287,-11.383 0,-11.383z"></path><g opacity="1" transform="matrix(1,0,0,1,0,0)"></g></g></g><g filter="url(#xaLCJQoJjO)" transform="matrix(7.8,0,0,7.8,226.45000000000002,226.45000000000002)" opacity="1" style="-webkit-user-select: none;"><g opacity="1" transform="matrix(1,0,0,1,22.25,22.25)"><path fill="rgb(255,255,255)" fill-opacity="1" d=" M0,22 C-12.131,22 -22,12.131 -22,0 C-22,-12.131 -12.131,-22 0,-22 C12.131,-22 22,-12.131 22,0 C22,4.521 20.639000000000003,8.866 18.062,12.563 C17.491,13.385 14.058,7.226 15.812,8.612 C17.247999999999998,5.982 18,3.041 18,0 C18,-9.925 9.925,-18 0,-18 C-9.925,-18 -18,-9.925 -18,0 C-18,9.925 -9.925,18 0,18 C2.905,18 5.677,17.330000000000002 8.238,16.009 C9.218,15.501000000000001 10.426,15.887 10.933,16.869 C11.439,17.851 11.053999999999998,19.058 10.072,19.563 C6.981999999999999,21.157 3.499,22 0,22z"></path></g></g><g filter="url(#Rbo67j7KyT)" transform="matrix(7.8,0,0,7.8,226.45000000000002,226.45000000000002)" opacity="1" style="-webkit-user-select: none;"><g opacity="1" transform="matrix(1,0,0,1,22.25,22.25)"><path fill="rgb(255,255,255)" fill-opacity="1" d=" M18.062,12.563 C17.491,13.385 16.399,13.655 15.511,13.2 C15.18,13.030999999999999 7.417,8.954 7.417,0.083 C7.417,0.083 7.417,-8.706 7.417,-8.706 C7.417,-9.811 8.312999999999999,-10.706 9.417,-10.706 C10.521,-10.706 11.417,-9.811 11.417,-8.706 C11.417,-8.706 11.417,0.083 11.417,0.083 C11.417,4.416 14.058,7.226 15.812,8.612 C17.247999999999998,5.982 20.639000000000003,8.866 18.062,12.563z"></path></g></g><g filter="url(#X261GuMn0U)" transform="matrix(7.8,0,0,7.8,309.2626,309.26460000000003)" opacity="1" style="-webkit-user-select: none;"><g opacity="1" transform="matrix(1,0,0,1,11.633,11.633)"><path fill="rgb(255,255,255)" fill-opacity="1" d=" M-32,-32 C-32,-32 32,-32 32,-32 C32,-32 32,32 32,32 C32,32 -32,32 -32,32 C-32,32 -32,-32 -32,-32z M-32,32 C-32,32 32,32 32,32 C32,32 32,-32 32,-32 C32,-32 -32,-32 -32,-32 C-32,-32 -32,32 -32,32z M0,-7.383 C4.071,-7.383 7.383,-4.071 7.383,0 C7.383,4.071 4.071,7.383 0,7.383 C-4.071,7.383 -7.383,4.071 -7.383,0 C-7.383,-4.071 -4.071,-7.383 0,-7.383z M0,-11.383 C-6.287,-11.383 -11.383,-6.287 -11.383,0 C-11.383,6.287 -6.287,11.383 0,11.383 C6.287,11.383 11.383,6.287 11.383,0 C11.383,-6.287 6.287,-11.383 0,-11.383z"></path><g opacity="1" transform="matrix(1,0,0,1,0,0)"></g></g></g><g filter="url(#8sGd8V6I3v)" transform="matrix(7.8,0,0,7.8,226.45000000000002,226.45000000000002)" opacity="1" style="-webkit-user-select: none;"><g opacity="1" transform="matrix(1,0,0,1,22.25,22.25)"><path fill="rgb(255,255,255)" fill-opacity="1" d=" M0,22 C-12.131,22 -22,12.131 -22,0 C-22,-12.131 -12.131,-22 0,-22 C12.131,-22 22,-12.131 22,0 C22,4.521 20.639000000000003,8.866 18.062,12.563 C17.491,13.385 14.058,7.226 15.812,8.612 C17.247999999999998,5.982 18,3.041 18,0 C18,-9.925 9.925,-18 0,-18 C-9.925,-18 -18,-9.925 -18,0 C-18,9.925 -9.925,18 0,18 C2.905,18 5.677,17.330000000000002 8.238,16.009 C9.218,15.501000000000001 10.426,15.887 10.933,16.869 C11.439,17.851 11.053999999999998,19.058 10.072,19.563 C6.981999999999999,21.157 3.499,22 0,22z"></path></g></g><g filter="url(#PkQt38Zj1J)" transform="matrix(7.8,0,0,7.8,226.45000000000002,226.45000000000002)" opacity="1" style="-webkit-user-select: none;"><g opacity="1" transform="matrix(1,0,0,1,22.25,22.25)"><path fill="rgb(255,255,255)" fill-opacity="1" d=" M18.062,12.563 C17.491,13.385 16.399,13.655 15.511,13.2 C15.18,13.030999999999999 7.417,8.954 7.417,0.083 C7.417,0.083 7.417,-8.706 7.417,-8.706 C7.417,-9.811 8.312999999999999,-10.706 9.417,-10.706 C10.521,-10.706 11.417,-9.811 11.417,-8.706 C11.417,-8.706 11.417,0.083 11.417,0.083 C11.417,4.416 14.058,7.226 15.812,8.612 C17.247999999999998,5.982 20.639000000000003,8.866 18.062,12.563z"></path></g></g><g filter="url(#5yQvNulL9G)" transform="matrix(7.8,0,0,7.8,309.2626,309.26460000000003)" opacity="1" style="-webkit-user-select: none;"><g opacity="1" transform="matrix(1,0,0,1,11.633,11.633)"><path fill="rgb(255,255,255)" fill-opacity="1" d=" M-32,-32 C-32,-32 32,-32 32,-32 C32,-32 32,32 32,32 C32,32 -32,32 -32,32 C-32,32 -32,-32 -32,-32z M-32,32 C-32,32 32,32 32,32 C32,32 32,-32 32,-32 C32,-32 -32,-32 -32,-32 C-32,-32 -32,32 -32,32z M0,-7.383 C4.071,-7.383 7.383,-4.071 7.383,0 C7.383,4.071 4.071,7.383 0,7.383 C-4.071,7.383 -7.383,4.071 -7.383,0 C-7.383,-4.071 -4.071,-7.383 0,-7.383z M0,-11.383 C-6.287,-11.383 -11.383,-6.287 -11.383,0 C-11.383,6.287 -6.287,11.383 0,11.383 C6.287,11.383 11.383,6.287 11.383,0 C11.383,-6.287 6.287,-11.383 0,-11.383z"></path><g opacity="1" transform="matrix(1,0,0,1,0,0)"></g></g></g><g transform="matrix(7.8,0,0,7.8,226.45000000000002,226.45000000000002)" opacity="1" style="-webkit-user-select: none;"><g opacity="1" transform="matrix(1,0,0,1,22.25,22.25)"><path fill="rgb(255,255,255)" fill-opacity="1" d=" M0,22 C-12.131,22 -22,12.131 -22,0 C-22,-12.131 -12.131,-22 0,-22 C12.131,-22 22,-12.131 22,0 C22,4.521 20.639000000000003,8.866 18.062,12.563 C17.491,13.385 14.058,7.226 15.812,8.612 C17.247999999999998,5.982 18,3.041 18,0 C18,-9.925 9.925,-18 0,-18 C-9.925,-18 -18,-9.925 -18,0 C-18,9.925 -9.925,18 0,18 C2.905,18 5.677,17.330000000000002 8.238,16.009 C9.218,15.501000000000001 10.426,15.887 10.933,16.869 C11.439,17.851 11.053999999999998,19.058 10.072,19.563 C6.981999999999999,21.157 3.499,22 0,22z"></path></g></g><g transform="matrix(7.8,0,0,7.8,226.45000000000002,226.45000000000002)" opacity="1" style="-webkit-user-select: none;"><g opacity="1" transform="matrix(1,0,0,1,22.25,22.25)"><path fill="rgb(255,255,255)" fill-opacity="1" d=" M18.062,12.563 C17.491,13.385 16.399,13.655 15.511,13.2 C15.18,13.030999999999999 7.417,8.954 7.417,0.083 C7.417,0.083 7.417,-8.706 7.417,-8.706 C7.417,-9.811 8.312999999999999,-10.706 9.417,-10.706 C10.521,-10.706 11.417,-9.811 11.417,-8.706 C11.417,-8.706 11.417,0.083 11.417,0.083 C11.417,4.416 14.058,7.226 15.812,8.612 C17.247999999999998,5.982 20.639000000000003,8.866 18.062,12.563z"></path></g></g><g transform="matrix(7.8,0,0,7.8,309.2626,309.26460000000003)" opacity="1" style="-webkit-user-select: none;"><g opacity="1" transform="matrix(1,0,0,1,11.633,11.633)"><path fill="rgb(255,255,255)" fill-opacity="1" d=" M-32,-32 C-32,-32 32,-32 32,-32 C32,-32 32,32 32,32 C32,32 -32,32 -32,32 C-32,32 -32,-32 -32,-32z M-32,32 C-32,32 32,32 32,32 C32,32 32,-32 32,-32 C32,-32 -32,-32 -32,-32 C-32,-32 -32,32 -32,32z M0,-7.383 C4.071,-7.383 7.383,-4.071 7.383,0 C7.383,4.071 4.071,7.383 0,7.383 C-4.071,7.383 -7.383,4.071 -7.383,0 C-7.383,-4.071 -4.071,-7.383 0,-7.383z M0,-11.383 C-6.287,-11.383 -11.383,-6.287 -11.383,0 C-11.383,6.287 -6.287,11.383 0,11.383 C6.287,11.383 11.383,6.287 11.383,0 C11.383,-6.287 6.287,-11.383 0,-11.383z"></path><g opacity="1" transform="matrix(1,0,0,1,0,0)"></g></g></g><g filter="url(#W15jlkhXQF)" transform="matrix(7.8,0,0,7.8,226.45000000000002,226.45000000000002)" opacity="1" style="-webkit-user-select: none; display: none;"><g opacity="1" transform="matrix(1,0,0,1,22.25,22.25)"><path fill="rgb(255,255,255)" fill-opacity="1" d=" M0,22 C-12.131,22 -22,12.131 -22,0 C-22,-12.131 -12.131,-22 0,-22 C12.131,-22 22,-12.131 22,0 C22,4.521 20.639000000000003,8.866 18.062,12.563 C17.491,13.385 14.058,7.226 15.812,8.612 C17.247999999999998,5.982 18,3.041 18,0 C18,-9.925 9.925,-18 0,-18 C-9.925,-18 -18,-9.925 -18,0 C-18,9.925 -9.925,18 0,18 C2.905,18 5.677,17.330000000000002 8.238,16.009 C9.218,15.501000000000001 10.426,15.887 10.933,16.869 C11.439,17.851 11.053999999999998,19.058 10.072,19.563 C6.981999999999999,21.157 3.499,22 0,22z" style="display: none;"></path></g></g><g filter="url(#O8Il6o1A2Y)" transform="matrix(7.8,0,0,7.8,226.45000000000002,226.45000000000002)" opacity="1" style="-webkit-user-select: none; display: none;"><g opacity="1" transform="matrix(1,0,0,1,22.25,22.25)"><path fill="rgb(255,255,255)" fill-opacity="1" d=" M18.062,12.563 C17.491,13.385 16.399,13.655 15.511,13.2 C15.18,13.030999999999999 7.417,8.954 7.417,0.083 C7.417,0.083 7.417,-8.706 7.417,-8.706 C7.417,-9.811 8.312999999999999,-10.706 9.417,-10.706 C10.521,-10.706 11.417,-9.811 11.417,-8.706 C11.417,-8.706 11.417,0.083 11.417,0.083 C11.417,4.416 14.058,7.226 15.812,8.612 C17.247999999999998,5.982 20.639000000000003,8.866 18.062,12.563z" style="display: none;"></path></g></g><g filter="url(#X9jJUK5866)" transform="matrix(7.8,0,0,7.8,309.2626,309.26460000000003)" opacity="1" style="-webkit-user-select: none; display: none;"><g opacity="1" transform="matrix(1,0,0,1,11.633,11.633)"><path fill="rgb(255,255,255)" fill-opacity="1" d=" M-32,-32 C-32,-32 32,-32 32,-32 C32,-32 32,32 32,32 C32,32 -32,32 -32,32 C-32,32 -32,-32 -32,-32z M-32,32 C-32,32 32,32 32,32 C32,32 32,-32 32,-32 C32,-32 -32,-32 -32,-32 C-32,-32 -32,32 -32,32z M0,-7.383 C4.071,-7.383 7.383,-4.071 7.383,0 C7.383,4.071 4.071,7.383 0,7.383 C-4.071,7.383 -7.383,4.071 -7.383,0 C-7.383,-4.071 -4.071,-7.383 0,-7.383z M0,-11.383 C-6.287,-11.383 -11.383,-6.287 -11.383,0 C-11.383,6.287 -6.287,11.383 0,11.383 C6.287,11.383 11.383,6.287 11.383,0 C11.383,-6.287 6.287,-11.383 0,-11.383z" style="display: none;"></path><g opacity="1" transform="matrix(1,0,0,1,0,0)"></g></g></g><g filter="url(#Hn3QykIBn7)" transform="matrix(7.8,0,0,7.8,226.45000000000002,226.45000000000002)" opacity="1" style="-webkit-user-select: none; display: none;"><g opacity="1" transform="matrix(1,0,0,1,22.25,22.25)"><path fill="rgb(255,255,255)" fill-opacity="1" d=" M0,22 C-12.131,22 -22,12.131 -22,0 C-22,-12.131 -12.131,-22 0,-22 C12.131,-22 22,-12.131 22,0 C22,4.521 20.639000000000003,8.866 18.062,12.563 C17.491,13.385 14.058,7.226 15.812,8.612 C17.247999999999998,5.982 18,3.041 18,0 C18,-9.925 9.925,-18 0,-18 C-9.925,-18 -18,-9.925 -18,0 C-18,9.925 -9.925,18 0,18 C2.905,18 5.677,17.330000000000002 8.238,16.009 C9.218,15.501000000000001 10.426,15.887 10.933,16.869 C11.439,17.851 11.053999999999998,19.058 10.072,19.563 C6.981999999999999,21.157 3.499,22 0,22z" style="display: none;"></path></g></g><g filter="url(#akA3DXwlSc)" transform="matrix(7.8,0,0,7.8,226.45000000000002,226.45000000000002)" opacity="1" style="-webkit-user-select: none; display: none;"><g opacity="1" transform="matrix(1,0,0,1,22.25,22.25)"><path fill="rgb(255,255,255)" fill-opacity="1" d=" M18.062,12.563 C17.491,13.385 16.399,13.655 15.511,13.2 C15.18,13.030999999999999 7.417,8.954 7.417,0.083 C7.417,0.083 7.417,-8.706 7.417,-8.706 C7.417,-9.811 8.312999999999999,-10.706 9.417,-10.706 C10.521,-10.706 11.417,-9.811 11.417,-8.706 C11.417,-8.706 11.417,0.083 11.417,0.083 C11.417,4.416 14.058,7.226 15.812,8.612 C17.247999999999998,5.982 20.639000000000003,8.866 18.062,12.563z" style="display: none;"></path></g></g><g filter="url(#JXydYWlF9T)" transform="matrix(7.8,0,0,7.8,309.2626,309.26460000000003)" opacity="1" style="-webkit-user-select: none; display: none;"><g opacity="1" transform="matrix(1,0,0,1,11.633,11.633)"><path fill="rgb(255,255,255)" fill-opacity="1" d=" M-32,-32 C-32,-32 32,-32 32,-32 C32,-32 32,32 32,32 C32,32 -32,32 -32,32 C-32,32 -32,-32 -32,-32z M-32,32 C-32,32 32,32 32,32 C32,32 32,-32 32,-32 C32,-32 -32,-32 -32,-32 C-32,-32 -32,32 -32,32z M0,-7.383 C4.071,-7.383 7.383,-4.071 7.383,0 C7.383,4.071 4.071,7.383 0,7.383 C-4.071,7.383 -7.383,4.071 -7.383,0 C-7.383,-4.071 -4.071,-7.383 0,-7.383z M0,-11.383 C-6.287,-11.383 -11.383,-6.287 -11.383,0 C-11.383,6.287 -6.287,11.383 0,11.383 C6.287,11.383 11.383,6.287 11.383,0 C11.383,-6.287 6.287,-11.383 0,-11.383z" style="display: none;"></path><g opacity="1" transform="matrix(1,0,0,1,0,0)"></g></g></g><g filter="url(#3O6fwTZojc)" transform="matrix(7.8,0,0,7.8,226.45000000000002,226.45000000000002)" opacity="1" style="-webkit-user-select: none; display: none;"><g opacity="1" transform="matrix(1,0,0,1,22.25,22.25)"><path fill="rgb(255,255,255)" fill-opacity="1" d=" M0,22 C-12.131,22 -22,12.131 -22,0 C-22,-12.131 -12.131,-22 0,-22 C12.131,-22 22,-12.131 22,0 C22,4.521 20.639000000000003,8.866 18.062,12.563 C17.491,13.385 14.058,7.226 15.812,8.612 C17.247999999999998,5.982 18,3.041 18,0 C18,-9.925 9.925,-18 0,-18 C-9.925,-18 -18,-9.925 -18,0 C-18,9.925 -9.925,18 0,18 C2.905,18 5.677,17.330000000000002 8.238,16.009 C9.218,15.501000000000001 10.426,15.887 10.933,16.869 C11.439,17.851 11.053999999999998,19.058 10.072,19.563 C6.981999999999999,21.157 3.499,22 0,22z" style="display: none;"></path></g></g><g filter="url(#B6NJNsXP9x)" transform="matrix(7.8,0,0,7.8,226.45000000000002,226.45000000000002)" opacity="1" style="-webkit-user-select: none; display: none;"><g opacity="1" transform="matrix(1,0,0,1,22.25,22.25)"><path fill="rgb(255,255,255)" fill-opacity="1" d=" M18.062,12.563 C17.491,13.385 16.399,13.655 15.511,13.2 C15.18,13.030999999999999 7.417,8.954 7.417,0.083 C7.417,0.083 7.417,-8.706 7.417,-8.706 C7.417,-9.811 8.312999999999999,-10.706 9.417,-10.706 C10.521,-10.706 11.417,-9.811 11.417,-8.706 C11.417,-8.706 11.417,0.083 11.417,0.083 C11.417,4.416 14.058,7.226 15.812,8.612 C17.247999999999998,5.982 20.639000000000003,8.866 18.062,12.563z" style="display: none;"></path></g></g><g filter="url(#BsCnKyfCMX)" transform="matrix(7.8,0,0,7.8,309.2626,309.26460000000003)" opacity="1" style="-webkit-user-select: none; display: none;"><g opacity="1" transform="matrix(1,0,0,1,11.633,11.633)"><path fill="rgb(255,255,255)" fill-opacity="1" d=" M-32,-32 C-32,-32 32,-32 32,-32 C32,-32 32,32 32,32 C32,32 -32,32 -32,32 C-32,32 -32,-32 -32,-32z M-32,32 C-32,32 32,32 32,32 C32,32 32,-32 32,-32 C32,-32 -32,-32 -32,-32 C-32,-32 -32,32 -32,32z M0,-7.383 C4.071,-7.383 7.383,-4.071 7.383,0 C7.383,4.071 4.071,7.383 0,7.383 C-4.071,7.383 -7.383,4.071 -7.383,0 C-7.383,-4.071 -4.071,-7.383 0,-7.383z M0,-11.383 C-6.287,-11.383 -11.383,-6.287 -11.383,0 C-11.383,6.287 -6.287,11.383 0,11.383 C6.287,11.383 11.383,6.287 11.383,0 C11.383,-6.287 6.287,-11.383 0,-11.383z" style="display: none;"></path><g opacity="1" transform="matrix(1,0,0,1,0,0)"></g></g></g><g transform="matrix(7.8,0,0,7.8,226.45000000000002,226.45000000000002)" opacity="1" style="-webkit-user-select: none; display: none;"><g opacity="1" transform="matrix(1,0,0,1,22.25,22.25)"><path fill="rgb(255,255,255)" fill-opacity="1" d=" M0,22 C-12.131,22 -22,12.131 -22,0 C-22,-12.131 -12.131,-22 0,-22 C12.131,-22 22,-12.131 22,0 C22,4.521 20.639000000000003,8.866 18.062,12.563 C17.491,13.385 14.058,7.226 15.812,8.612 C17.247999999999998,5.982 18,3.041 18,0 C18,-9.925 9.925,-18 0,-18 C-9.925,-18 -18,-9.925 -18,0 C-18,9.925 -9.925,18 0,18 C2.905,18 5.677,17.330000000000002 8.238,16.009 C9.218,15.501000000000001 10.426,15.887 10.933,16.869 C11.439,17.851 11.053999999999998,19.058 10.072,19.563 C6.981999999999999,21.157 3.499,22 0,22z" style="display: none;"></path></g></g><g transform="matrix(7.8,0,0,7.8,226.45000000000002,226.45000000000002)" opacity="1" style="-webkit-user-select: none; display: none;"><g opacity="1" transform="matrix(1,0,0,1,22.25,22.25)"><path fill="rgb(255,255,255)" fill-opacity="1" d=" M18.062,12.563 C17.491,13.385 16.399,13.655 15.511,13.2 C15.18,13.030999999999999 7.417,8.954 7.417,0.083 C7.417,0.083 7.417,-8.706 7.417,-8.706 C7.417,-9.811 8.312999999999999,-10.706 9.417,-10.706 C10.521,-10.706 11.417,-9.811 11.417,-8.706 C11.417,-8.706 11.417,0.083 11.417,0.083 C11.417,4.416 14.058,7.226 15.812,8.612 C17.247999999999998,5.982 20.639000000000003,8.866 18.062,12.563z" style="display: none;"></path></g></g><g transform="matrix(7.8,0,0,7.8,309.2626,309.26460000000003)" opacity="1" style="-webkit-user-select: none; display: none;"><g opacity="1" transform="matrix(1,0,0,1,11.633,11.633)"><path fill="rgb(255,255,255)" fill-opacity="1" d=" M-32,-32 C-32,-32 32,-32 32,-32 C32,-32 32,32 32,32 C32,32 -32,32 -32,32 C-32,32 -32,-32 -32,-32z M-32,32 C-32,32 32,32 32,32 C32,32 32,-32 32,-32 C32,-32 -32,-32 -32,-32 C-32,-32 -32,32 -32,32z M0,-7.383 C4.071,-7.383 7.383,-4.071 7.383,0 C7.383,4.071 4.071,7.383 0,7.383 C-4.071,7.383 -7.383,4.071 -7.383,0 C-7.383,-4.071 -4.071,-7.383 0,-7.383z M0,-11.383 C-6.287,-11.383 -11.383,-6.287 -11.383,0 C-11.383,6.287 -6.287,11.383 0,11.383 C6.287,11.383 11.383,6.287 11.383,0 C11.383,-6.287 6.287,-11.383 0,-11.383z" style="display: none;"></path><g opacity="1" transform="matrix(1,0,0,1,0,0)"></g></g></g><g filter="url(#7nK7h11TIm)" style="-webkit-user-select: none; display: none;"><g><path style="display: none;"></path></g></g><g filter="url(#g6idoRI3jT)" style="-webkit-user-select: none; display: none;"><g><path style="display: none;"></path></g></g><g filter="url(#lzNZ9vNL0B)" style="-webkit-user-select: none; display: none;"><g><path style="display: none;"></path><g></g></g></g><g filter="url(#PKVLFTyZvj)" style="-webkit-user-select: none; display: none;"><g><path style="display: none;"></path></g></g><g filter="url(#axHFAlGVtB)" style="-webkit-user-select: none; display: none;"><g><path style="display: none;"></path></g></g><g filter="url(#E6C9LAhfP5)" style="-webkit-user-select: none; display: none;"><g><path style="display: none;"></path><g></g></g></g><g filter="url(#QQFMkoywfo)" style="-webkit-user-select: none; display: none;"><g><path style="display: none;"></path></g></g><g filter="url(#U4TpfWLDyM)" style="-webkit-user-select: none; display: none;"><g><path style="display: none;"></path></g></g><g filter="url(#izDbM94oF6)" style="-webkit-user-select: none; display: none;"><g><path style="display: none;"></path><g></g></g></g><g style="-webkit-user-select: none; display: none;"><g><path style="display: none;"></path></g></g><g style="-webkit-user-select: none; display: none;"><g><path style="display: none;"></path></g></g><g style="-webkit-user-select: none; display: none;"><g><path style="display: none;"></path><g></g></g></g><g filter="url(#ZJArv2jB4t)" style="-webkit-user-select: none; display: none;"><g><path style="display: none;"></path></g></g><g filter="url(#agDdqHXoLV)" style="-webkit-user-select: none; display: none;"><g><path style="display: none;"></path></g></g><g filter="url(#hEkmQMBjsX)" style="-webkit-user-select: none; display: none;"><g><path style="display: none;"></path><g></g></g></g><g filter="url(#RvyiXZQSFk)" style="-webkit-user-select: none; display: none;"><g><path style="display: none;"></path></g></g><g filter="url(#3lALytD7xM)" style="-webkit-user-select: none; display: none;"><g><path style="display: none;"></path></g></g><g filter="url(#FIAJ1GrbOn)" style="-webkit-user-select: none; display: none;"><g><path style="display: none;"></path><g></g></g></g><g filter="url(#i3cggYcl7e)" style="-webkit-user-select: none; display: none;"><g><path style="display: none;"></path></g></g><g filter="url(#WOqp9HRqBa)" style="-webkit-user-select: none; display: none;"><g><path style="display: none;"></path></g></g><g filter="url(#Nlf8tfMlzO)" style="-webkit-user-select: none; display: none;"><g><path style="display: none;"></path><g></g></g></g><g style="-webkit-user-select: none; display: none;"><g><path style="display: none;"></path></g></g><g style="-webkit-user-select: none; display: none;"><g><path style="display: none;"></path></g></g><g style="-webkit-user-select: none; display: none;"><g><path style="display: none;"></path><g></g></g></g><g filter="url(#GzMO6vkcP9)" style="-webkit-user-select: none; display: none;"><g><path style="display: none;"></path></g></g><g filter="url(#y6cwb0jnFO)" style="-webkit-user-select: none; display: none;"><g><path style="display: none;"></path></g></g><g filter="url(#JBt2yXRwCf)" style="-webkit-user-select: none; display: none;"><g><path style="display: none;"></path><g></g></g></g><g filter="url(#9o4QlCiKy1)" style="-webkit-user-select: none; display: none;"><g><path style="display: none;"></path></g></g><g filter="url(#h8Opiuo9Tq)" style="-webkit-user-select: none; display: none;"><g><path style="display: none;"></path></g></g><g filter="url(#wZdvUtQG4H)" style="-webkit-user-select: none; display: none;"><g><path style="display: none;"></path><g></g></g></g><g filter="url(#rTX4eR1Xqg)" style="-webkit-user-select: none; display: none;"><g><path style="display: none;"></path></g></g><g filter="url(#XnXwtrfvsS)" style="-webkit-user-select: none; display: none;"><g><path style="display: none;"></path></g></g><g filter="url(#HptdQ2xN32)" style="-webkit-user-select: none; display: none;"><g><path style="display: none;"></path><g></g></g></g><g style="-webkit-user-select: none; display: none;"><g><path style="display: none;"></path></g></g><g style="-webkit-user-select: none; display: none;"><g><path style="display: none;"></path></g></g><g style="-webkit-user-select: none; display: none;"><g><path style="display: none;"></path><g></g></g></g></g></svg>