<svg xmlns="http://www.w3.org/2000/svg" width="800" height="800" viewBox="0 0 800 800" preserveAspectRatio="xMidYMid meet" style="width: 100%; height: 100%;"><defs><clipPath id="animationMask_1ndzFSGdL4"><rect width="800" height="800" x="0" y="0"></rect></clipPath></defs><g clip-path="url(#animationMask_1ndzFSGdL4)"><g transform="matrix(7.8000000000000025,0,0,7.8000000000000025,148.44999999999993,148.44999999999993)" opacity="1" style="-webkit-user-select: none;"><g opacity="1" transform="matrix(1,0,0,1,32.25,32.25)"><path fill="rgb(224,153,94)" fill-opacity="1" d=" M32,0 C32,17.673 17.673,32 0,32 C-17.673,32 -32,17.673 -32,0 C-32,-17.673 -17.673,-32 0,-32 C17.673,-32 32,-17.673 32,0z"></path></g></g><g style="-webkit-user-select: none; display: none;"><g><path style="display: none;"></path></g></g><g transform="matrix(-4.488792543476359,6.378929494956895,-6.378929494956895,-4.488792543476359,615.2052298635967,443.18555822675546)" opacity="1" style="-webkit-user-select: none;"><g opacity="1" transform="matrix(1,0,0,1,11.35,25.75)"><path fill="rgb(255,255,255)" fill-opacity="1" d=" M-32,-32 C-32,-32 32,-32 32,-32 C32,-32 32,32 32,32 C32,32 -32,32 -32,32 C-32,32 -32,-32 -32,-32z M-32,32 C-32,32 32,32 32,32 C32,32 32,-32 32,-32 C32,-32 -32,-32 -32,-32 C-32,-32 -32,32 -32,32z M0,25.5 C-6.328,25.5 -11.1,14.537 -11.1,0 C-11.1,-14.537 -6.328,-25.5 0,-25.5 C6.328,-25.5 11.1,-14.537 11.1,0 C11.1,14.537 6.328,25.5 0,25.5z M0,-22.5 C-3.831,-22.5 -8.1,-13.26 -8.1,0 C-8.1,13.26 -3.831,22.5 0,22.5 C3.831,22.5 8.1,13.26 8.1,0 C8.1,-13.26 3.831,-22.5 0,-22.5z"></path><g opacity="1" transform="matrix(1,0,0,1,0,0)"></g></g></g><g transform="matrix(-4.488792543476359,6.378929494956895,-6.378929494956895,-4.488792543476359,618.7378021744231,310.7483685039711)" opacity="1" style="-webkit-user-select: none;"><g opacity="1" transform="matrix(1,0,0,1,25.497,16.349)"><path fill="rgb(255,255,255)" fill-opacity="1" d=" M-32.001,-32 C-32.001,-32 31.999,-32 31.999,-32 C31.999,-32 31.999,32 31.999,32 C31.999,32 -32.001,32 -32.001,32 C-32.001,32 -32.001,-32 -32.001,-32z M-32.001,32 C-32.001,32 31.999,32 31.999,32 C31.999,32 31.999,-32 31.999,-32 C31.999,-32 -32.001,-32 -32.001,-32 C-32.001,-32 -32.001,32 -32.001,32z M-14.367,16.1 C-19.148,16.1 -21.202,14.279 -22.085,12.751 C-25.248,7.27 -18.14,-2.3449999999999998 -5.551,-9.613 C1.484,-13.675 8.93,-16.1 14.367,-16.1 C19.146,-16.1 21.200999999999997,-14.278 22.083,-12.749 C25.247,-7.269 18.138,2.3449999999999998 5.549,9.613 C-1.4879999999999995,13.675 -8.932000000000002,16.1 -14.367,16.1z M14.367,-13.1 C9.434000000000001,-13.1 2.5489999999999995,-10.825 -4.051,-7.014 C-15.534,-0.38400000000000034 -21.403,7.9319999999999995 -19.488,11.251 C-18.799,12.443999999999999 -16.981,13.1 -14.367,13.1 C-9.435,13.1 -2.5509999999999993,10.825 4.049,7.014 C15.533000000000001,0.38400000000000034 21.400000000000002,-7.931000000000001 19.484,-11.249 C18.796000000000003,-12.443000000000001 16.978,-13.1 14.367,-13.1z"></path><g opacity="1" transform="matrix(1,0,0,1,0,0)"></g></g></g><g transform="matrix(-4.488792543476359,6.378929494956895,-6.378929494956895,-4.488792543476359,618.7418305779878,310.74264382365516)" opacity="1" style="-webkit-user-select: none;"><g opacity="1" transform="matrix(1,0,0,1,25.497,16.349)"><path fill="rgb(255,255,255)" fill-opacity="1" d=" M-32,-32 C-32,-32 32,-32 32,-32 C32,-32 32,32 32,32 C32,32 -32,32 -32,32 C-32,32 -32,-32 -32,-32z M-32,32 C-32,32 32,32 32,32 C32,32 32,-32 32,-32 C32,-32 -32,-32 -32,-32 C-32,-32 -32,32 -32,32z M14.367,16.1 C8.932000000000002,16.1 1.4869999999999992,13.675 -5.549,9.613 C-18.139,2.3449999999999998 -25.247,-7.269 -22.083,-12.749 C-21.200999999999997,-14.278 -19.147000000000002,-16.1 -14.367,-16.1 C-8.931000000000001,-16.1 -1.4849999999999994,-13.675 5.551,-9.613 C18.14,-2.3449999999999998 25.248,7.27 22.084,12.751 C21.201999999999998,14.279 19.147000000000002,16.1 14.367,16.1z M-14.367,-13.1 C-16.979,-13.1 -18.797,-12.443000000000001 -19.486,-11.249 C-21.402,-7.931000000000001 -15.533000000000001,0.38400000000000034 -4.049,7.014 C2.5509999999999993,10.825 9.435,13.1 14.367,13.1 C16.98,13.1 18.797,12.443999999999999 19.486,11.251 C21.401,7.9319999999999995 15.534,-0.38400000000000034 4.051,-7.014 C-2.5489999999999995,-10.825 -9.435,-13.1 -14.367,-13.1z"></path><g opacity="1" transform="matrix(1,0,0,1,0,0)"></g></g></g><g transform="matrix(-4.488792543250548,6.378929494635999,-6.378929494635999,-4.488792543250548,435.3200966231313,393.8570549079973)" opacity="1" style="-webkit-user-select: none;"><g opacity="1" transform="matrix(1,0,0,1,3.25,3.25)"><path fill="rgb(255,255,255)" fill-opacity="1" d=" M-32,-32 C-32,-32 32,-32 32,-32 C32,-32 32,32 32,32 C32,32 -32,32 -32,32 C-32,32 -32,-32 -32,-32z M-32,32 C-32,32 32,32 32,32 C32,32 32,-32 32,-32 C32,-32 -32,-32 -32,-32 C-32,-32 -32,32 -32,32z M3,0 C3,1.657 1.657,3 0,3 C-1.657,3 -3,1.657 -3,0 C-3,-1.657 -1.657,-3 0,-3 C1.657,-3 3,-1.657 3,0z"></path><g opacity="1" transform="matrix(1,0,0,1,0,0)"></g></g></g><g transform="matrix(-4.4887925434245,6.3789294948832,-6.3789294948832,-4.4887925434245,506.6102506378013,281.07521576858596)" opacity="1" style="-webkit-user-select: none;"><g opacity="1" transform="matrix(1,0,0,1,3.25,3.25)"><path fill="rgb(255,255,255)" fill-opacity="1" d=" M-32,-32 C-32,-32 32,-32 32,-32 C32,-32 32,32 32,32 C32,32 -32,32 -32,32 C-32,32 -32,-32 -32,-32z M-32,32 C-32,32 32,32 32,32 C32,32 32,-32 32,-32 C32,-32 -32,-32 -32,-32 C-32,-32 -32,32 -32,32z M3,0 C3,1.657 1.657,3 0,3 C-1.657,3 -3,1.657 -3,0 C-3,-1.657 -1.657,-3 0,-3 C1.657,-3 3,-1.657 3,0z"></path><g opacity="1" transform="matrix(1,0,0,1,0,0)"></g></g></g><g transform="matrix(-4.488792543560248,6.3789294950761075,-6.3789294950761075,-4.488792543560248,324.70701040091376,269.8760249047156)" opacity="1" style="-webkit-user-select: none;"><g opacity="1" transform="matrix(1,0,0,1,3.25,3.25)"><path fill="rgb(255,255,255)" fill-opacity="1" d=" M-32,-32 C-32,-32 32,-32 32,-32 C32,-32 32,32 32,32 C32,32 -32,32 -32,32 C-32,32 -32,-32 -32,-32z M-32,32 C-32,32 32,32 32,32 C32,32 32,-32 32,-32 C32,-32 -32,-32 -32,-32 C-32,-32 -32,32 -32,32z M3,0 C3,1.657 1.657,3 0,3 C-1.657,3 -3,1.657 -3,0 C-3,-1.657 -1.657,-3 0,-3 C1.657,-3 3,-1.657 3,0z"></path><g opacity="1" transform="matrix(1,0,0,1,0,0)"></g></g></g><g transform="matrix(-4.488792543453669,6.378929494924651,-6.378929494924651,-4.488792543453669,276.77607946959733,481.4763504446422)" opacity="1" style="-webkit-user-select: none;"><g opacity="1" transform="matrix(1,0,0,1,3.25,3.25)"><path fill="rgb(255,255,255)" fill-opacity="1" d=" M-32,-32 C-32,-32 32,-32 32,-32 C32,-32 32,32 32,32 C32,32 -32,32 -32,32 C-32,32 -32,-32 -32,-32z M-32,32 C-32,32 32,32 32,32 C32,32 32,-32 32,-32 C32,-32 -32,-32 -32,-32 C-32,-32 -32,32 -32,32z M3,0 C3,1.657 1.657,3 0,3 C-1.657,3 -3,1.657 -3,0 C-3,-1.657 -1.657,-3 0,-3 C1.657,-3 3,-1.657 3,0z"></path><g opacity="1" transform="matrix(1,0,0,1,0,0)"></g></g></g><g></g></g></svg>