<svg xmlns="http://www.w3.org/2000/svg" width="800" height="800" viewBox="0 0 800 800" preserveAspectRatio="xMidYMid meet" style="width: 100%; height: 100%;"><defs><clipPath id="animationMask_chXDp9fAN8"><rect width="800" height="800" x="0" y="0"></rect></clipPath></defs><g clip-path="url(#animationMask_chXDp9fAN8)"><g transform="matrix(7.800884593303858,0,0,7.800884593303858,148.42147186595056,148.42147186595056)" opacity="1" style="-webkit-user-select: none;"><g opacity="1" transform="matrix(1,0,0,1,32.25,32.25)"><path fill="rgb(117,193,175)" fill-opacity="1" d=" M32,0 C32,17.673 17.673,32 0,32 C-17.673,32 -32,17.673 -32,0 C-32,-17.673 -17.673,-32 0,-32 C17.673,-32 32,-17.673 32,0z"></path></g></g><g style="-webkit-user-select: none; display: none;"><g><path style="display: none;"></path></g></g><g transform="matrix(7.8,0,0,7.8,273.25,273.25)" opacity="1" style="-webkit-user-select: none;"><g opacity="1" transform="matrix(1,0,0,1,2.25,18.25)"><path fill="rgb(79,94,114)" fill-opacity="1" d=" M0,18 C-1.105,18 -2,17.105 -2,16 C-2,16 -2,-16 -2,-16 C-2,-17.105 -1.105,-18 0,-18 C1.105,-18 2,-17.105 2,-16 C2,-16 2,16 2,16 C2,17.105 1.105,18 0,18z"></path></g></g><g transform="matrix(7.8,0,0,7.8,382.45,273.25)" opacity="1" style="-webkit-user-select: none;"><g opacity="1" transform="matrix(1,0,0,1,2.25,18.25)"><path fill="rgb(79,94,114)" fill-opacity="1" d=" M0,18 C-1.105,18 -2,17.105 -2,16 C-2,16 -2,-16 -2,-16 C-2,-17.105 -1.105,-18 0,-18 C1.105,-18 2,-17.105 2,-16 C2,-16 2,16 2,16 C2,17.105 1.105,18 0,18z"></path></g></g><g transform="matrix(7.8,0,0,7.8,491.65,273.25)" opacity="1" style="-webkit-user-select: none;"><g opacity="1" transform="matrix(1,0,0,1,2.25,18.25)"><path fill="rgb(79,94,114)" fill-opacity="1" d=" M0,18 C-1.105,18 -2,17.105 -2,16 C-2,16 -2,-16 -2,-16 C-2,-17.105 -1.105,-18 0,-18 C1.105,-18 2,-17.105 2,-16 C2,-16 2,16 2,16 C2,17.105 1.105,18 0,18z"></path></g></g><g transform="matrix(7.870722263765206,0,0,7.870722263765206,257.3494303789979,292.07309571570323)" opacity="1" style="-webkit-user-select: none;"><g opacity="1" transform="matrix(1,0,0,1,4.25,4.25)"><path fill="rgb(255,255,255)" fill-opacity="1" d=" M4,0 C4,2.209 2.209,4 0,4 C-2.209,4 -4,2.209 -4,0 C-4,-2.209 -2.209,-4 0,-4 C2.209,-4 4,-2.209 4,0z"></path></g></g><g transform="matrix(7.780871190865654,0,0,7.780871190865654,366.931297438821,468.90184604103365)" opacity="1" style="-webkit-user-select: none;"><g opacity="1" transform="matrix(1,0,0,1,4.25,4.25)"><path fill="rgb(255,255,255)" fill-opacity="1" d=" M4,0 C4,2.209 2.209,4 0,4 C-2.209,4 -4,2.209 -4,0 C-4,-2.209 -2.209,-4 0,-4 C2.209,-4 4,-2.209 4,0z"></path></g></g><g transform="matrix(7.609628594099733,0,0,7.609628594099733,475.8010784750761,298.5174026640812)" opacity="1" style="-webkit-user-select: none;"><g opacity="1" transform="matrix(1,0,0,1,4.25,4.25)"><path fill="rgb(255,255,255)" fill-opacity="1" d=" M4,0 C4,2.209 2.209,4 0,4 C-2.209,4 -4,2.209 -4,0 C-4,-2.209 -2.209,-4 0,-4 C2.209,-4 4,-2.209 4,0z"></path></g></g></g></svg>