<svg xmlns="http://www.w3.org/2000/svg" width="800" height="800" viewBox="0 0 800 800" preserveAspectRatio="xMidYMid meet" style="width: 100%; height: 100%;"><defs><clipPath id="animationMask_NHcxatfXft"><rect width="800" height="800" x="0" y="0"></rect></clipPath></defs><g clip-path="url(#animationMask_NHcxatfXft)"><g transform="matrix(7.799999969973326,0,0,7.799999969973326,148.45000096836023,148.45000096836023)" opacity="1" style="-webkit-user-select: none;"><g opacity="1" transform="matrix(1,0,0,1,32.25,32.25)"><path fill="rgb(79,94,114)" fill-opacity="1" d=" M-32,-32 C-32,-32 32,-32 32,-32 C32,-32 32,32 32,32 C32,32 -32,32 -32,32 C-32,32 -32,-32 -32,-32z M-32,32 C-32,32 32,32 32,32 C32,32 32,-32 32,-32 C32,-32 -32,-32 -32,-32 C-32,-32 -32,32 -32,32z M32,0 C32,17.673 17.673,32 0,32 C-17.673,32 -32,17.673 -32,0 C-32,-17.673 -17.673,-32 0,-32 C17.673,-32 32,-17.673 32,0z"></path><g opacity="1" transform="matrix(1,0,0,1,0,0)"></g></g></g><g style="-webkit-user-select: none; display: none;"><g><path style="display: none;"></path></g></g><g style="-webkit-user-select: none; display: none;"><g><path style="display: none;"></path></g></g><g transform="matrix(7.8,0,0,7.8,244.2906,210.85)" opacity="1" style="-webkit-user-select: none;"><g opacity="1" transform="matrix(1,0,0,1,19.963,24.25)"><path fill="rgb(255,255,255)" fill-opacity="1" d=" M11.905,13.543 C8.084,11.883 6.687,9.301 6.261,7.074 C9.013,4.859999999999999 11.206,1.3179999999999996 12.41,-2.498 C13.648,-4.078 14.371,-5.724 14.371,-7.119 C14.371,-8.074 14.023,-8.764 13.416,-9.277 C13.213000000000001,-17.381999999999998 7.474,-23.889999999999997 0.378,-23.99 C0.322,-23.991 0.267,-24 0.213,-24 C0.19,-24 0.16999999999999998,-23.996 0.147,-23.996 C-6.904999999999999,-23.956999999999997 -12.635,-17.586 -12.977,-9.588 C-13.862,-9.059 -14.371,-8.283 -14.371,-7.119 C-14.371,-5.478 -13.379,-3.489 -11.708,-1.671 C-10.52,1.656 -8.591,4.7090000000000005 -6.207,6.767 C-6.561999999999999,9.059000000000001 -7.907,11.806 -11.906,13.543 C-14.063,14.481 -18.011000000000003,15.324 -19.713,16.192 C-15.350000000000001,20.961 -7.0889999999999995,23.962 -0.124,23.997 C-0.124,23.997 -0.026,23.999 -0.026,23.999 C-0.016,23.999 -0.009,24 0,24 C7.013,24 15.325000000000001,20.990000000000002 19.713,16.192 C18.009,15.324 14.062999999999999,14.481 11.905,13.543z"></path></g></g></g></svg>