<svg xmlns="http://www.w3.org/2000/svg" width="800" height="800" viewBox="0 0 800 800" preserveAspectRatio="xMidYMid meet" style="width: 100%; height: 100%;"><defs><clipPath id="animationMask_S9VgCyw73I"><rect width="800" height="800" x="0" y="0"></rect></clipPath></defs><g clip-path="url(#animationMask_S9VgCyw73I)"><g transform="matrix(7.799967071752946,0,0,7.799967071752946,148.4510619359675,148.4510619359675)" opacity="1" style="-webkit-user-select: none;"><g opacity="1" transform="matrix(1,0,0,1,32.25,32.25)"><path fill="rgb(79,94,114)" fill-opacity="1" d=" M32,0 C32,17.673 17.673,32 0,32 C-17.673,32 -32,17.673 -32,0 C-32,-17.673 -17.673,-32 0,-32 C17.673,-32 32,-17.673 32,0z"></path></g></g><g style="-webkit-user-select: none; display: none;"><g><path style="display: none;"></path></g></g><g transform="matrix(7.8,0,0,7.8,320.05,242.05000000000007)" opacity="1" style="-webkit-user-select: none;"><g opacity="1" transform="matrix(1,0,0,1,10.25,14.25)"><path fill="rgb(224,153,94)" fill-opacity="1" d=" M6,10 C6,10 -6,10 -6,10 C-6,10 -6,-10 -6,-10 C-6,-10 6,-10 6,-10 C6,-10 6,10 6,10z M6,-14 C6,-14 -6,-14 -6,-14 C-8.209,-14 -10,-12.209 -10,-10 C-10,-10 -10,10 -10,10 C-10,12.209 -8.209,14 -6,14 C-6,14 6,14 6,14 C8.209,14 10,12.209 10,10 C10,10 10,-10 10,-10 C10,-12.209 8.209,-14 6,-14z"></path></g></g><g transform="matrix(7.8,0,0,7.7990321940595315,242.0492,366.86872477350653)" opacity="1" style="-webkit-user-select: none;"><g opacity="1" transform="matrix(1,0,0,1,20.25,9.75)"><path fill="rgb(224,153,94)" fill-opacity="1" d=" M-20,-9.5 C-20,-9.5 -20,5.5 -20,5.5 C-20,7.709 -18.209,9.5 -16,9.5 C-16,9.5 16,9.5 16,9.5 C18.209,9.5 20,7.709 20,5.5 C20,5.5 20,-9.5 20,-9.5 C20,-9.5 -20,-9.5 -20,-9.5z"></path></g></g><g style="-webkit-user-select: none; display: none;"><g><path style="display: none;"></path></g></g><g transform="matrix(7.8,0,0,7.8,335.65,327.8499999999999)" opacity="1" style="-webkit-user-select: none;"><g opacity="1" transform="matrix(1,0,0,1,8.25,5.75)"><path fill="rgb(244,206,135)" fill-opacity="1" d=" M4,1.5 C4,1.5 -4,1.5 -4,1.5 C-4,1.5 -4,-1.5 -4,-1.5 C-4,-1.5 4,-1.5 4,-1.5 C4,-1.5 4,1.5 4,1.5z M4,-5.5 C4,-5.5 -4,-5.5 -4,-5.5 C-6.209,-5.5 -8,-3.709 -8,-1.5 C-8,-1.5 -8,1.5 -8,1.5 C-8,3.709 -6.209,5.5 -4,5.5 C-4,5.5 4,5.5 4,5.5 C6.209,5.5 8,3.709 8,1.5 C8,1.5 8,-1.5 8,-1.5 C8,-3.709 6.209,-5.5 4,-5.5z"></path></g></g><g transform="matrix(7.8,0,0,7.8034075703484564,242.05,296.64770380899836)" opacity="1" style="-webkit-user-select: none;"><g opacity="1" transform="matrix(1,0,0,1,20.25,4.75)"><path fill="rgb(224,153,94)" fill-opacity="1" d=" M20,-0.5 C20,-2.709 18.209,-4.5 16,-4.5 C16,-4.5 -16,-4.5 -16,-4.5 C-18.209,-4.5 -20,-2.709 -20,-0.5 C-20,-0.5 -20,4.5 -20,4.5 C-20,4.5 20,4.5 20,4.5 C20,4.5 20,-0.5 20,-0.5z"></path></g></g><g style="-webkit-user-select: none; display: none;"><g><path style="display: none;"></path></g></g></g></svg>