<svg xmlns="http://www.w3.org/2000/svg" width="800" height="800" viewBox="0 0 800 800" preserveAspectRatio="xMidYMid meet" style="width: 100%; height: 100%;"><defs><clipPath id="animationMask_UUgwc5U7oA"><rect width="800" height="800" x="0" y="0"></rect></clipPath></defs><g clip-path="url(#animationMask_UUgwc5U7oA)"><g transform="matrix(7.8012334409932205,0,0,7.8012334409932205,148.41022152796864,148.41022152796864)" opacity="1" style="-webkit-user-select: none;"><g opacity="1" transform="matrix(1,0,0,1,32.25,32.25)"><path fill="rgb(79,94,114)" fill-opacity="1" d=" M32,0 C32,17.673 17.673,32 0,32 C-17.673,32 -32,17.673 -32,0 C-32,-17.673 -17.673,-32 0,-32 C17.673,-32 32,-17.673 32,0z"></path></g></g><g style="-webkit-user-select: none; display: none;"><g><path style="display: none;"></path></g></g><g transform="matrix(7.8,0,0,7.8,226.44639999999998,351.2492)" opacity="1" style="-webkit-user-select: none;"><g opacity="1" transform="matrix(1,0,0,1,6.25,10.75)"><path fill="rgb(224,224,209)" fill-opacity="1" d=" M1.9982586200422523,-10.649976348861012 C1.9982586200422523,-10.649976348861012 -2.0017413799577475,-10.649976348861012 -2.0017413799577475,-10.649976348861012 C-4.2107413799577476,-10.649976348861012 -6.001741379957748,-8.858976348861011 -6.001741379957748,-6.649976348861012 C-6.001741379957748,-6.649976348861012 -6,6.5 -6,6.5 C-6,8.709 -4.209,10.5 -2,10.5 C-2,10.5 6,10.5 6,10.5 C6,10.5 5.998258620042252,-6.649976348861012 5.998258620042252,-6.649976348861012 C5.998258620042252,-8.858976348861011 4.207258620042252,-10.649976348861012 1.9982586200422523,-10.649976348861012z"></path></g></g><g transform="matrix(7.8,0,0,7.8,351.2492,234.24920000000003)" opacity="1" style="-webkit-user-select: none;"><g opacity="1" transform="matrix(1,0,0,1,6.25,18.25)"><path fill="rgb(117,193,175)" fill-opacity="1" d=" M1.999933675851811,-17.88901177412265 C1.999933675851811,-17.88901177412265 -2.000066324148189,-17.88901177412265 -2.000066324148189,-17.88901177412265 C-4.209066324148188,-17.88901177412265 -6.000066324148189,-16.098011774122647 -6.000066324148189,-13.889011774122647 C-6.000066324148189,-13.889011774122647 -6,18 -6,18 C-6,18 6,18 6,18 C6,18 5.999933675851811,-13.889011774122647 5.999933675851811,-13.889011774122647 C5.999933675851811,-16.098011774122647 4.208933675851811,-17.88901177412265 1.999933675851811,-17.88901177412265z"></path></g></g><g transform="matrix(7.8,0,0,7.8,476.0536,390.2492)" opacity="1" style="-webkit-user-select: none;"><g opacity="1" transform="matrix(1,0,0,1,6.25,8.25)"><path fill="rgb(255,255,255)" fill-opacity="1" d=" M1.9946449805026134,-5.7957048689968325 C1.9946449805026134,-5.7957048689968325 -2.0053550194973866,-5.7957048689968325 -2.0053550194973866,-5.7957048689968325 C-4.214355019497386,-5.7957048689968325 -6.005355019497387,-4.004704868996832 -6.005355019497387,-1.795704868996832 C-6.005355019497387,-1.795704868996832 -6,8 -6,8 C-6,8 2,8 2,8 C4.209,8 6,6.209 6,4 C6,4 5.994644980502613,-1.795704868996832 5.994644980502613,-1.795704868996832 C5.994644980502613,-4.004704868996832 4.203644980502613,-5.7957048689968325 1.9946449805026134,-5.7957048689968325z"></path></g></g></g></svg>