<svg xmlns="http://www.w3.org/2000/svg" width="800" height="800" viewBox="0 0 800 800" preserveAspectRatio="xMidYMid meet" style="width: 100%; height: 100%;"><defs><clipPath id="animationMask_WXVK43CNLW"><rect width="800" height="800" x="0" y="0"></rect></clipPath></defs><g clip-path="url(#animationMask_WXVK43CNLW)"><g transform="matrix(7.8000002629004,0,0,7.8000002629004,147.1469915214621,156.2499915214621)" opacity="1" style="-webkit-user-select: none;"><g opacity="1" transform="matrix(1,0,0,1,32.334,31.75)"><path fill="rgb(224,153,94)" fill-opacity="1" d=" M31.917,0.5 C31.917,18.173 17.59,32.5 -0.083,32.5 C-17.755999999999997,32.5 -32.083,18.173 -32.083,0.5 C-32.083,-17.173 -17.755999999999997,-31.5 -0.083,-31.5 C17.59,-31.5 31.917,-17.173 31.917,0.5z"></path></g></g><g transform="matrix(7.8,0,0,7.8,432.80639999999994,265.3406)" opacity="1" style="-webkit-user-select: none;"><g opacity="1" transform="matrix(1,0,0,1,6.562,5.788)"><path fill="rgb(224,224,209)" fill-opacity="1" d=" M-5.206,5.538 C-5.453,5.538 -5.7,5.448 -5.893,5.266 C-6.294,4.886 -6.312,4.253 -5.932,3.852 C-5.654,3.558 0.9189999999999996,-3.358 4.717,-5.29 C5.210999999999999,-5.538 5.811,-5.345000000000001 6.062,-4.852 C6.312,-4.359 6.114,-3.758 5.622,-3.507 C2.131,-1.7320000000000002 -4.414000000000001,5.157 -4.48,5.227 C-4.6770000000000005,5.4350000000000005 -4.941000000000001,5.538 -5.206,5.538z"></path></g></g><g transform="matrix(7.8,0,0,7.8,378.7054,294.5878)" opacity="1" style="-webkit-user-select: none;"><g opacity="1" transform="matrix(1,0,0,1,7.616,7.714)"><path fill="rgb(79,94,114)" fill-opacity="1" d=" M1.973,5.859 C0.857,7.084 -0.7180000000000001,7.464 -1.546,6.711 C-1.546,6.711 -6.54,2.158 -6.54,2.158 C-7.367,1.403 -7.132,-0.20100000000000007 -6.016,-1.425 C-6.016,-1.425 -1.973,-5.859 -1.973,-5.859 C-0.857,-7.083 0.7190000000000001,-7.464 1.546,-6.71 C1.546,-6.71 6.538,-2.158 6.538,-2.158 C7.367,-1.403 7.133,0.20100000000000007 6.016,1.425 C6.016,1.425 1.973,5.859 1.973,5.859z"></path></g></g><g style="-webkit-user-select: none; display: none;"><g><path style="display: none;"></path></g></g><g transform="matrix(5.130816617242054,0,0,9.939792176078251,521.1469705531919,225.7911773693145)" opacity="1" style="-webkit-user-select: none;"><g opacity="1" transform="matrix(1,0,0,1,4.25,4.25)"><path fill="rgb(198,91,91)" fill-opacity="1" d=" M4,0 C4,2.209 2.209,4 0,4 C-2.209,4 -4,2.209 -4,0 C-4,-2.209 -2.209,-4 0,-4 C2.209,-4 4,-2.209 4,0z"></path></g></g><g style="-webkit-user-select: none; display: none;"><g><path style="display: none;"></path></g></g><g transform="matrix(6.36371584784598,0,0,11.206213612589167,528.6345805188172,242.82131348932145)" opacity="1" style="-webkit-user-select: none;"><g opacity="1" transform="matrix(1,0,0,1,2.25,2.25)"><path fill="rgb(244,206,135)" fill-opacity="1" d=" M2,0 C2,1.105 1.105,2 0,2 C-1.105,2 -2,1.105 -2,0 C-2,-1.105 -1.105,-2 0,-2 C1.105,-2 2,-1.105 2,0z"></path></g></g><g transform="matrix(7.800002173787028,0,0,7.800002173787028,228.1833608131412,290.5843608131412)" opacity="1" style="-webkit-user-select: none;"><g opacity="1" transform="matrix(1,0,0,1,18.027,18.027)"><path fill="rgb(79,94,114)" fill-opacity="1" d=" M11.824,10.78 C5.872,17.31 -4.249,17.777 -10.779,11.824 C-17.308,5.8709999999999996 -17.777,-4.249 -11.822,-10.779 C-5.868999999999999,-17.309 4.2509999999999994,-17.777 10.78,-11.823 C17.31,-5.87 17.777,4.2509999999999994 11.824,10.78z"></path></g></g><g style="-webkit-user-select: none; display: none;"><g><path stroke-linecap="butt" stroke-linejoin="miter" fill-opacity="0" stroke-miterlimit="4" style="display: none;"></path><path style="display: none;"></path></g></g><g></g></g></svg>