<svg xmlns="http://www.w3.org/2000/svg" width="800" height="800" viewBox="0 0 800 800" preserveAspectRatio="xMidYMid meet" style="width: 100%; height: 100%;"><defs><clipPath id="animationMask_4SXEuziMF1"><rect width="800" height="800" x="0" y="0"></rect></clipPath></defs><g clip-path="url(#animationMask_4SXEuziMF1)"><g transform="matrix(7.800002653672009,0,0,7.800002653672009,147.14691441907772,148.44991441907771)" opacity="1" style="-webkit-user-select: none;"><g opacity="1" transform="matrix(1,0,0,1,32.334,32.25)"><path fill="rgb(119,178,211)" fill-opacity="1" d=" M31.917,0 C31.917,17.673 17.59,32 -0.083,32 C-17.755999999999997,32 -32.083,17.673 -32.083,0 C-32.083,-17.673 -17.755999999999997,-32 -0.083,-32 C17.59,-32 31.917,-17.673 31.917,0z"></path></g></g><g style="-webkit-user-select: none; display: none;"><g><path style="display: none;"></path></g></g><g transform="matrix(7.7999815263209,0,0,7.8,242.0503740920018,491.65)" opacity="1" style="-webkit-user-select: none;"><g opacity="1" transform="matrix(1,0,0,1,20.25,2.25)"><path fill="rgb(224,153,94)" fill-opacity="1" d=" M20,0 C20,1.105 19.105,2 18,2 C18,2 -18,2 -18,2 C-19.105,2 -20,1.105 -20,0 C-20,-1.105 -19.105,-2 -18,-2 C-18,-2 18,-2 18,-2 C19.105,-2 20,-1.105 20,0z"></path></g></g><g style="-webkit-user-select: none; display: none;"><g><path style="display: none;"></path></g></g><g transform="matrix(7.8,0,0,7.8,273.25,304.45)" opacity="1" style="-webkit-user-select: none;"><g opacity="1" transform="matrix(1,0,0,1,5.25,12.25)"><path fill="rgb(198,91,91)" fill-opacity="1" d=" M2,-12 C2,-12 -2,-12 -2,-12 C-3.657,-12 -5,-10.657 -5,-9 C-5,-9 -5,8 -5,8 C-5,8 -5,9 -5,9 C-5,9 -5,12 -5,12 C-5,12 -2,12 -2,12 C-2,12 2,12 2,12 C2,12 5,12 5,12 C5,12 5,9 5,9 C5,9 5,8 5,8 C5,8 5,-9 5,-9 C5,-10.657 3.657,-12 2,-12z"></path></g></g><g transform="matrix(7.8,0,0,7.8,273.25,437.05)" opacity="1" style="-webkit-user-select: none;"><g opacity="1" transform="matrix(1,0,0,1,5.25,1.75)"><path fill="rgb(224,153,94)" fill-opacity="1" d=" M5,1.5 C5,1.5 -5,1.5 -5,1.5 C-5,1.5 -5,-1.5 -5,-1.5 C-5,-1.5 5,-1.5 5,-1.5 C5,-1.5 5,1.5 5,1.5z"></path></g></g><g transform="matrix(7.8,0,0,7.8,273.25,335.65)" opacity="1" style="-webkit-user-select: none;"><g opacity="1" transform="matrix(1,0,0,1,5.25,1.75)"><path fill="rgb(224,153,94)" fill-opacity="1" d=" M5,1.5 C5,1.5 -5,1.5 -5,1.5 C-5,1.5 -5,-1.5 -5,-1.5 C-5,-1.5 5,-1.5 5,-1.5 C5,-1.5 5,1.5 5,1.5z"></path></g></g><g transform="matrix(7.8,0,0,7.8,337.6,307.8336)" opacity="0.2" style="-webkit-user-select: none;"><g opacity="1" transform="matrix(1,0,0,1,1,11.908)"><path fill="rgb(35,30,33)" fill-opacity="1" d=" M-1,11.908 C-1,11.908 1,11.908 1,11.908 C1,11.908 1,-11.908 1,-11.908 C1,-11.908 -1,-11.908 -1,-11.908 C-1,-11.908 -1,11.908 -1,11.908z M-1,11.908 C-1,11.908 1,11.908 1,11.908 C1,11.908 1,-11.908 1,-11.908 C1,-11.908 -1,-11.908 -1,-11.908 C-1,-11.908 -1,11.908 -1,11.908z M-25,-32.092 C-25,-32.092 39,-32.092 39,-32.092 C39,-32.092 39,31.908 39,31.908 C39,31.908 -25,31.908 -25,31.908 C-25,31.908 -25,-32.092 -25,-32.092z M-25,31.908 C-25,31.908 39,31.908 39,31.908 C39,31.908 39,-32.092 39,-32.092 C39,-32.092 -25,-32.092 -25,-32.092 C-25,-32.092 -25,31.908 -25,31.908z M1,7.908 C1,7.908 1,-9.092 1,-9.092 C1,-10.396 0.16300000000000003,-11.495 -1,-11.908 C-1,-11.908 -1,7.908 -1,7.908 C-1,7.908 -1,8.908 -1,8.908 C-1,8.908 -1,11.908 -1,11.908 C-1,11.908 1,11.908 1,11.908 C1,11.908 1,8.908 1,8.908 C1,8.908 1,7.908 1,7.908z"></path><g opacity="1" transform="matrix(1,0,0,1,0,0)"></g></g></g><g></g><g transform="matrix(7.8,0,0,7.8,351.25,241.05)" opacity="1" style="-webkit-user-select: none;"><g opacity="1" transform="matrix(1,0,0,1,6.25,16.25)"><path fill="rgb(79,94,114)" fill-opacity="1" d=" M3,-16 C3,-16 -3,-16 -3,-16 C-4.657,-16 -6,-14.657 -6,-13 C-6,-13 -6,12 -6,12 C-6,12 -6,13 -6,13 C-6,13 -6,16 -6,16 C-6,16 -3,16 -3,16 C-3,16 3,16 3,16 C3,16 6,16 6,16 C6,16 6,13 6,13 C6,13 6,12 6,12 C6,12 6,-13 6,-13 C6,-14.657 4.657,-16 3,-16z"></path></g></g><g transform="matrix(7.8,0,0,7.8,351.25,272.25)" opacity="1" style="-webkit-user-select: none;"><g opacity="1" transform="matrix(1,0,0,1,6.25,1.75)"><path fill="rgb(117,193,175)" fill-opacity="1" d=" M6,1.5 C6,1.5 -6,1.5 -6,1.5 C-6,1.5 -6,-1.5 -6,-1.5 C-6,-1.5 6,-1.5 6,-1.5 C6,-1.5 6,1.5 6,1.5z"></path></g></g><g transform="matrix(7.8,0,0,7.8,351.25,436.05)" opacity="1" style="-webkit-user-select: none;"><g opacity="1" transform="matrix(1,0,0,1,6.25,1.75)"><path fill="rgb(117,193,175)" fill-opacity="1" d=" M6,1.5 C6,1.5 -6,1.5 -6,1.5 C-6,1.5 -6,-1.5 -6,-1.5 C-6,-1.5 6,-1.5 6,-1.5 C6,-1.5 6,1.5 6,1.5z"></path></g></g><g></g><g transform="matrix(7.8,0,0,7.8,444.85,272.25)" opacity="1" style="-webkit-user-select: none; display: block;"><g opacity="1" transform="matrix(1,0,0,1,5.25,14.25)"><path fill="rgb(224,224,209)" fill-opacity="1" d=" M2,-14 C2,-14 -2,-14 -2,-14 C-3.657,-14 -5,-12.657 -5,-11 C-5,-11 -5,10 -5,10 C-5,10 -5,11 -5,11 C-5,11 -5,14 -5,14 C-5,14 -2,14 -2,14 C-2,14 2,14 2,14 C2,14 5,14 5,14 C5,14 5,11 5,11 C5,11 5,10 5,10 C5,10 5,-11 5,-11 C5,-12.657 3.657,-14 2,-14z" style="display: block;"></path></g></g><g transform="matrix(7.8,0,0,7.8,444.85,436.05)" opacity="1" style="-webkit-user-select: none; display: block;"><g opacity="1" transform="matrix(1,0,0,1,5.25,1.75)"><path fill="rgb(255,255,255)" fill-opacity="1" d=" M5,1.5 C5,1.5 -5,1.5 -5,1.5 C-5,1.5 -5,-1.5 -5,-1.5 C-5,-1.5 5,-1.5 5,-1.5 C5,-1.5 5,1.5 5,1.5z" style="display: block;"></path></g></g><g transform="matrix(7.8,0,0,7.8,444.85,303.45)" opacity="1" style="-webkit-user-select: none; display: block;"><g opacity="1" transform="matrix(1,0,0,1,5.25,1.75)"><path fill="rgb(255,255,255)" fill-opacity="1" d=" M5,1.5 C5,1.5 -5,1.5 -5,1.5 C-5,1.5 -5,-1.5 -5,-1.5 C-5,-1.5 5,-1.5 5,-1.5 C5,-1.5 5,1.5 5,1.5z" style="display: block;"></path></g></g><g transform="matrix(7.8,0,0,7.8,446.8,275.6336)" opacity="0.2" style="-webkit-user-select: none; display: block;"><g opacity="1" transform="matrix(1,0,0,1,1,13.908)"><path fill="rgb(35,30,33)" fill-opacity="1" d=" M-1,13.908 C-1,13.908 1,13.908 1,13.908 C1,13.908 1,-13.908 1,-13.908 C1,-13.908 -1,-13.908 -1,-13.908 C-1,-13.908 -1,13.908 -1,13.908z M-1,13.908 C-1,13.908 1,13.908 1,13.908 C1,13.908 1,-13.908 1,-13.908 C1,-13.908 -1,-13.908 -1,-13.908 C-1,-13.908 -1,13.908 -1,13.908z M-39,-30.092 C-39,-30.092 25,-30.092 25,-30.092 C25,-30.092 25,33.908 25,33.908 C25,33.908 -39,33.908 -39,33.908 C-39,33.908 -39,-30.092 -39,-30.092z M-39,33.908 C-39,33.908 25,33.908 25,33.908 C25,33.908 25,-30.092 25,-30.092 C25,-30.092 -39,-30.092 -39,-30.092 C-39,-30.092 -39,33.908 -39,33.908z M1,9.908 C1,9.908 1,-13.908 1,-13.908 C-0.16300000000000003,-13.495 -1,-12.396 -1,-11.092 C-1,-11.092 -1,9.908 -1,9.908 C-1,9.908 -1,10.908 -1,10.908 C-1,10.908 -1,13.908 -1,13.908 C-1,13.908 1,13.908 1,13.908 C1,13.908 1,10.908 1,10.908 C1,10.908 1,9.908 1,9.908z" style="display: block;"></path><g opacity="1" transform="matrix(1,0,0,1,0,0)"></g></g></g><g></g></g></svg>