<svg xmlns="http://www.w3.org/2000/svg" width="800" height="800" viewBox="0 0 800 800" preserveAspectRatio="xMidYMid meet" style="width: 100%; height: 100%;"><defs><clipPath id="animationMask_fKyHoanvyJ"><rect width="800" height="800" x="0" y="0"></rect></clipPath></defs><g clip-path="url(#animationMask_fKyHoanvyJ)"><g transform="matrix(7.799999980675009,0,0,7.799999980675009,148.45000062323095,148.45000062323095)" opacity="1" style="-webkit-user-select: none;"><g opacity="1" transform="matrix(1,0,0,1,32.25,32.25)"><path fill="rgb(119,178,211)" fill-opacity="1" d=" M32,0 C32,17.673 17.673,32 0,32 C-17.673,32 -32,17.673 -32,0 C-32,-17.673 -17.673,-32 0,-32 C17.673,-32 32,-17.673 32,0z"></path></g></g><g style="-webkit-user-select: none; display: none;"><g><path style="display: none;"></path></g></g><g transform="matrix(7.390000000000001,0,0,7.390000000000001,279.9125,250.35438)" opacity="1" style="-webkit-user-select: none;"><g opacity="1" transform="matrix(-1,0,0,1,16.25,20.25)"><path fill="rgb(224,224,209)" fill-opacity="1" d=" M4,-20 C4,-20 -13,-20 -13,-20 C-14.657,-20 -16,-18.657 -16,-17 C-16,-17 -16,17 -16,17 C-16,18.657 -14.657,20 -13,20 C-13,20 13,20 13,20 C14.657,20 16,18.657 16,17 C16,17 16,-8 16,-8 C16,-8 4,-20 4,-20z"></path></g><g opacity="1" transform="matrix(1,0,0,1,16.25,20.25)"><path fill="rgb(224,224,209)" fill-opacity="1" d=" M4,-20 C4,-20 -13,-20 -13,-20 C-14.657,-20 -16,-18.657 -16,-17 C-16,-17 -16,17 -16,17 C-16,18.657 -14.657,20 -13,20 C-13,20 13,20 13,20 C14.657,20 16,18.657 16,17 C16,17 16,-8 16,-8 C16,-8 4,-20 4,-20z"></path></g></g><g transform="matrix(7.8,0,0,7.8,321.9996,319)" opacity="0.2" style="-webkit-user-select: none;"><g opacity="1" transform="matrix(1,0,0,1,10,5)"><path fill="rgb(35,30,33)" fill-opacity="1" d=" M-10,-3 C-10,-3 10,-3 10,-3 C10,-3 10,-5 10,-5 C10,-5 -10,-5 -10,-5 C-10,-5 -10,-3 -10,-3z M-32,-32 C-32,-32 32,-32 32,-32 C32,-32 32,32 32,32 C32,32 -32,32 -32,32 C-32,32 -32,-32 -32,-32z M-32,32 C-32,32 32,32 32,32 C32,32 32,-32 32,-32 C32,-32 -32,-32 -32,-32 C-32,-32 -32,32 -32,32z"></path></g></g><g transform="matrix(7.8,0,0,7.8,321.9996,360.99920000000003)" opacity="0.2" style="-webkit-user-select: none;"><g opacity="1" transform="matrix(1,0,0,1,10,5)"><path fill="rgb(35,30,33)" fill-opacity="1" d=" M-10,-3 C-10,-3 10,-3 10,-3 C10,-3 10,-5 10,-5 C10,-5 -10,-5 -10,-5 C-10,-5 -10,-3 -10,-3z M-32,-32 C-32,-32 32,-32 32,-32 C32,-32 32,32 32,32 C32,32 -32,32 -32,32 C-32,32 -32,-32 -32,-32z M-32,32 C-32,32 32,32 32,32 C32,32 32,-32 32,-32 C32,-32 -32,-32 -32,-32 C-32,-32 -32,32 -32,32z"></path></g></g><g transform="matrix(7.8,0,0,7.8,321.9996,400.0004)" opacity="0.2" style="-webkit-user-select: none;"><g opacity="1" transform="matrix(1,0,0,1,10,0)"><path fill="rgb(35,30,33)" fill-opacity="1" d=" M-10,2 C-10,2 10,2 10,2 C10,2 10,0 10,0 C10,0 -10,0 -10,0 C-10,0 -10,2 -10,2z M-32,-32 C-32,-32 32,-32 32,-32 C32,-32 32,32 32,32 C32,32 -32,32 -32,32 C-32,32 -32,-32 -32,-32z M-32,32 C-32,32 32,32 32,32 C32,32 32,-32 32,-32 C32,-32 -32,-32 -32,-32 C-32,-32 -32,32 -32,32z"></path></g></g><g transform="matrix(7.8,0,0,7.8,321.9996,438.99920000000003)" opacity="0.2" style="-webkit-user-select: none;"><g opacity="1" transform="matrix(1,0,0,1,10,-5)"><path fill="rgb(35,30,33)" fill-opacity="1" d=" M-10,7 C-10,7 10,7 10,7 C10,7 10,5 10,5 C10,5 -10,5 -10,5 C-10,5 -10,7 -10,7z M-32,-32 C-32,-32 32,-32 32,-32 C32,-32 32,32 32,32 C32,32 -32,32 -32,32 C-32,32 -32,-32 -32,-32z M-32,32 C-32,32 32,32 32,32 C32,32 32,-32 32,-32 C32,-32 -32,-32 -32,-32 C-32,-32 -32,32 -32,32z"></path></g></g><g transform="matrix(7.8,0,0,7.8,321.9996,477.99920000000003)" opacity="0.2" style="-webkit-user-select: none;"><g opacity="1" transform="matrix(1,0,0,1,10,-10)"><path fill="rgb(35,30,33)" fill-opacity="1" d=" M-10,12 C-10,12 10,12 10,12 C10,12 10,10 10,10 C10,10 -10,10 -10,10 C-10,10 -10,12 -10,12z M-32,-32 C-32,-32 32,-32 32,-32 C32,-32 32,32 32,32 C32,32 -32,32 -32,32 C-32,32 -32,-32 -32,-32z M-32,32 C-32,32 32,32 32,32 C32,32 32,-32 32,-32 C32,-32 -32,-32 -32,-32 C-32,-32 -32,32 -32,32z"></path></g></g><g transform="matrix(7.8,0,0,7.8,273.25,242.05)" opacity="1" style="-webkit-user-select: none;"><g opacity="1" transform="matrix(1,0,0,1,16.25,20.25)"><path fill="rgb(79,94,114)" fill-opacity="1" d=" M16,16 C16,18.209 14.209,20 12,20 C12,20 -12,20 -12,20 C-14.209,20 -16,18.209 -16,16 C-16,16 -16,-16 -16,-16 C-16,-18.209 -14.209,-20 -12,-20 C-12,-20 12,-20 12,-20 C14.209,-20 16,-18.209 16,-16 C16,-16 16,16 16,16z"></path></g></g><g transform="matrix(7.8,0,0,7.8,304.45,242.05)" opacity="1" style="-webkit-user-select: none;"><g opacity="1" transform="matrix(1,0,0,1,1.75,20.25)"><path fill="rgb(224,224,209)" fill-opacity="1" d=" M1.5,20 C1.5,20 -1.5,20 -1.5,20 C-1.5,20 -1.5,-20 -1.5,-20 C-1.5,-20 1.5,-20 1.5,-20 C1.5,-20 1.5,20 1.5,20z"></path></g></g><g transform="matrix(7.8,0,0,7.8,421.44999999999993,242.05)" opacity="1" style="-webkit-user-select: none;"><g opacity="1" transform="matrix(1,0,0,1,4.25,4.5)"><path fill="rgb(198,91,91)" fill-opacity="1" d=" M-4,-4.25 C-4,-4.25 -4,3.596 -4,3.596 C-4,3.8600000000000003 -3.8369999999999997,4.099 -3.589,4.2 C-3.506,4.234 -3.419,4.25 -3.333,4.25 C-3.16,4.25 -2.989,4.183 -2.862,4.058 C-2.862,4.058 0,1.251 0,1.251 C0,1.251 2.862,4.058 2.862,4.058 C2.989,4.183 3.16,4.25 3.333,4.25 C3.419,4.25 3.5060000000000002,4.234 3.588,4.2 C3.837,4.099 4,3.8600000000000003 4,3.596 C4,3.596 4,-4.25 4,-4.25 C4,-4.25 -4,-4.25 -4,-4.25z"></path></g></g><g></g><g transform="matrix(1,0,0,1,0,0)" opacity="1"></g></g></svg>