<svg xmlns="http://www.w3.org/2000/svg" width="800" height="800" viewBox="0 0 800 800" preserveAspectRatio="xMidYMid meet" style="width: 100%; height: 100%;"><defs><clipPath id="animationMask_LHzVPUMpPE"><rect width="800" height="800" x="0" y="0"></rect></clipPath></defs><g clip-path="url(#animationMask_LHzVPUMpPE)"><g transform="matrix(7.800000002415934,0,0,7.800000002415934,148.44999992208614,148.44999992208614)" opacity="1" style="-webkit-user-select: none;"><g opacity="1" transform="matrix(1,0,0,1,32.25,32.25)"><path fill="rgb(119,178,211)" fill-opacity="1" d=" M32,0 C32,17.673 17.673,32 0,32 C-17.673,32 -32,17.673 -32,0 C-32,-17.673 -17.673,-32 0,-32 C17.673,-32 32,-17.673 32,0z"></path></g></g><g style="-webkit-user-select: none; display: none;"><g><path style="display: none;"></path></g></g><g transform="matrix(7.8,0,0,7.8,242.05,316.1474)" opacity="1" style="-webkit-user-select: none;"><g opacity="1" transform="matrix(1,0,0,1,20.25,14.5)"><path fill="rgb(255,255,255)" fill-opacity="1" d=" M-20,-14.25 C-20,-14.25 -20,10.25 -20,10.25 C-20,12.459 -18.209,14.25 -16,14.25 C-16,14.25 16,14.25 16,14.25 C18.209,14.25 20,12.459 20,10.25 C20,10.25 20,-14.25 20,-14.25 C20,-14.25 -20,-14.25 -20,-14.25z"></path></g></g><g transform="matrix(7.8,0,0,7.8,242.05,242.05)" opacity="1" style="-webkit-user-select: none;"><g opacity="1" transform="matrix(1,0,0,1,20.25,5.25)"><path fill="rgb(224,224,209)" fill-opacity="1" d=" M20,-1 C20,-3.209 18.209,-5 16,-5 C16,-5 -16,-5 -16,-5 C-18.209,-5 -20,-3.209 -20,-1 C-20,-1 -20,5 -20,5 C-20,5 20,5 20,5 C20,5 20,-1 20,-1z"></path></g></g><g transform="matrix(7.8,0,0,7.8,273.25,366.8534)" opacity="1" style="-webkit-user-select: none;"><g opacity="1" transform="matrix(1,0,0,1,6.25,9.25)"><path fill="rgb(79,94,114)" fill-opacity="1" d=" M6,9 C6,9 -6,9 -6,9 C-6,9 -6,-9 -6,-9 C-6,-9 6,-9 6,-9 C6,-9 6,9 6,9z"></path></g></g><g transform="matrix(7.8,0,0,7.8,398.0514,366.85)" opacity="1" style="-webkit-user-select: none;"><g opacity="1" transform="matrix(1,0,0,1,8.25,1.25)"><path fill="rgb(224,224,209)" fill-opacity="1" d=" M8,1 C8,1 -8,1 -8,1 C-8,1 -8,-1 -8,-1 C-8,-1 8,-1 8,-1 C8,-1 8,1 8,1z"></path></g></g><g transform="matrix(7.8,0,0,7.8,398.0506,398.05)" opacity="1" style="-webkit-user-select: none;"><g opacity="1" transform="matrix(1,0,0,1,8.25,1.25)"><path fill="rgb(224,224,209)" fill-opacity="1" d=" M8,1 C8,1 -8,1 -8,1 C-8,1 -8,-1 -8,-1 C-8,-1 8,-1 8,-1 C8,-1 8,1 8,1z"></path></g></g><g transform="matrix(7.8,0,0,7.8,398.0514,429.25)" opacity="1" style="-webkit-user-select: none;"><g opacity="1" transform="matrix(1,0,0,1,8.25,1.25)"><path fill="rgb(224,224,209)" fill-opacity="1" d=" M8,1 C8,1 -8,1 -8,1 C-8,1 -8,-1 -8,-1 C-8,-1 8,-1 8,-1 C8,-1 8,1 8,1z"></path></g></g><g transform="matrix(7.8,0,0,7.8,398.0506,460.45)" opacity="1" style="-webkit-user-select: none;"><g opacity="1" transform="matrix(1,0,0,1,8.25,1.25)"><path fill="rgb(224,224,209)" fill-opacity="1" d=" M8,1 C8,1 -8,1 -8,1 C-8,1 -8,-1 -8,-1 C-8,-1 8,-1 8,-1 C8,-1 8,1 8,1z"></path></g></g><g transform="matrix(7.8,0,0,7.8,398.0506,491.65)" opacity="1" style="-webkit-user-select: none;"><g opacity="1" transform="matrix(1,0,0,1,8.25,1.25)"><path fill="rgb(224,224,209)" fill-opacity="1" d=" M8,1 C8,1 -8,1 -8,1 C-8,1 -8,-1 -8,-1 C-8,-1 8,-1 8,-1 C8,-1 8,1 8,1z"></path></g></g><g transform="matrix(7.803213228880875,0,0,7.803213228880875,265.44277023501803,265.44277023501803)" opacity="1" style="-webkit-user-select: none;"><g opacity="1" transform="matrix(1,0,0,1,2.25,2.25)"><path fill="rgb(198,91,91)" fill-opacity="1" d=" M2,0 C2,-1.105 1.105,-2 0,-2 C-1.105,-2 -2,-1.105 -2,0 C-2,1.105 -1.105,2 0,2 C1.105,2 2,1.105 2,0z"></path></g></g><g style="-webkit-user-select: none; display: none;"><g><path style="display: none;"></path></g></g><g transform="matrix(7.797180876111599,0,0,7.797180876111599,312.2563430287489,265.4563430287489)" opacity="1" style="-webkit-user-select: none;"><g opacity="1" transform="matrix(1,0,0,1,2.25,2.25)"><path fill="rgb(224,153,94)" fill-opacity="1" d=" M2,0 C2,-1.105 1.105,-2 0,-2 C-1.105,-2 -2,-1.105 -2,0 C-2,1.105 -1.105,2 0,2 C1.105,2 2,1.105 2,0z"></path></g></g><g style="-webkit-user-select: none; display: none;"><g><path style="display: none;"></path></g></g><g transform="matrix(7.7886565463013,0,0,7.7886565463013,359.0755227708221,265.47552277082207)" opacity="1" style="-webkit-user-select: none;"><g opacity="1" transform="matrix(1,0,0,1,2.25,2.25)"><path fill="rgb(117,193,175)" fill-opacity="1" d=" M2,0 C2,-1.105 1.105,-2 0,-2 C-1.105,-2 -2,-1.105 -2,0 C-2,1.105 -1.105,2 0,2 C1.105,2 2,1.105 2,0z"></path></g></g><g style="-webkit-user-select: none; display: none;"><g><path style="display: none;"></path></g></g><g transform="matrix(1.6997404918996581,-1.1901711054284208,1.1901711054284208,1.6997404918996581,407.4814882411764,404.32943976488815)" opacity="1" style="-webkit-user-select: none;"><g opacity="1" transform="matrix(1,0,0,1,8.033,1.894)"><path fill="rgb(234,221,221)" fill-opacity="1" d=" M-15.839,12.285 C-18.561,12.285 -19.322,10.42 -17.529,8.14 C-17.529,8.14 -3.26,-10.005 -3.26,-10.005 C-1.4669999999999999,-12.285 1.4669999999999999,-12.285 3.26,-10.005 C3.26,-10.005 17.529,8.14 17.529,8.14 C19.322,10.42 18.561,12.285 15.839,12.285 C15.839,12.285 6.03,6.516 6.03,6.516 C6.03,6.516 -5.765,6.516 -5.765,6.516 C-5.765,6.516 -15.839,12.285 -15.839,12.285z"></path></g><g opacity="1" transform="matrix(0.73,0,0,1,8.25,16.25)"><path fill="rgb(234,221,221)" fill-opacity="1" d=" M8,12 C8,14.209 6.209,16 4,16 C4,16 -4,16 -4,16 C-6.209,16 -8,14.209 -8,12 C-8,12 -8,-12 -8,-12 C-8,-14.209 -6.209,-16 -4,-16 C-4,-16 4,-16 4,-16 C6.209,-16 8,-14.209 8,-12 C8,-12 8,12 8,12z"></path></g></g></g></svg>