<svg xmlns="http://www.w3.org/2000/svg" width="800" height="800" viewBox="0 0 800 800" preserveAspectRatio="xMidYMid meet" style="width: 100%; height: 100%;"><defs><clipPath id="animationMask_vs3WjcYOQE"><rect width="800" height="800" x="0" y="0"></rect></clipPath><mask id="ly_B3ZhfAoZkZ" mask-type="luminance"><g transform="matrix(1,0,0,1,150,150)" opacity="1"><g mask="url(#stms_jEsM9WuiEG)"><rect width="500" height="500" fill="#ffffff"></rect></g></g></mask><path d="" fill-opacity="1"></path><clipPath id="DcgUhezpEi"></clipPath><mask id="stms_jEsM9WuiEG" mask-type="alpha"><g fill="none" stroke-linecap="round" stroke-dashoffset="1" stroke="#fff" stroke-width="50.2" opacity="1"><path d=" M179,242 C179,242 301,240.5 301,240.5 C301,240.5 246,279 249,395.5" stroke-dasharray="1 0"></path></g></mask></defs><g clip-path="url(#animationMask_vs3WjcYOQE)"><g transform="matrix(7.799999969853617,0,0,7.799999969853617,148.45000097222086,148.45000097222086)" opacity="1" style="-webkit-user-select: none;"><g opacity="1" transform="matrix(1,0,0,1,32.25,32.25)"><path fill="rgb(119,178,211)" fill-opacity="1" d=" M32,0 C32,17.673 17.673,32 0,32 C-17.673,32 -32,17.673 -32,0 C-32,-17.673 -17.673,-32 0,-32 C17.673,-32 32,-17.673 32,0z"></path></g></g><g style="-webkit-user-select: none; display: none;"><g><path style="display: none;"></path></g></g><g transform="matrix(7.8,0,0,7.799999907868522,242.05,327.84820002128237)" opacity="1" style="-webkit-user-select: none;"><g opacity="1" transform="matrix(1,0,0,1,20.25,14.75)"><path fill="rgb(255,255,255)" fill-opacity="1" d=" M-20,-14.5 C-20,-14.5 -20,10.5 -20,10.5 C-20,12.709 -18.209,14.5 -16,14.5 C-16,14.5 16,14.5 16,14.5 C18.209,14.5 20,12.709 20,10.5 C20,10.5 20,-14.5 20,-14.5 C20,-14.5 -20,-14.5 -20,-14.5z"></path></g></g><g style="-webkit-user-select: none; display: none;"><g><path style="display: none;"></path></g></g><g transform="matrix(7.8,0,0,7.800000264841972,242.05,242.04859701708483)" opacity="1" style="-webkit-user-select: none;"><g opacity="1" transform="matrix(1,0,0,1,20.25,5.75)"><path fill="rgb(198,91,91)" fill-opacity="1" d=" M16,-5.5 C16,-5.5 -16,-5.5 -16,-5.5 C-18.209,-5.5 -20,-3.709 -20,-1.5 C-20,-1.5 -20,5.5 -20,5.5 C-20,5.5 20,5.5 20,5.5 C20,5.5 20,-1.5 20,-1.5 C20,-3.709 18.209,-5.5 16,-5.5z"></path></g></g><g style="-webkit-user-select: none; display: none;"><g><path style="display: none;"></path></g></g><g transform="matrix(7.8,0,0,7.8,288.84999999999997,210.84859999999998)" opacity="1" style="-webkit-user-select: none;"><g opacity="1" transform="matrix(1,0,0,1,2.25,5.75)"><path fill="rgb(224,224,209)" fill-opacity="1" d=" M0,5.5 C-1.105,5.5 -2,4.605 -2,3.5 C-2,3.5 -2,-3.5 -2,-3.5 C-2,-4.605 -1.105,-5.5 0,-5.5 C1.105,-5.5 2,-4.605 2,-3.5 C2,-3.5 2,3.5 2,3.5 C2,4.605 1.105,5.5 0,5.5z"></path></g></g><g transform="matrix(7.8,0,0,7.8,483.84999999999997,210.84699999999998)" opacity="1" style="-webkit-user-select: none;"><g opacity="1" transform="matrix(1,0,0,1,2.25,5.75)"><path fill="rgb(224,224,209)" fill-opacity="1" d=" M0,5.5 C-1.105,5.5 -2,4.605 -2,3.5 C-2,3.5 -2,-3.5 -2,-3.5 C-2,-4.605 -1.105,-5.5 0,-5.5 C1.105,-5.5 2,-4.605 2,-3.5 C2,-3.5 2,3.5 2,3.5 C2,4.605 1.105,5.5 0,5.5z"></path></g></g><g mask="url(#ly_B3ZhfAoZkZ)"><g transform="matrix(7.8,0,0,7.8,343.45,382.45000000000005)" opacity="1" style="-webkit-user-select: none;"><g opacity="1" transform="matrix(1,0,0,1,7.835,9.25)"><path fill="rgb(79,94,114)" fill-opacity="1" d=" M-0.585,9 C-1.689,9 -2.585,8.104 -2.585,7 C-2.585,1.4850000000000003 -0.828,-2.455 0.906,-5 C0.906,-5 -5.585,-5 -5.585,-5 C-6.689,-5 -7.585,-5.896 -7.585,-7 C-7.585,-8.104 -6.689,-9 -5.585,-9 C-5.585,-9 5.415,-9 5.415,-9 C6.286,-9 7.0569999999999995,-8.437 7.321,-7.606 C7.585,-6.776 7.282,-5.871 6.571,-5.368 C6.372,-5.222 1.415,-1.5069999999999997 1.415,7 C1.415,8.104 0.5190000000000001,9 -0.585,9z"></path></g></g></g></g></svg>