<svg xmlns="http://www.w3.org/2000/svg" width="800" height="800" viewBox="0 0 800 800" preserveAspectRatio="xMidYMid meet" style="width: 100%; height: 100%;"><defs><clipPath id="animationMask_998dpxdMAi"><rect width="800" height="800" x="0" y="0"></rect></clipPath><mask id="ly_7NLncVwevK" mask-type="luminance"><g clip-path="url(#cp_eduHrPyL)" transform="matrix(1,0,0,1,264,260.7609015543132)" opacity="1"><g transform="matrix(1,0,0,1,0,0)" opacity="1" style="display: block;"><rect width="300" height="300" fill="#000000"></rect></g><g transform="matrix(1,0,0,1,150,150)" opacity="1" style="-webkit-user-select: none; display: block;"><g opacity="1" transform="matrix(1,0,0,1,-0.016,-0.016)"><path fill="rgb(255,255,255)" fill-opacity="1" d=" M0,-150 C82.785,-150 150,-82.785 150,0 C150,82.785 82.785,150 0,150 C-82.785,150 -150,82.785 -150,0 C-150,-82.785 -82.785,-150 0,-150z" style="display: block;"></path></g></g></g></mask><clipPath id="cp_eduHrPyL"><path d="M0,0 L300,0 L300,300 L0,300z"></path></clipPath><mask id="ly_mNGYS6WUMo" mask-type="luminance"><g clip-path="url(#cp_u21HgjH6)" transform="matrix(1.68,0,0,1.68,162,160.7609015543132)" opacity="1"><g transform="matrix(1,0,0,1,0,0)" opacity="1"><rect width="300" height="300" fill="#000000"></rect></g><g transform="matrix(1,0,0,1,150,150)" opacity="1" style="-webkit-user-select: none;"><g opacity="1" transform="matrix(1,0,0,1,-0.016,-0.016)"><path fill="rgb(255,255,255)" fill-opacity="1" d=" M0,-150 C82.785,-150 150,-82.785 150,0 C150,82.785 82.785,150 0,150 C-82.785,150 -150,82.785 -150,0 C-150,-82.785 -82.785,-150 0,-150z"></path></g></g></g></mask><clipPath id="cp_u21HgjH6"><path d="M0,0 L300,0 L300,300 L0,300z"></path></clipPath></defs><g clip-path="url(#animationMask_998dpxdMAi)"><g transform="matrix(7.800002173787028,0,0,7.800002173787028,148.44992989536834,148.44992989536834)" opacity="1" style="-webkit-user-select: none;"><g opacity="1" transform="matrix(1,0,0,1,32.25,32.25)"><path fill="rgb(224,153,94)" fill-opacity="1" d=" M32,0 C32,17.673 17.673,32 0,32 C-17.673,32 -32,17.673 -32,0 C-32,-17.673 -17.673,-32 0,-32 C17.673,-32 32,-17.673 32,0z"></path></g></g><g style="-webkit-user-select: none; display: none;"><g><path style="display: none;"></path></g></g><g transform="matrix(7.8,0,0,7.8,242.05,266.2109015543132)" opacity="1" style="-webkit-user-select: none;"><g opacity="1" transform="matrix(1,0,0,1,20.25,16.25)"><path fill="rgb(79,94,114)" fill-opacity="1" d=" M17.5,-11 C17.5,-11 12.5,-11 12.5,-11 C12.5,-11 11.055,-10.667 10,-13.333 C9.463,-14.691 8.879999999999999,-16 7.5,-16 C7.5,-16 -2.5,-16 -2.5,-16 C-3.88,-16 -4.48,-14.699 -5,-13.333 C-6.015,-10.667 -7.5,-11 -7.5,-11 C-7.5,-11 -10,-11 -10,-11 C-10,-12.472 -11.120000000000001,-13 -12.5,-13 C-12.5,-13 -15,-13 -15,-13 C-16.38,-13 -17.5,-12.472 -17.5,-11 C-18.88,-11 -20,-9.472 -20,-8 C-20,-8 -20,13.333 -20,13.333 C-20,14.805 -18.88,16 -17.5,16 C-17.5,16 17.5,16 17.5,16 C18.88,16 20,14.805 20,13.333 C20,13.333 20,-8 20,-8 C20,-9.472 18.88,-11 17.5,-11z"></path></g></g><g mask="url(#ly_mNGYS6WUMo)"><g transform="matrix(7.8,0,0,7.8,343.45,336.4109015543132)" opacity="1" style="-webkit-user-select: none;"><g opacity="1" transform="matrix(1,0,0,1,9.25,9.25)"><path fill="rgb(119,178,211)" fill-opacity="1" d=" M9,0 C9,4.971 4.971,9 0,9 C-4.971,9 -9,4.971 -9,0 C-9,-4.971 -4.971,-9 0,-9 C4.971,-9 9,-4.971 9,0z"></path></g></g></g><g mask="url(#ly_7NLncVwevK)"><g transform="matrix(7.8,0,0,7.8,331.75,324.7109015543132)" opacity="1" style="-webkit-user-select: none; display: block;"><g opacity="1" transform="matrix(1,0,0,1,10.75,10.75)"><path fill="rgb(255,255,255)" fill-opacity="1" d=" M0,10.5 C-5.79,10.5 -10.5,5.79 -10.5,0 C-10.5,-5.79 -5.79,-10.5 0,-10.5 C5.79,-10.5 10.5,-5.79 10.5,0 C10.5,5.79 5.79,10.5 0,10.5z M0,-7.5 C-4.136,-7.5 -7.5,-4.136 -7.5,0 C-7.5,4.136 -4.136,7.5 0,7.5 C4.136,7.5 7.5,4.136 7.5,0 C7.5,-4.136 4.136,-7.5 0,-7.5z" style="display: block;"></path></g></g></g><g transform="matrix(1,0,0,1,400,395.7609015543132)" opacity="0.6666666666666667" style="-webkit-user-select: none; display: block;"><g opacity="1" transform="matrix(1,0,0,1,0,0)"><g opacity="1" transform="matrix(6.123031769111886e-17,1,-1,6.123031769111886e-17,32,-211)"><path fill="rgb(255,255,255)" fill-opacity="1" d=" M122,-142.5 C122,-142.5 117,-92.5 117,-92.5 C117,-92.5 120,-32 120,-32 C120,-32 123.5,-93 123.5,-93 C123.5,-93 122,-142.5 122,-142.5z" style="display: block;"></path><path stroke-linecap="butt" stroke-linejoin="miter" fill-opacity="0" stroke-miterlimit="4" stroke="rgb(255,255,255)" stroke-opacity="1" stroke-width="0" d=" M122,-142.5 C122,-142.5 117,-92.5 117,-92.5 C117,-92.5 120,-32 120,-32 C120,-32 123.5,-93 123.5,-93 C123.5,-93 122,-142.5 122,-142.5z" style="display: block;"></path></g><path fill="rgb(255,255,255)" fill-opacity="1" d=" M122,-142.5 C122,-142.5 117,-92.5 117,-92.5 C117,-92.5 120,-32 120,-32 C120,-32 123.5,-93 123.5,-93 C123.5,-93 122,-142.5 122,-142.5z" style="display: block;"></path><path stroke-linecap="butt" stroke-linejoin="miter" fill-opacity="0" stroke-miterlimit="4" stroke="rgb(255,255,255)" stroke-opacity="1" stroke-width="0" d=" M122,-142.5 C122,-142.5 117,-92.5 117,-92.5 C117,-92.5 120,-32 120,-32 C120,-32 123.5,-93 123.5,-93 C123.5,-93 122,-142.5 122,-142.5z" style="display: block;"></path></g></g><g></g></g></svg>