<svg xmlns="http://www.w3.org/2000/svg" width="800" height="800" viewBox="0 0 800 800" preserveAspectRatio="xMidYMid meet" style="width: 100%; height: 100%;"><defs><clipPath id="animationMask_dAbHK1VcGF"><rect width="800" height="800" x="0" y="0"></rect></clipPath></defs><g clip-path="url(#animationMask_dAbHK1VcGF)"><g transform="matrix(7.800001674177581,0,0,7.800001674177581,148.449946007773,148.449946007773)" opacity="1" style="-webkit-user-select: none;"><g opacity="1" transform="matrix(1,0,0,1,32.25,32.25)"><path fill="rgb(198,91,91)" fill-opacity="1" d=" M32,0 C32,17.673 17.673,32 0,32 C-17.673,32 -32,17.673 -32,0 C-32,-17.673 -17.673,-32 0,-32 C17.673,-32 32,-17.673 32,0z"></path></g></g><g style="-webkit-user-select: none; display: none;"><g><path style="display: none;"></path></g></g><g transform="matrix(7.8,0,0,7.8,366.84999999999997,398.04999999999995)" opacity="1" style="-webkit-user-select: none;"><g opacity="1" transform="matrix(1,0,0,1,4.25,8.25)"><path fill="rgb(224,153,94)" fill-opacity="1" d=" M4,5 C4,6.657 2.657,8 1,8 C1,8 -1,8 -1,8 C-2.657,8 -4,6.657 -4,5 C-4,5 -4,-5 -4,-5 C-4,-6.657 -2.657,-8 -1,-8 C-1,-8 1,-8 1,-8 C2.657,-8 4,-6.657 4,-5 C4,-5 4,5 4,5z"></path></g></g><g transform="matrix(7.8,0,0,7.8,242.04999999999995,242.04999999999995)" opacity="1" style="-webkit-user-select: none;"><g opacity="1" transform="matrix(1,0,0,1,20.25,10.25)"><path fill="rgb(224,153,94)" fill-opacity="1" d=" M9,10 C7.896,10 7,9.104 7,8 C7,6.896 7.896,6 9,6 C12.178,6 16,0.5099999999999998 16,-2.938 C16,-5.651 16,-6 12,-6 C12,-6 -12,-6 -12,-6 C-16,-6 -16,-5.651 -16,-2.938 C-16,0.5099999999999998 -12.178,6 -9,6 C-7.896,6 -7,6.896 -7,8 C-7,9.104 -7.896,10 -9,10 C-14.562000000000001,10 -20,2.592 -20,-2.938 C-20,-9.46 -16.216,-10 -12,-10 C-12,-10 12,-10 12,-10 C16.216,-10 20,-9.46 20,-2.938 C20,2.592 14.562000000000001,10 9,10z"></path></g></g><g transform="matrix(7.8,0,0,7.8,289.18159999999995,242.04999999999995)" opacity="1" style="-webkit-user-select: none;"><g opacity="1" transform="matrix(1,0,0,1,14.208,12.25)"><path fill="rgb(244,206,135)" fill-opacity="1" d=" M-13.958,-12 C-13.348,7.911000000000001 -5.569,12 -0.001,12 C5.568,12 13.347,7.911000000000001 13.958,-12 C13.958,-12 -13.958,-12 -13.958,-12z"></path></g></g><g transform="matrix(7.8,0,0,7.8,306.7557999999999,491.64939999999996)" opacity="1" style="-webkit-user-select: none;"><g opacity="1" transform="matrix(1,0,0,1,11.954,3.377)"><path fill="rgb(244,206,135)" fill-opacity="1" d=" M11.704,3.127 C10.509,-0.4500000000000002 5.726,-3.127 -0.001,-3.127 C-5.727,-3.127 -10.507000000000001,-0.4500000000000002 -11.704,3.127 C-11.704,3.127 11.704,3.127 11.704,3.127z"></path></g></g><g transform="matrix(7.8,0,0,7.8,273.24999999999994,522.8499999999999)" opacity="1" style="-webkit-user-select: none;"><g opacity="1" transform="matrix(1,0,0,1,16.25,2.25)"><path fill="rgb(79,94,114)" fill-opacity="1" d=" M16,0 C16,1.105 15.105,2 14,2 C14,2 -14,2 -14,2 C-15.105,2 -16,1.105 -16,0 C-16,-1.105 -15.105,-2 -14,-2 C-14,-2 14,-2 14,-2 C15.105,-2 16,-1.105 16,0z"></path></g></g><g transform="matrix(7.8,0,0,7.8,351.24999999999994,444.8499999999999)" opacity="1" style="-webkit-user-select: none; display: block;"><g opacity="1" transform="matrix(1,0,0,1,6.25,2.25)"><path fill="rgb(244,206,135)" fill-opacity="1" d=" M6,0 C6,1.105 5.105,2 4,2 C4,2 -4,2 -4,2 C-5.105,2 -6,1.105 -6,0 C-6,-1.105 -5.105,-2 -4,-2 C-4,-2 4,-2 4,-2 C5.105,-2 6,-1.105 6,0z" style="display: block;"></path></g></g><g transform="matrix(7.8,0,0,7.8,273.24999999999994,242.04999999999993)" opacity="1" style="-webkit-user-select: none; display: block;"><g opacity="1" transform="matrix(1,0,0,1,16.25,2.25)"><path fill="rgb(244,206,135)" fill-opacity="1" d=" M16,0 C16,1.105 15.105,2 14,2 C14,2 -14,2 -14,2 C-15.105,2 -16,1.105 -16,0 C-16,-1.105 -15.105,-2 -14,-2 C-14,-2 14,-2 14,-2 C15.105,-2 16,-1.105 16,0z" style="display: block;"></path></g></g><g></g></g></svg>