<svg xmlns="http://www.w3.org/2000/svg" width="800" height="800" viewBox="0 0 800 800" preserveAspectRatio="xMidYMid meet" style="width: 100%; height: 100%;"><defs><clipPath id="animationMask_YAlOerUMh3"><rect width="800" height="800" x="0" y="0"></rect></clipPath></defs><g clip-path="url(#animationMask_YAlOerUMh3)"><g transform="matrix(7.69684170077398,0,0,7.69684170077398,151.77685515003913,151.77685515003913)" opacity="1" style="-webkit-user-select: none;"><g opacity="1" transform="matrix(1,0,0,1,32.25,32.25)"><path fill="rgb(224,224,209)" fill-opacity="1" d=" M32,0 C32,17.673 17.673,32 0,32 C-17.673,32 -32,17.673 -32,0 C-32,-17.673 -17.673,-32 0,-32 C17.673,-32 32,-17.673 32,0z"></path></g></g><g style="-webkit-user-select: none; display: none;"><g><path style="display: none;"></path></g></g><g transform="matrix(7.8,0,0,7.8,429.2274962162824,210.62410654235924)" opacity="1" style="-webkit-user-select: none;"><g opacity="1" transform="matrix(1,0,0,1,10.25,10.25)"><path fill="rgb(79,94,114)" fill-opacity="1" d=" M10,10 C10,-1.0459999999999994 1.0459999999999994,-10 -10,-10 C-10,-10 -10,10 -10,10 C-10,10 10,10 10,10z"></path></g></g><g transform="matrix(7.8,0,0,7.8,217.2680087389082,229.07678576274324)" opacity="1" style="-webkit-user-select: none;"><g opacity="1" transform="matrix(1,0,0,1,18.643,22.25)"><path fill="rgb(117,193,175)" fill-opacity="1" d=" M3.607,-22 C-8.543,-22 -18.393,-12.15 -18.393,0 C-18.393,12.15 -8.543,22 3.607,22 C9.299,22 14.487,19.838 18.393,16.29 C18.393,16.29 3.607,0 3.607,0 C3.607,0 3.607,-22 3.607,-22z"></path></g></g><g transform="matrix(7.8,0,0,7.8,399.66152258336837,404.4228192473091)" opacity="1" style="-webkit-user-select: none;"><g opacity="1" transform="matrix(1,0,0,1,11.25,8.395)"><path fill="rgb(198,91,91)" fill-opacity="1" d=" M11,-8.145 C11,-8.145 -11,-8.145 -11,-8.145 C-11,-8.145 3.786,8.145 3.786,8.145 C8.217,4.1209999999999996 11,-1.6869999999999994 11,-8.145z"></path></g></g></g></svg>