<svg xmlns="http://www.w3.org/2000/svg" width="800" height="800" viewBox="0 0 800 800" preserveAspectRatio="xMidYMid meet" style="width: 100%; height: 100%;"><defs><clipPath id="animationMask_cNIHnV9I2W"><rect width="800" height="800" x="0" y="0"></rect></clipPath></defs><g clip-path="url(#animationMask_cNIHnV9I2W)"><g transform="matrix(7.799994216503801,0,0,7.799994216503801,148.4501865177524,148.4501865177524)" opacity="1" style="-webkit-user-select: none;"><g opacity="1" transform="matrix(1,0,0,1,32.25,32.25)"><path fill="rgb(119,178,211)" fill-opacity="1" d=" M32,0 C32,17.673 17.673,32 0,32 C-17.673,32 -32,17.673 -32,0 C-32,-17.673 -17.673,-32 0,-32 C17.673,-32 32,-17.673 32,0z"></path></g></g><g style="-webkit-user-select: none; display: none;"><g><path style="display: none;"></path></g></g><g transform="matrix(7.800677126786402,0,0,7.800677126786402,324.8058135877487,242.01983448179084)" opacity="1" style="-webkit-user-select: none;"><g opacity="1" transform="matrix(1,0,0,1,-10.263,0.173)"><path fill="rgb(255,255,255)" fill-opacity="1" d=" M40.25,18.042 C40.25,27.983000000000004 31.296,36.042 20.25,36.042 C9.204,36.042 0.25,27.983000000000004 0.25,18.042 C0.25,8.101 9.204,0.042 20.25,0.042 C31.296,0.042 40.25,8.101 40.25,18.042z"></path></g><g opacity="1" transform="matrix(1,0,0,1,13.444,21.25)"><path fill="rgb(255,255,255)" fill-opacity="1" d=" M13.195,-4.2 C13.195,10.762999999999998 -3.805,21 -3.805,21 C-3.805,21 -13.193999999999999,-21 -3.805,-21 C5.584,-21 13.195,-13.478000000000002 13.195,-4.2z"></path></g></g><g style="-webkit-user-select: none; display: none;"><g><path style="display: none;"></path></g><g><path style="display: none;"></path></g></g><g style="-webkit-user-select: none; display: none;"><g><path style="display: none;"></path></g></g><g style="-webkit-user-select: none; display: none;"><g><path style="display: none;"></path></g></g><g style="-webkit-user-select: none; display: none;"><g><path style="display: none;"></path></g></g><g transform="matrix(8.64602702938987,0,0,8.64602702938987,380.5464391838728,364.94643918387277)" opacity="1" style="-webkit-user-select: none;"><g opacity="1" transform="matrix(1,0,0,1,2.25,2.25)"><path fill="rgb(79,94,114)" fill-opacity="1" d=" M2,0 C2,-1.105 1.105,-2 0,-2 C-1.105,-2 -2,-1.105 -2,0 C-2,1.105 -1.105,2 0,2 C1.105,2 2,1.105 2,0z"></path></g></g><g transform="matrix(7.8,0,0,7.8,444.84999999999997,366.84999999999997)" opacity="1" style="-webkit-user-select: none;"><g opacity="1" transform="matrix(1,0,0,1,2.25,2.25)"><path fill="rgb(79,94,114)" fill-opacity="1" d=" M2,0 C2,-1.105 1.105,-2 0,-2 C-1.105,-2 -2,-1.105 -2,0 C-2,1.105 -1.105,2 0,2 C1.105,2 2,1.105 2,0z"></path></g></g><g transform="matrix(7.8,0,0,7.8,320.05,366.84999999999997)" opacity="1" style="-webkit-user-select: none;"><g opacity="1" transform="matrix(1,0,0,1,2.25,2.25)"><path fill="rgb(79,94,114)" fill-opacity="1" d=" M2,0 C2,-1.105 1.105,-2 0,-2 C-1.105,-2 -2,-1.105 -2,0 C-2,1.105 -1.105,2 0,2 C1.105,2 2,1.105 2,0z"></path></g></g></g></svg>