<svg xmlns="http://www.w3.org/2000/svg" width="800" height="800" viewBox="0 0 800 800" preserveAspectRatio="xMidYMid meet" style="width: 100%; height: 100%;"><defs><clipPath id="animationMask_7SJ14ZPiSX"><rect width="800" height="800" x="0" y="0"></rect></clipPath><mask id="ly_Xwp1kjLJUY" mask-type="luminance"><g transform="matrix(1,0,0,1,0,0)" opacity="1"><g mask="url(#stms_6RCnR2Mytz)"><rect width="800" height="800" fill="#ffffff"></rect></g></g></mask><path d="" fill-opacity="1"></path><clipPath id="ASCEGhE3H8"></clipPath><mask id="stms_6RCnR2Mytz" mask-type="alpha"><g fill="none" stroke-linecap="round" stroke-dashoffset="1" stroke="#fff" stroke-width="48.6" opacity="1"><path d=" M323,342 C323,342 403,451.5 403,451.5 C403,451.5 490,281.5 567,278" stroke-dasharray="1 0"></path></g></mask></defs><g clip-path="url(#animationMask_7SJ14ZPiSX)"><g transform="matrix(7.800888485690685,0,0,7.800888485690685,148.4213463364754,148.4213463364754)" opacity="1" style="-webkit-user-select: none;"><g opacity="1" transform="matrix(1,0,0,1,32.25,32.25)"><path fill="rgb(117,193,175)" fill-opacity="1" d=" M32,0 C32,17.673 17.673,32 0,32 C-17.673,32 -32,17.673 -32,0 C-32,-17.673 -17.673,-32 0,-32 C17.673,-32 32,-17.673 32,0z"></path></g></g><g style="-webkit-user-select: none; display: none;"><g><path style="display: none;"></path></g></g><g transform="matrix(7.8032759375857745,0,0,7.8032759375857745,304.4098697645743,312.20986976457425)" opacity="1" style="-webkit-user-select: none;"><g opacity="1" transform="matrix(1,0,0,1,12.25,12.25)"><path fill="rgb(255,255,255)" fill-opacity="1" d=" M-10,12 C-11.103,12 -12,11.103 -12,10 C-12,10 -12,-10 -12,-10 C-12,-11.103 -11.103,-12 -10,-12 C-10,-12 10,-12 10,-12 C11.103,-12 12,-11.103 12,-10 C12,-10 12,10 12,10 C12,11.103 11.103,12 10,12 C10,12 -10,12 -10,12z"></path></g></g><g style="-webkit-user-select: none; display: none;"><g><path style="display: none;"></path></g></g><g transform="matrix(7.793599489851191,0,0,7.793599489851191,288.9412072696205,296.74120726962053)" opacity="1" style="-webkit-user-select: none;"><g opacity="1" transform="matrix(1,0,0,1,14.25,14.25)"><path fill="rgb(79,94,114)" fill-opacity="1" d=" M10,10 C10,10 -10,10 -10,10 C-10,10 -10,-10 -10,-10 C-10,-10 10,-10 10,-10 C10,-10 10,10 10,10z M10,-14 C10,-14 -10,-14 -10,-14 C-12.209,-14 -14,-12.209 -14,-10 C-14,-10 -14,10 -14,10 C-14,12.209 -12.209,14 -10,14 C-10,14 10,14 10,14 C12.209,14 14,12.209 14,10 C14,10 14,-10 14,-10 C14,-12.209 12.209,-14 10,-14z"></path></g></g><g style="-webkit-user-select: none; display: none;"><g><path style="display: none;"></path></g></g><g mask="url(#ly_Xwp1kjLJUY)"><g transform="matrix(7.8,0,0,7.8,336.2206,271.0818)" opacity="1" style="-webkit-user-select: none;"><g opacity="1" transform="matrix(1,0,0,1,13.603,11.889)"><path fill="rgb(198,91,91)" fill-opacity="1" d=" M-4.974,11.639 C-5.5920000000000005,11.639 -6.181,11.351999999999999 -6.563,10.854 C-6.563,10.854 -12.682,2.854 -12.682,2.854 C-13.353,1.977 -13.186,0.7210000000000001 -12.308,0.05 C-11.431,-0.62 -10.174,-0.453 -9.504,0.424 C-9.504,0.424 -5.317,5.899 -5.317,5.899 C-3.008,1.7430000000000003 2.007999999999999,-5.884 9.988,-11.041 C10.917,-11.639000000000001 12.154,-11.373999999999999 12.754,-10.447 C13.353,-9.518999999999998 13.088000000000001,-8.281 12.16,-7.681 C1.952,-1.0860000000000003 -3.0900000000000003,10.322 -3.14,10.436 C-3.422,11.086 -4.0280000000000005,11.538 -4.732,11.624 C-4.813000000000001,11.634 -4.894,11.639 -4.974,11.639z"></path></g></g></g></g></svg>