<svg xmlns="http://www.w3.org/2000/svg" width="800" height="800" viewBox="0 0 800 800" preserveAspectRatio="xMidYMid meet" style="width: 100%; height: 100%;"><defs><clipPath id="animationMask_4CJK4oJAkt"><rect width="800" height="800" x="0" y="0"></rect></clipPath></defs><g clip-path="url(#animationMask_4CJK4oJAkt)"><g transform="matrix(7.799999999999991,0,0,7.799999999999991,148.4500000000003,148.4500000000003)" opacity="1" style="-webkit-user-select: none;"><g opacity="1" transform="matrix(1,0,0,1,32.25,32.25)"><path fill="rgb(119,178,211)" fill-opacity="1" d=" M32,0 C32,17.673 17.673,32 0,32 C-17.673,32 -32,17.673 -32,0 C-32,-17.673 -17.673,-32 0,-32 C17.673,-32 32,-17.673 32,0z"></path></g></g><g style="-webkit-user-select: none; display: none;"><g><path style="display: none;"></path></g></g><g transform="matrix(7.8,0,0,7.79999999999994,242.05,242.05)" opacity="1" style="-webkit-user-select: none;"><g opacity="1" transform="matrix(1,0,0,1,20.25,20.25)"><path fill="rgb(224,153,94)" fill-opacity="1" d=" M16,-20 C16,-20 -16,-20 -16,-20 C-18.209,-20 -20,-18.209 -20,-16 C-20,-16 -20,-10.5 -20,-10.5 C-20,-10.5 -20,16 -20,16 C-20,18.209 -18.209,20 -16,20 C-16,20 16,20 16,20 C18.209,20 20,18.209 20,16 C20,16 20,-10.5 20,-10.5 C20,-10.5 20,-16 20,-16 C20,-18.209 18.209,-20 16,-20z"></path></g></g><g style="-webkit-user-select: none; display: none;"><g><path style="display: none;"></path></g></g><g transform="matrix(7.8,0,0,7.8,273.2498,273.253)" opacity="1" style="-webkit-user-select: none;"><g opacity="1" transform="matrix(1,0,0,1,16.25,16.25)"><path fill="rgb(255,255,255)" fill-opacity="1" d=" M16,16 C16,16 -16,16 -16,16 C-16,16 -16,-16 -16,-16 C-16,-16 16,-16 16,-16 C16,-16 16,16 16,16z"></path></g></g><g style="-webkit-user-select: none; display: none;"><g><path style="display: none;"></path></g></g><g transform="matrix(7.800000000001,0,0,7.8,320.0483999999999,335.64919999999995)" opacity="1" style="-webkit-user-select: none;"><g opacity="1" transform="matrix(1,0,0,1,10.25,1.25)"><path fill="rgb(224,224,209)" fill-opacity="1" d=" M10,1 C10,1 -10,1 -10,1 C-10,1 -10,-1 -10,-1 C-10,-1 10,-1 10,-1 C10,-1 10,1 10,1z"></path></g></g><g style="-webkit-user-select: none; display: none;"><g><path style="display: none;"></path></g></g><g transform="matrix(7.800000000002506,0,0,7.8,320.04919999999953,366.8492)" opacity="1" style="-webkit-user-select: none;"><g opacity="1" transform="matrix(1,0,0,1,10.25,1.25)"><path fill="rgb(224,224,209)" fill-opacity="1" d=" M10,1 C10,1 -10,1 -10,1 C-10,1 -10,-1 -10,-1 C-10,-1 10,-1 10,-1 C10,-1 10,1 10,1z"></path></g></g><g style="-webkit-user-select: none; display: none;"><g><path style="display: none;"></path></g></g><g transform="matrix(7.79999999998984,0,0,7.8,320.0492000000019,398.0492)" opacity="1" style="-webkit-user-select: none;"><g opacity="1" transform="matrix(1,0,0,1,10.25,1.25)"><path fill="rgb(224,224,209)" fill-opacity="1" d=" M10,1 C10,1 -10,1 -10,1 C-10,1 -10,-1 -10,-1 C-10,-1 10,-1 10,-1 C10,-1 10,1 10,1z"></path></g></g><g style="-webkit-user-select: none; display: none;"><g><path style="display: none;"></path></g></g><g transform="matrix(7.799999999933335,0,0,7.8,320.0492000000124,429.25)" opacity="1" style="-webkit-user-select: none;"><g opacity="1" transform="matrix(1,0,0,1,10.25,1.25)"><path fill="rgb(224,224,209)" fill-opacity="1" d=" M10,1 C10,1 -10,1 -10,1 C-10,1 -10,-1 -10,-1 C-10,-1 10,-1 10,-1 C10,-1 10,1 10,1z"></path></g></g><g style="-webkit-user-select: none; display: none;"><g><path style="display: none;"></path></g></g><g transform="matrix(7.8,0,0,7.8,320.0484,460.4508)" opacity="1" style="-webkit-user-select: none;"><g opacity="1" transform="matrix(1,0,0,1,10.25,1.25)"><path fill="rgb(224,224,209)" fill-opacity="1" d=" M10,1 C10,1 -10,1 -10,1 C-10,1 -10,-1 -10,-1 C-10,-1 10,-1 10,-1 C10,-1 10,1 10,1z"></path></g></g><g style="-webkit-user-select: none; display: none;"><g><path style="display: none;"></path></g></g><g style="-webkit-user-select: none; display: none;"><g><path style="display: none;"></path></g></g><g transform="matrix(7.8,0,0,7.8,335.6492,226.44639999999998)" opacity="1" style="-webkit-user-select: none;"><g opacity="1" transform="matrix(1,0,0,1,8.25,4.25)"><path fill="rgb(79,94,114)" fill-opacity="1" d=" M5,-4 C5,-4 -5,-4 -5,-4 C-5,-4 -8,-4 -8,-4 C-8,-4 -8,-1 -8,-1 C-8,-1 -8,0 -8,0 C-8,0 -8,1 -8,1 C-8,2.657 -6.657,4 -5,4 C-5,4 5,4 5,4 C6.657,4 8,2.657 8,1 C8,1 8,0 8,0 C8,0 8,-1 8,-1 C8,-1 8,-4 8,-4 C8,-4 5,-4 5,-4z"></path></g></g><g style="-webkit-user-select: none; display: none;"><g><path style="display: none;"></path></g></g></g></svg>