<svg xmlns="http://www.w3.org/2000/svg" width="800" height="800" viewBox="0 0 800 800" preserveAspectRatio="xMidYMid meet" style="width: 100%; height: 100%;"><defs><clipPath id="animationMask_kuvBBqhhrD"><rect width="800" height="800" x="0" y="0"></rect></clipPath></defs><g clip-path="url(#animationMask_kuvBBqhhrD)"><g transform="matrix(7.80000264939381,0,0,7.80000264939381,148.44991455704962,148.44991455704962)" opacity="1" style="-webkit-user-select: none;"><g opacity="1" transform="matrix(1,0,0,1,32.25,32.25)"><path fill="rgb(224,224,209)" fill-opacity="1" d=" M32,0 C32,17.673 17.673,32 0,32 C-17.673,32 -32,17.673 -32,0 C-32,-17.673 -17.673,-32 0,-32 C17.673,-32 32,-17.673 32,0z"></path></g></g><g style="-webkit-user-select: none; display: none;"><g><path style="display: none;"></path></g></g><g transform="matrix(7.799998511806307,0,0,7.799998511806307,226.45003311230965,226.45003311230965)" opacity="1" style="-webkit-user-select: none;"><g opacity="1" transform="matrix(1,0,0,1,22.25,22.25)"><path fill="rgb(198,91,91)" fill-opacity="1" d=" M0,-18 C9.925,-18 18,-9.925 18,0 C18,9.925 9.925,18 0,18 C-9.925,18 -18,9.925 -18,0 C-18,-9.925 -9.925,-18 0,-18z M0,-22 C-12.15,-22 -22,-12.15 -22,0 C-22,12.15 -12.15,22 0,22 C12.15,22 22,12.15 22,0 C22,-12.15 12.15,-22 0,-22z"></path></g></g><g style="-webkit-user-select: none; display: none;"><g><path style="display: none;"></path></g></g><g transform="matrix(7.590812414992356,1.7943151563752466,-1.7943151563752466,7.590812414992356,410.13293934663795,300.0936123201501)" opacity="1" style="-webkit-user-select: none;"><g opacity="1" transform="matrix(1,0,0,1,6.347,10.25)"><path fill="rgb(79,94,114)" fill-opacity="1" d=" M-6.098,0.829 C-6.098,0.829 -6.098,-8 -6.098,-8 C-6.098,-9.104 -5.202,-10 -4.098,-10 C-2.9939999999999998,-10 -2.098,-9.104 -2.098,-8 C-2.098,-8 -2.086,0.834 -2.086,0.834 C-2.086,0.834 -6.098,0.829 -6.098,0.829z"></path></g></g><g style="-webkit-user-select: none; display: none;"><g><path style="display: none;"></path></g></g><g transform="matrix(-5.9267922491277165,5.070811930616203,-5.070811930616203,-5.9267922491277165,449.1252419459144,443.0383429151187)" opacity="1" style="-webkit-user-select: none;"><g opacity="1" transform="matrix(1,0,0,1,6.347,10.25)"><path fill="rgb(79,94,114)" fill-opacity="1" d=" M3.902,10 C3.39,10 2.879,9.805 2.488,9.414 C2.488,9.414 -5.68,0.813 -5.68,0.813 C-5.68,0.813 -2.898,-1.631 -2.898,-1.631 C-2.898,-1.631 5.316,6.586 5.316,6.586 C6.0969999999999995,7.367 6.0969999999999995,8.633 5.316,9.414 C4.925,9.805 4.414,10 3.902,10z"></path></g></g><g style="-webkit-user-select: none; display: none;"><g><path style="display: none;"></path></g></g><g transform="matrix(0.8499998378250463,0,0,0.8499998378250463,400.6750007297873,399.6812496553782)" opacity="1" style="-webkit-user-select: none;"><g opacity="1" transform="matrix(1,0,0,1,4.5,-2)"><path fill="rgb(224,224,209)" fill-opacity="1" d=" M0,-27.5 C15.177249999999999,-27.5 27.5,-15.177249999999999 27.5,0 C27.5,15.177249999999999 15.177249999999999,27.5 0,27.5 C-15.177249999999999,27.5 -27.5,15.177249999999999 -27.5,0 C-27.5,-15.177249999999999 -15.177249999999999,-27.5 0,-27.5z"></path><path stroke-linecap="butt" stroke-linejoin="miter" fill-opacity="0" stroke-miterlimit="4" stroke="rgb(255,255,255)" stroke-opacity="1" stroke-width="0" d=" M0,-27.5 C15.177249999999999,-27.5 27.5,-15.177249999999999 27.5,0 C27.5,15.177249999999999 15.177249999999999,27.5 0,27.5 C-15.177249999999999,27.5 -27.5,15.177249999999999 -27.5,0 C-27.5,-15.177249999999999 -15.177249999999999,-27.5 0,-27.5z"></path></g></g><g style="-webkit-user-select: none; display: none;"><g><path style="display: none;"></path><path stroke-linecap="butt" stroke-linejoin="miter" fill-opacity="0" stroke-miterlimit="4" style="display: none;"></path></g></g></g></svg>