<svg xmlns="http://www.w3.org/2000/svg" width="800" height="800" viewBox="0 0 800 800" preserveAspectRatio="xMidYMid meet" style="width: 100%; height: 100%;"><defs><clipPath id="animationMask_B0v6WYDnYE"><rect width="800" height="800" x="0" y="0"></rect></clipPath><mask id="ly_clq7lg5qsD" mask-type="luminance"><g style="-webkit-user-select: none; display: none;"><g><path style="display: none;"></path><g></g></g></g></mask><mask id="ly_osT2NqzIXS" mask-type="luminance"><g style="-webkit-user-select: none; display: none;"><g><path style="display: none;"></path><g></g></g></g></mask><mask id="ly_gkAUwudog3" mask-type="luminance"><g style="-webkit-user-select: none; display: none;"><g><path style="display: none;"></path><g></g></g></g></mask><mask id="ly_yUYvLd9yYZ" mask-type="luminance"><g style="-webkit-user-select: none; display: none;"><g><path style="display: none;"></path><g></g></g></g></mask><mask id="ly_VchYjOIniV" mask-type="luminance"><g style="-webkit-user-select: none; display: none;"><g><path style="display: none;"></path><g></g></g></g></mask><mask id="ly_5mqyUHuh2V" mask-type="luminance"><g style="-webkit-user-select: none; display: none;"><g><path style="display: none;"></path><g></g></g></g></mask><mask id="ly_xFoeg7O1KH" mask-type="luminance"><g style="-webkit-user-select: none; display: none;"><g><path style="display: none;"></path><g></g></g></g></mask><mask id="ly_BvEKH1AiiN" mask-type="luminance"><g style="-webkit-user-select: none; display: none;"><g><path style="display: none;"></path><g></g></g></g></mask><mask id="ly_NUzECSsxaR" mask-type="luminance"><g transform="matrix(7.8,0,0,7.8,148.45000000000002,148.45000000000002)" opacity="1" style="-webkit-user-select: none; display: block;"><g opacity="1" transform="matrix(1,0,0,1,32.25,32.25)"><path fill="rgb(255,255,255)" fill-opacity="1" d=" M-32,-32 C-32,-32 32,-32 32,-32 C32,-32 32,32 32,32 C32,32 -32,32 -32,32 C-32,32 -32,-32 -32,-32z M-32,32 C-32,32 32,32 32,32 C32,32 32,-32 32,-32 C32,-32 -32,-32 -32,-32 C-32,-32 -32,32 -32,32z M32,0 C32,17.673 17.673,32 0,32 C-17.673,32 -32,17.673 -32,0 C-32,-17.673 -17.673,-32 0,-32 C17.673,-32 32,-17.673 32,0z" style="display: block;"></path><g opacity="1" transform="matrix(1,0,0,1,0,0)"></g></g></g></mask><mask id="ly_uxyB5IgZDg" mask-type="luminance"><g transform="matrix(7.8,0,0,7.8,148.45000000000002,148.45000000000002)" opacity="1" style="-webkit-user-select: none; display: block;"><g opacity="1" transform="matrix(1,0,0,1,32.25,32.25)"><path fill="rgb(255,255,255)" fill-opacity="1" d=" M-32,-32 C-32,-32 32,-32 32,-32 C32,-32 32,32 32,32 C32,32 -32,32 -32,32 C-32,32 -32,-32 -32,-32z M-32,32 C-32,32 32,32 32,32 C32,32 32,-32 32,-32 C32,-32 -32,-32 -32,-32 C-32,-32 -32,32 -32,32z M32,0 C32,17.673 17.673,32 0,32 C-17.673,32 -32,17.673 -32,0 C-32,-17.673 -17.673,-32 0,-32 C17.673,-32 32,-17.673 32,0z" style="display: block;"></path><g opacity="1" transform="matrix(1,0,0,1,0,0)"></g></g></g></mask><mask id="ly_KA2k71KOen" mask-type="luminance"><g transform="matrix(7.8,0,0,7.8,148.45000000000002,148.45000000000002)" opacity="1" style="-webkit-user-select: none; display: block;"><g opacity="1" transform="matrix(1,0,0,1,32.25,32.25)"><path fill="rgb(255,255,255)" fill-opacity="1" d=" M-32,-32 C-32,-32 32,-32 32,-32 C32,-32 32,32 32,32 C32,32 -32,32 -32,32 C-32,32 -32,-32 -32,-32z M-32,32 C-32,32 32,32 32,32 C32,32 32,-32 32,-32 C32,-32 -32,-32 -32,-32 C-32,-32 -32,32 -32,32z M32,0 C32,17.673 17.673,32 0,32 C-17.673,32 -32,17.673 -32,0 C-32,-17.673 -17.673,-32 0,-32 C17.673,-32 32,-17.673 32,0z" style="display: block;"></path><g opacity="1" transform="matrix(1,0,0,1,0,0)"></g></g></g></mask><mask id="ly_KfylqjcfuT" mask-type="luminance"><g transform="matrix(7.8,0,0,7.8,148.45000000000002,148.45000000000002)" opacity="1" style="-webkit-user-select: none; display: block;"><g opacity="1" transform="matrix(1,0,0,1,32.25,32.25)"><path fill="rgb(255,255,255)" fill-opacity="1" d=" M-32,-32 C-32,-32 32,-32 32,-32 C32,-32 32,32 32,32 C32,32 -32,32 -32,32 C-32,32 -32,-32 -32,-32z M-32,32 C-32,32 32,32 32,32 C32,32 32,-32 32,-32 C32,-32 -32,-32 -32,-32 C-32,-32 -32,32 -32,32z M32,0 C32,17.673 17.673,32 0,32 C-17.673,32 -32,17.673 -32,0 C-32,-17.673 -17.673,-32 0,-32 C17.673,-32 32,-17.673 32,0z" style="display: block;"></path><g opacity="1" transform="matrix(1,0,0,1,0,0)"></g></g></g></mask><mask id="ly_HlkQ1vReSh" mask-type="luminance"><g transform="matrix(7.8,0,0,7.8,148.45000000000002,148.45000000000002)" opacity="1" style="-webkit-user-select: none;"><g opacity="1" transform="matrix(1,0,0,1,32.25,32.25)"><path fill="rgb(255,255,255)" fill-opacity="1" d=" M-32,-32 C-32,-32 32,-32 32,-32 C32,-32 32,32 32,32 C32,32 -32,32 -32,32 C-32,32 -32,-32 -32,-32z M-32,32 C-32,32 32,32 32,32 C32,32 32,-32 32,-32 C32,-32 -32,-32 -32,-32 C-32,-32 -32,32 -32,32z M32,0 C32,17.673 17.673,32 0,32 C-17.673,32 -32,17.673 -32,0 C-32,-17.673 -17.673,-32 0,-32 C17.673,-32 32,-17.673 32,0z"></path><g opacity="1" transform="matrix(1,0,0,1,0,0)"></g></g></g></mask></defs><g clip-path="url(#animationMask_B0v6WYDnYE)"><g transform="matrix(7.799999999972511,0,0,7.799999999972511,148.45000000088652,148.45000000088652)" opacity="1" style="-webkit-user-select: none;"><g opacity="1" transform="matrix(1,0,0,1,32.25,32.25)"><path fill="rgb(119,178,211)" fill-opacity="1" d=" M32,0 C32,17.673 17.673,32 0,32 C-17.673,32 -32,17.673 -32,0 C-32,-17.673 -17.673,-32 0,-32 C17.673,-32 32,-17.673 32,0z"></path></g></g><g style="-webkit-user-select: none; display: none;"><g><path style="display: none;"></path></g></g><g transform="matrix(7.799999999915987,0,0,7.799999999915987,210.85000000203732,257.6500000013652)" opacity="1" style="-webkit-user-select: none;"><g opacity="1" transform="matrix(1,0,0,1,24.25,16.25)"><path fill="rgb(255,255,255)" fill-opacity="1" d=" M16,0 C16,-8.837 8.837,-16 0,-16 C-7.498,-16 -13.773,-10.835 -15.508,-3.874 C-20.313,-3.146 -24,0.9909999999999997 -24,6 C-24,11.523 -19.523,16 -14,16 C-14,16 16,16 16,16 C20.418,16 24,12.418 24,8 C24,3.582 20.418,0 16,0z"></path></g></g><g style="-webkit-user-select: none; display: none;"><g><path style="display: none;"></path></g></g><g mask="url(#ly_HlkQ1vReSh)"><g transform="matrix(3.34,0,0,3.34,-219.8247,499.125)" opacity="1" style="-webkit-user-select: none;"><g opacity="1" transform="matrix(1,0,0,1,24.25,16.25)"><path fill="rgb(255,255,255)" fill-opacity="1" d=" M16,0 C16,-8.837 8.837,-16 0,-16 C-7.498,-16 -13.773,-10.835 -15.508,-3.874 C-20.313,-3.146 -24,0.9909999999999997 -24,6 C-24,11.523 -19.523,16 -14,16 C-14,16 16,16 16,16 C20.418,16 24,12.418 24,8 C24,3.582 20.418,0 16,0z"></path></g></g></g><g mask="url(#ly_KfylqjcfuT)"><g transform="matrix(3.34,0,0,3.34,144.16530000000012,292.125)" opacity="1" style="-webkit-user-select: none; display: block;"><g opacity="1" transform="matrix(1,0,0,1,24.25,16.25)"><path fill="rgb(255,255,255)" fill-opacity="1" d=" M16,0 C16,-8.837 8.837,-16 0,-16 C-7.498,-16 -13.773,-10.835 -15.508,-3.874 C-20.313,-3.146 -24,0.9909999999999997 -24,6 C-24,11.523 -19.523,16 -14,16 C-14,16 16,16 16,16 C20.418,16 24,12.418 24,8 C24,3.582 20.418,0 16,0z" style="display: block;"></path></g></g></g><g mask="url(#ly_KA2k71KOen)"><g transform="matrix(3.34,0,0,3.34,441.97530000000006,171.125)" opacity="1" style="-webkit-user-select: none; display: block;"><g opacity="1" transform="matrix(1,0,0,1,24.25,16.25)"><path fill="rgb(255,255,255)" fill-opacity="1" d=" M16,0 C16,-8.837 8.837,-16 0,-16 C-7.498,-16 -13.773,-10.835 -15.508,-3.874 C-20.313,-3.146 -24,0.9909999999999997 -24,6 C-24,11.523 -19.523,16 -14,16 C-14,16 16,16 16,16 C20.418,16 24,12.418 24,8 C24,3.582 20.418,0 16,0z" style="display: block;"></path></g></g></g><g mask="url(#ly_uxyB5IgZDg)"><g transform="matrix(3.34,0,0,3.34,574.3353000000001,444.125)" opacity="1" style="-webkit-user-select: none; display: block;"><g opacity="1" transform="matrix(1,0,0,1,24.25,16.25)"><path fill="rgb(255,255,255)" fill-opacity="1" d=" M16,0 C16,-8.837 8.837,-16 0,-16 C-7.498,-16 -13.773,-10.835 -15.508,-3.874 C-20.313,-3.146 -24,0.9909999999999997 -24,6 C-24,11.523 -19.523,16 -14,16 C-14,16 16,16 16,16 C20.418,16 24,12.418 24,8 C24,3.582 20.418,0 16,0z" style="display: block;"></path></g></g></g><g mask="url(#ly_NUzECSsxaR)"><g transform="matrix(3.34,0,0,3.34,828.0253,528.125)" opacity="1" style="-webkit-user-select: none; display: block;"><g opacity="1" transform="matrix(1,0,0,1,24.25,16.25)"><path fill="rgb(255,255,255)" fill-opacity="1" d=" M16,0 C16,-8.837 8.837,-16 0,-16 C-7.498,-16 -13.773,-10.835 -15.508,-3.874 C-20.313,-3.146 -24,0.9909999999999997 -24,6 C-24,11.523 -19.523,16 -14,16 C-14,16 16,16 16,16 C20.418,16 24,12.418 24,8 C24,3.582 20.418,0 16,0z" style="display: block;"></path></g></g></g><g mask="url(#ly_BvEKH1AiiN)"><g style="-webkit-user-select: none; display: none;"><g><path style="display: none;"></path></g></g></g><g mask="url(#ly_xFoeg7O1KH)"><g style="-webkit-user-select: none; display: none;"><g><path style="display: none;"></path></g></g></g><g mask="url(#ly_5mqyUHuh2V)"><g style="-webkit-user-select: none; display: none;"><g><path style="display: none;"></path></g></g></g><g mask="url(#ly_VchYjOIniV)"><g style="-webkit-user-select: none; display: none;"><g><path style="display: none;"></path></g></g></g><g mask="url(#ly_yUYvLd9yYZ)"><g style="-webkit-user-select: none; display: none;"><g><path style="display: none;"></path></g></g></g><g mask="url(#ly_gkAUwudog3)"><g style="-webkit-user-select: none; display: none;"><g><path style="display: none;"></path></g></g></g><g mask="url(#ly_osT2NqzIXS)"><g style="-webkit-user-select: none; display: none;"><g><path style="display: none;"></path></g></g></g><g mask="url(#ly_clq7lg5qsD)"><g style="-webkit-user-select: none; display: none;"><g><path style="display: none;"></path></g></g></g></g></svg>