<svg xmlns="http://www.w3.org/2000/svg" width="800" height="800" viewBox="0 0 800 800" preserveAspectRatio="xMidYMid meet" style="width: 100%; height: 100%;"><defs><clipPath id="animationMask_tvWKwL3gry"><rect width="800" height="800" x="0" y="0"></rect></clipPath></defs><g clip-path="url(#animationMask_tvWKwL3gry)"><g transform="matrix(7.799952701867113,0,0,7.799952701867113,148.4515253647856,148.4515253647856)" opacity="1" style="-webkit-user-select: none;"><g opacity="1" transform="matrix(1,0,0,1,32.25,32.25)"><path fill="rgb(117,193,175)" fill-opacity="1" d=" M32,0 C32,17.673 17.673,32 0,32 C-17.673,32 -32,17.673 -32,0 C-32,-17.673 -17.673,-32 0,-32 C17.673,-32 32,-17.673 32,0z"></path></g></g><g style="-webkit-user-select: none; display: none;"><g><path style="display: none;"></path></g></g><g transform="matrix(7.8,0,0,7.8,461.842,317.83840000000004)" opacity="1" style="-webkit-user-select: none;"><g opacity="1" transform="matrix(1,0,0,1,8.135,10.392)"><path fill="rgb(255,255,255)" fill-opacity="1" d=" M-5.602,10.141 C-6.273000000000001,10.141 -6.929,9.804 -7.307,9.191 C-7.886,8.25 -7.593999999999999,7.018 -6.654,6.439 C-6.654,6.439 3.469,0.199 3.469,0.199 C3.48,0.162 3.48,0.122 3.469,0.085 C3.469,0.085 -6.654,-6.156 -6.654,-6.156 C-7.593999999999999,-6.734999999999999 -7.886,-7.967 -7.307,-8.908 C-6.728000000000001,-9.847999999999999 -5.497,-10.142 -4.555,-9.561 C-4.555,-9.561 6.076,-3.007 6.076,-3.007 C6.076,-3.007 6.242,-2.841 6.242,-2.841 C7.885,-1.1960000000000002 7.885,1.479 6.242,3.124 C6.242,3.124 6.076,3.29 6.076,3.29 C6.076,3.29 -4.555,9.844 -4.555,9.844 C-4.880999999999999,10.046 -5.244000000000001,10.141 -5.602,10.141z"></path></g></g><g transform="matrix(7.8,0,0,7.8,211.24419999999992,317.83840000000004)" opacity="1" style="-webkit-user-select: none;"><g opacity="1" transform="matrix(1,0,0,1,8.136,10.392)"><path fill="rgb(255,255,255)" fill-opacity="1" d=" M5.602,10.141 C5.244000000000001,10.141 4.882,10.046 4.555,9.844 C4.555,9.844 -6.076,3.29 -6.076,3.29 C-6.076,3.29 -6.242,3.124 -6.242,3.124 C-7.886,1.479 -7.886,-1.1960000000000002 -6.242,-2.841 C-6.242,-2.841 -6.076,-3.007 -6.076,-3.007 C-6.076,-3.007 4.555,-9.561 4.555,-9.561 C5.494,-10.142 6.727,-9.847999999999999 7.307,-8.908 C7.886,-7.967 7.593999999999999,-6.734999999999999 6.653,-6.156 C6.653,-6.156 -3.469,0.085 -3.469,0.085 C-3.48,0.122 -3.48,0.162 -3.469,0.199 C-3.469,0.199 6.653,6.439 6.653,6.439 C7.593999999999999,7.018 7.886,8.25 7.307,9.191 C6.929,9.804 6.273000000000001,10.141 5.602,10.141z"></path></g></g><g transform="matrix(7.8,0,0,7.8,329.70640000000003,247.79439999999997)" opacity="1" style="-webkit-user-select: none;"><g opacity="1" transform="matrix(1,0,0,1,9.012,19.382)"><path fill="rgb(255,255,255)" fill-opacity="1" d=" M-6.501,19.132 C-6.738,19.132 -6.979,19.089 -7.214,18.999 C-8.246,18.605 -8.762,17.448 -8.368,16.417 C-8.368,16.417 4.632,-17.583 4.632,-17.583 C5.026999999999999,-18.613999999999997 6.183,-19.132 7.215,-18.736 C8.247,-18.342000000000002 8.762,-17.185 8.368,-16.154 C8.368,-16.154 -4.632,17.846 -4.632,17.846 C-4.936999999999999,18.643 -5.696000000000001,19.132 -6.501,19.132z"></path></g></g></g></svg>