<svg xmlns="http://www.w3.org/2000/svg" width="800" height="800" viewBox="0 0 800 800" preserveAspectRatio="xMidYMid meet" style="width: 100%; height: 100%;"><defs><clipPath id="animationMask_F3hRI8USOk"><rect width="800" height="800" x="0" y="0"></rect></clipPath></defs><g clip-path="url(#animationMask_F3hRI8USOk)"><g style="-webkit-user-select: none; display: none;"><g><path style="display: none;"></path></g></g><g transform="matrix(7.799999999982292,0,0,7.799999999982292,147.14700000057107,148.45000000057107)" opacity="1" style="-webkit-user-select: none;"><g opacity="1" transform="matrix(1,0,0,1,32.334,32.25)"><path fill="rgb(117,193,175)" fill-opacity="1" d=" M31.917,0 C31.917,17.673 17.59,32 -0.083,32 C-17.755999999999997,32 -32.083,17.673 -32.083,0 C-32.083,-17.673 -17.755999999999997,-32 -0.083,-32 C17.59,-32 31.917,-17.673 31.917,0z"></path></g></g><g style="-webkit-user-select: none; display: none;"><g><path style="display: none;"></path></g></g><g transform="matrix(7.799999999921599,0,0,7.799999999921599,242.0500000011172,242.05000000158762)" opacity="1" style="-webkit-user-select: none;"><g opacity="1" transform="matrix(1,0,0,1,14.25,20.25)"><path fill="rgb(224,224,209)" fill-opacity="1" d=" M11,-20 C11,-20 2,-20 2,-20 C2,-20 -11,-20 -11,-20 C-12.657,-20 -14,-18.657 -14,-17 C-14,-17 -14,8 -14,8 C-14,8 -14,17 -14,17 C-14,18.657 -12.657,20 -11,20 C-11,20 -2,20 -2,20 C-2,20 11,20 11,20 C12.657,20 14,18.657 14,17 C14,17 14,-8 14,-8 C14,-8 14,-17 14,-17 C14,-18.657 12.657,-20 11,-20z"></path></g></g><g transform="matrix(7.8,0,0,7.8,275.2028,298.59999999999997)" opacity="0.2" style="-webkit-user-select: none;"><g opacity="1" transform="matrix(1,0,0,1,16,13)"><path fill="rgb(35,30,33)" fill-opacity="1" d=" M-16,-11 C-16,-11 -6,-11 -6,-11 C-6,-11 -6,-13 -6,-13 C-6,-13 -16,-13 -16,-13 C-16,-13 -16,-11 -16,-11z"></path></g></g><g transform="matrix(7.8,0,0,7.8,275.2028,345.4)" opacity="0.2" style="-webkit-user-select: none;"><g opacity="1" transform="matrix(1,0,0,1,16,7)"><path fill="rgb(35,30,33)" fill-opacity="1" d=" M-16,-5 C-16,-5 4,-5 4,-5 C4,-5 4,-7 4,-7 C4,-7 -16,-7 -16,-7 C-16,-7 -16,-5 -16,-5z"></path></g></g><g transform="matrix(7.8,0,0,7.8,275.2028,384.4)" opacity="0.2" style="-webkit-user-select: none;"><g opacity="1" transform="matrix(1,0,0,1,16,2)"><path fill="rgb(35,30,33)" fill-opacity="1" d=" M-16,0 C-16,0 4,0 4,0 C4,0 4,-2 4,-2 C4,-2 -16,-2 -16,-2 C-16,-2 -16,0 -16,0z"></path></g></g><g transform="matrix(7.8,0,0,7.8,275.2028,423.4)" opacity="0.2" style="-webkit-user-select: none;"><g opacity="1" transform="matrix(1,0,0,1,16,-3)"><path fill="rgb(35,30,33)" fill-opacity="1" d=" M-16,5 C-16,5 4,5 4,5 C4,5 4,3 4,3 C4,3 -16,3 -16,3 C-16,3 -16,5 -16,5z"></path></g></g><g transform="matrix(7.8,0,0,7.8,275.2028,462.4)" opacity="0.2" style="-webkit-user-select: none;"><g opacity="1" transform="matrix(1,0,0,1,16,-8)"><path fill="rgb(35,30,33)" fill-opacity="1" d=" M-16,10 C-16,10 4,10 4,10 C4,10 4,8 4,8 C4,8 -16,8 -16,8 C-16,8 -16,10 -16,10z"></path></g></g><g transform="matrix(7.8,0,0,7.8,275.2028,501.4)" opacity="0.2" style="-webkit-user-select: none;"><g opacity="1" transform="matrix(1,0,0,1,16,-13)"><path fill="rgb(35,30,33)" fill-opacity="1" d=" M-16,15 C-16,15 4,15 4,15 C4,15 4,13 4,13 C4,13 -16,13 -16,13 C-16,13 -16,15 -16,15z"></path></g></g><g transform="matrix(7.74260584127588,-0.9445003461162393,0.9445003461162393,7.74260584127588,412.9810829016481,225.24726195258003)" opacity="1" style="-webkit-user-select: none;"><g opacity="1" transform="matrix(1,0,0,1,9.199,9.2)"><path fill="rgb(198,91,91)" fill-opacity="1" d=" M3.536,7.778 C2.364,8.95 0.46399999999999997,8.95 -0.708,7.778 C-0.708,7.778 -7.779,0.707 -7.779,0.707 C-8.95,-0.46499999999999997 -8.95,-2.364 -7.779,-3.536 C-7.779,-3.536 -3.536,-7.778 -3.536,-7.778 C-2.364,-8.95 -0.46399999999999997,-8.95 0.708,-7.778 C0.708,-7.778 7.779,-0.707 7.779,-0.707 C8.95,0.4640000000000001 8.95,2.364 7.779,3.535 C7.779,3.535 3.536,7.778 3.536,7.778z"></path></g></g><g style="-webkit-user-select: none; display: none;"><g><path style="display: none;"></path></g></g><g transform="matrix(7.742604179417631,-0.9445001433904745,0.9445001433904745,7.742604179417631,300.5745253839924,275.94310298126595)" opacity="1" style="-webkit-user-select: none; display: block;"><g opacity="1" transform="matrix(1,0,0,1,10.15,10.15)"><path fill="rgb(224,153,94)" fill-opacity="1" d=" M-7.072,9.9 C-7.072,9.9 -9.9,7.072 -9.9,7.072 C-9.9,7.072 7.07,-9.9 7.07,-9.9 C7.07,-9.9 9.9,-7.072 9.9,-7.072 C9.9,-7.072 -7.072,9.9 -7.072,9.9z" style="display: block;"></path></g></g><g transform="matrix(7.742604179417631,-0.9445001433904745,0.9445001433904745,7.742604179417631,314.1949111324136,296.5064168525262)" opacity="1" style="-webkit-user-select: none; display: block;"><g opacity="1" transform="matrix(1,0,0,1,12.271,12.271)"><path fill="rgb(244,206,135)" fill-opacity="1" d=" M-6.364,12.021 C-6.364,12.021 -12.021,6.364 -12.021,6.364 C-12.021,6.364 6.364,-12.021 6.364,-12.021 C6.364,-12.021 12.021,-6.364 12.021,-6.364 C12.021,-6.364 -6.364,12.021 -6.364,12.021z" style="display: block;"></path></g></g><g transform="matrix(7.742604179417631,-0.9445001433904745,0.9445001433904745,7.742604179417631,375.1568082401504,332.5140301834826)" opacity="1" style="-webkit-user-select: none; display: block;"><g opacity="1" transform="matrix(1,0,0,1,10.149,10.149)"><path fill="rgb(224,153,94)" fill-opacity="1" d=" M-7.072,9.9 C-7.072,9.9 -9.9,7.072 -9.9,7.072 C-9.9,7.072 7.07,-9.9 7.07,-9.9 C7.07,-9.9 9.9,-7.072 9.9,-7.072 C9.9,-7.072 -7.072,9.9 -7.072,9.9z" style="display: block;"></path></g></g><g transform="matrix(7.742604179417631,-0.9445001433904745,0.9445001433904745,7.742604179417631,301.99794730527475,409.1238787772064)" opacity="1" style="-webkit-user-select: none; display: block;"><g opacity="1" transform="matrix(1,0,0,1,6.85,6.85)"><path fill="rgb(255,255,255)" fill-opacity="1" d=" M-4.714,-6.6 C-4.714,-6.6 -6.6,2.829 -6.6,2.829 C-6.6,2.829 -2.828,6.6 -2.828,6.6 C-2.828,6.6 6.6,4.715 6.6,4.715 C6.6,4.715 5.186,3.301 5.186,3.301 C5.186,3.301 5.186,0.471 5.186,0.471 C5.186,0.471 -0.471,0.471 -0.471,0.471 C-0.471,0.471 -0.471,-5.186 -0.471,-5.186 C-0.471,-5.186 -3.3,-5.186 -3.3,-5.186 C-3.3,-5.186 -4.714,-6.6 -4.714,-6.6z" style="display: block;"></path></g></g><g transform="matrix(7.742604179417631,-0.9445001433904745,0.9445001433904745,7.742604179417631,303.6044258181197,483.00711001483864)" opacity="1" style="-webkit-user-select: none; display: block;"><g opacity="1" transform="matrix(1,0,0,1,2.607,2.607)"><path fill="rgb(79,94,114)" fill-opacity="1" d=" M-2.357,2.357 C-2.357,2.357 2.357,1.415 2.357,1.415 C2.357,1.415 -1.414,-2.357 -1.414,-2.357 C-1.414,-2.357 -2.357,2.357 -2.357,2.357z" style="display: block;"></path></g></g></g></svg>