<svg xmlns="http://www.w3.org/2000/svg" width="800" height="800" viewBox="0 0 800 800" preserveAspectRatio="xMidYMid meet" style="width: 100%; height: 100%;"><defs><clipPath id="animationMask_pcQG5hlBP6"><rect width="800" height="800" x="0" y="0"></rect></clipPath></defs><g clip-path="url(#animationMask_pcQG5hlBP6)"><g transform="matrix(7.80000264939381,0,0,7.80000264939381,148.44991455704962,148.44991455704962)" opacity="1" style="-webkit-user-select: none;"><g opacity="1" transform="matrix(1,0,0,1,32.25,32.25)"><path fill="rgb(79,94,114)" fill-opacity="1" d=" M32,0 C32,17.673 17.673,32 0,32 C-17.673,32 -32,17.673 -32,0 C-32,-17.673 -17.673,-32 0,-32 C17.673,-32 32,-17.673 32,0z"></path></g></g><g transform="matrix(7.8,0,0,7.8,226.45000000000002,226.45000000000002)" opacity="1" style="-webkit-user-select: none;"><g opacity="1" transform="matrix(1,0,0,1,22.25,22.25)"><path fill="rgb(119,178,211)" fill-opacity="1" d=" M22,0 C22,12.15 12.15,22 0,22 C-12.15,22 -22,12.15 -22,0 C-22,-12.15 -12.15,-22 0,-22 C12.15,-22 22,-12.15 22,0z"></path></g></g><g transform="matrix(7.8,0,0,7.8,226.45000000000002,226.45000000000002)" opacity="1" style="-webkit-user-select: none;"><g opacity="1" transform="matrix(1,0,0,1,22.25,22.25)"><path fill="rgb(255,255,255)" fill-opacity="1" d=" M0,-18 C9.925,-18 18,-9.925 18,0 C18,9.925 9.925,18 0,18 C-9.925,18 -18,9.925 -18,0 C-18,-9.925 -9.925,-18 0,-18z M0,-22 C-12.15,-22 -22,-12.15 -22,0 C-22,12.15 -12.15,22 0,22 C12.15,22 22,12.15 22,0 C22,-12.15 12.15,-22 0,-22z"></path></g></g><g transform="matrix(7.8,0,0,7.8,319.11400000000003,319.12980000000005)" opacity="1" style="-webkit-user-select: none;"><g opacity="1" transform="matrix(1,0,0,1,10.37,10.309)"><path fill="rgb(198,91,91)" fill-opacity="1" d=" M9.81,-8.029 C9.81,-8.029 6.905,-3.373 6.905,-3.373 C6.905,-3.373 4.967,-0.268 4.967,-0.268 C4.975,-0.15800000000000003 -0.21700000000000003,5.034 -0.327,5.026 C-0.327,5.026 -3.435,6.964 -3.435,6.964 C-3.435,6.964 -8.087,9.869 -8.087,9.869 C-8.29,9.997 -8.52,10.059 -8.75,10.059 C-9.072,10.059 -9.393,9.934000000000001 -9.635,9.694 C-10.048,9.282 -10.120000000000001,8.642 -9.81,8.149 C-9.81,8.149 -6.905,3.494 -6.905,3.494 C-6.905,3.494 -4.967,0.389 -4.967,0.389 C-4.975,0.276 0.21700000000000003,-4.916 0.327,-4.908 C0.327,-4.908 3.435,-6.846 3.435,-6.846 C3.435,-6.846 8.087,-9.751 8.087,-9.751 C8.572,-10.059 9.219999999999999,-9.986 9.633,-9.574 C10.047999999999998,-9.164 10.120000000000001,-8.524 9.81,-8.029z M-2.5,0.059 C-2.5,1.44 -1.381,2.559 0,2.559 C1.381,2.559 2.5,1.44 2.5,0.059 C2.5,-1.322 1.381,-2.441 0,-2.441 C-1.381,-2.441 -2.5,-1.322 -2.5,0.059z"></path></g></g><g transform="matrix(7.797180876111599,0,0,7.797180876111599,359.06480040041413,359.06480040041413)" opacity="1" style="-webkit-user-select: none;"><g opacity="1" transform="matrix(1,0,0,1,5.25,5.25)"><path fill="rgb(255,255,255)" fill-opacity="1" d=" M5,0 C5,2.761 2.761,5 0,5 C-2.761,5 -5,2.761 -5,0 C-5,-2.761 -2.761,-5 0,-5 C2.761,-5 5,-2.761 5,0z"></path></g></g></g></svg>