<svg xmlns="http://www.w3.org/2000/svg" width="800" height="800" viewBox="0 0 800 800" preserveAspectRatio="xMidYMid meet" style="width: 100%; height: 100%;"><defs><clipPath id="animationMask_ilwsuZSISq"><rect width="800" height="800" x="0" y="0"></rect></clipPath></defs><g clip-path="url(#animationMask_ilwsuZSISq)"><g transform="matrix(7.8,0,0,7.8,148.45000000000002,148.45000000000002)" opacity="1" style="-webkit-user-select: none;"><g opacity="1" transform="matrix(1,0,0,1,32.25,32.25)"><path fill="rgb(117,193,175)" fill-opacity="1" d=" M32,0 C32,17.673 17.673,32 0,32 C-17.673,32 -32,17.673 -32,0 C-32,-17.673 -17.673,-32 0,-32 C17.673,-32 32,-17.673 32,0z"></path></g></g><g transform="matrix(7.8,0,0,7.8,304.45,522.85)" opacity="1" style="-webkit-user-select: none;"><g opacity="1" transform="matrix(1,0,0,1,12.25,2.25)"><path fill="rgb(255,255,255)" fill-opacity="1" d=" M12,0 C12,1.105 11.105,2 10,2 C10,2 -10,2 -10,2 C-11.105,2 -12,1.105 -12,0 C-12,-1.105 -11.105,-2 -10,-2 C-10,-2 10,-2 10,-2 C11.105,-2 12,-1.105 12,0z"></path></g></g><g transform="matrix(7.8,0,0,7.8,335.65,476.04999999999995)" opacity="1" style="-webkit-user-select: none;"><g opacity="1" transform="matrix(1,0,0,1,8.25,3.25)"><path fill="rgb(224,224,209)" fill-opacity="1" d=" M5,-3 C5,-3 4,3 8,3 C8,3 -8,3 -8,3 C-4,3 -5,-3 -5,-3 C-5,-3 5,-3 5,-3z"></path></g></g><g transform="matrix(7.8,0,0,7.8,253.75,253.75)" opacity="1" style="-webkit-user-select: none;"><g opacity="1" transform="matrix(1,0,0,1,18.75,13.75)"><path fill="rgb(79,94,114)" fill-opacity="1" d=" M-16,13.5 C-17.379,13.5 -18.5,12.379 -18.5,11 C-18.5,11 -18.5,-11 -18.5,-11 C-18.5,-12.379 -17.379,-13.5 -16,-13.5 C-16,-13.5 16,-13.5 16,-13.5 C17.379,-13.5 18.5,-12.379 18.5,-11 C18.5,-11 18.5,11 18.5,11 C18.5,12.379 17.379,13.5 16,13.5 C16,13.5 -16,13.5 -16,13.5z"></path></g></g><g transform="matrix(7.8,0,0,7.8,242.05,242.05)" opacity="1" style="-webkit-user-select: none;"><g opacity="1" transform="matrix(1,0,0,1,20.25,15.25)"><path fill="rgb(255,255,255)" fill-opacity="1" d=" M16,-12 C16.551,-12 17,-11.551 17,-11 C17,-11 17,11 17,11 C17,11.551 16.551,12 16,12 C16,12 -16,12 -16,12 C-16.551,12 -17,11.551 -17,11 C-17,11 -17,-11 -17,-11 C-17,-11.551 -16.551,-12 -16,-12 C-16,-12 16,-12 16,-12z M16,-15 C16,-15 -16,-15 -16,-15 C-18.209,-15 -20,-13.209 -20,-11 C-20,-11 -20,11 -20,11 C-20,13.209 -18.209,15 -16,15 C-16,15 16,15 16,15 C18.209,15 20,13.209 20,11 C20,11 20,-11 20,-11 C20,-13.209 18.209,-15 16,-15z"></path></g></g></g></svg>