<svg xmlns="http://www.w3.org/2000/svg" width="800" height="800" viewBox="0 0 800 800" preserveAspectRatio="xMidYMid meet" style="width: 100%; height: 100%;"><defs><clipPath id="animationMask_eW4VTnkuE1"><rect width="800" height="800" x="0" y="0"></rect></clipPath></defs><g clip-path="url(#animationMask_eW4VTnkuE1)"><g transform="matrix(7.799999941865395,0,0,7.799999941865395,148.450001874841,148.450001874841)" opacity="1" style="-webkit-user-select: none;"><g opacity="1" transform="matrix(1,0,0,1,32.25,32.25)"><path fill="rgb(198,91,91)" fill-opacity="1" d=" M32,0 C32,17.673 17.673,32 0,32 C-17.673,32 -32,17.673 -32,0 C-32,-17.673 -17.673,-32 0,-32 C17.673,-32 32,-17.673 32,0z"></path></g></g><g style="-webkit-user-select: none; display: none;"><g><path style="display: none;"></path></g></g><g transform="matrix(7.799887301086439,0.041929588007761136,-0.041929588007761136,7.799887301086439,515.6874895275846,281.6690810479084)" opacity="1" style="-webkit-user-select: none;"><g opacity="1" transform="matrix(1,0,0,1,2.25,3.75)"><path fill="rgb(119,178,211)" fill-opacity="1" d=" M0,3.5 C-1.105,3.5 -2,2.605 -2,1.5 C-2,1.5 -2,-1.5 -2,-1.5 C-2,-2.605 -1.105,-3.5 0,-3.5 C1.105,-3.5 2,-2.605 2,-1.5 C2,-1.5 2,1.5 2,1.5 C2,2.605 1.105,3.5 0,3.5z"></path></g></g><g transform="matrix(7.799887301086439,0.041929588007761136,-0.041929588007761136,7.799887301086439,515.3104895275845,351.8680810479084)" opacity="1" style="-webkit-user-select: none;"><g opacity="1" transform="matrix(1,0,0,1,2.25,3.75)"><path fill="rgb(255,255,255)" fill-opacity="1" d=" M0,3.5 C-1.105,3.5 -2,2.605 -2,1.5 C-2,1.5 -2,-1.5 -2,-1.5 C-2,-2.605 -1.105,-3.5 0,-3.5 C1.105,-3.5 2,-2.605 2,-1.5 C2,-1.5 2,1.5 2,1.5 C2,2.605 1.105,3.5 0,3.5z"></path></g></g><g transform="matrix(7.799887301086439,0.041929588007761136,-0.041929588007761136,7.799887301086439,514.9334895275846,422.0670810479084)" opacity="1" style="-webkit-user-select: none;"><g opacity="1" transform="matrix(1,0,0,1,2.25,3.75)"><path fill="rgb(117,193,175)" fill-opacity="1" d=" M0,3.5 C-1.105,3.5 -2,2.605 -2,1.5 C-2,1.5 -2,-1.5 -2,-1.5 C-2,-2.605 -1.105,-3.5 0,-3.5 C1.105,-3.5 2,-2.605 2,-1.5 C2,-1.5 2,1.5 2,1.5 C2,2.605 1.105,3.5 0,3.5z"></path></g></g><g transform="matrix(7.799887301086439,0.041929588007761136,-0.041929588007761136,7.799887301086439,274.10090551450253,241.3709263478735)" opacity="1" style="-webkit-user-select: none;"><g opacity="1" transform="matrix(1,0,0,1,16.25,20.25)"><path fill="rgb(224,153,94)" fill-opacity="1" d=" M16,16 C16,18.209 14.209,20 12,20 C12,20 -12,20 -12,20 C-14.209,20 -16,18.209 -16,16 C-16,16 -16,-16 -16,-16 C-16,-18.209 -14.209,-20 -12,-20 C-12,-20 12,-20 12,-20 C14.209,-20 16,-18.209 16,-16 C16,-16 16,16 16,16z"></path></g></g><g transform="matrix(7.799887301086439,0.041929588007761136,-0.041929588007761136,7.799887301086439,320.9002713802559,241.62290537398604)" opacity="1" style="-webkit-user-select: none; display: block;"><g opacity="1" transform="matrix(1,0,0,1,1.75,20.25)"><path fill="rgb(79,94,114)" fill-opacity="1" d=" M1.5,20 C1.5,20 -1.5,20 -1.5,20 C-1.5,20 -1.5,-20 -1.5,-20 C-1.5,-20 1.5,-20 1.5,-20 C1.5,-20 1.5,20 1.5,20z" style="display: block;"></path></g></g><g transform="matrix(7.799887301086439,0.041929588007761136,-0.041929588007761136,7.799887301086439,250.4487641939433,288.0450176175264)" opacity="1" style="-webkit-user-select: none; display: block;"><g opacity="1" transform="matrix(1,0,0,1,3.75,2.25)"><path fill="rgb(224,224,209)" fill-opacity="1" d=" M3.5,0 C3.5,1.105 2.605,2 1.5,2 C1.5,2 -1.5,2 -1.5,2 C-2.605,2 -3.5,1.105 -3.5,0 C-3.5,-1.105 -2.605,-2 -1.5,-2 C-1.5,-2 1.5,-2 1.5,-2 C2.605,-2 3.5,-1.105 3.5,0z" style="display: block;"></path></g></g><g transform="matrix(7.799887301086439,0.041929588007761136,-0.041929588007761136,7.799887301086439,250.11376419394333,350.4440176175264)" opacity="1" style="-webkit-user-select: none; display: block;"><g opacity="1" transform="matrix(1,0,0,1,3.75,2.25)"><path fill="rgb(224,224,209)" fill-opacity="1" d=" M3.5,0 C3.5,1.105 2.605,2 1.5,2 C1.5,2 -1.5,2 -1.5,2 C-2.605,2 -3.5,1.105 -3.5,0 C-3.5,-1.105 -2.605,-2 -1.5,-2 C-1.5,-2 1.5,-2 1.5,-2 C2.605,-2 3.5,-1.105 3.5,0z" style="display: block;"></path></g></g><g transform="matrix(7.799887301086439,0.041929588007761136,-0.041929588007761136,7.799887301086439,249.77876419394335,412.8440176175264)" opacity="1" style="-webkit-user-select: none; display: block;"><g opacity="1" transform="matrix(1,0,0,1,3.75,2.25)"><path fill="rgb(224,224,209)" fill-opacity="1" d=" M3.5,0 C3.5,1.105 2.605,2 1.5,2 C1.5,2 -1.5,2 -1.5,2 C-2.605,2 -3.5,1.105 -3.5,0 C-3.5,-1.105 -2.605,-2 -1.5,-2 C-1.5,-2 1.5,-2 1.5,-2 C2.605,-2 3.5,-1.105 3.5,0z" style="display: block;"></path></g></g><g transform="matrix(7.799887301086439,0.041929588007761136,-0.041929588007761136,7.799887301086439,249.4437641939433,475.2430176175264)" opacity="1" style="-webkit-user-select: none; display: block;"><g opacity="1" transform="matrix(1,0,0,1,3.75,2.25)"><path fill="rgb(224,224,209)" fill-opacity="1" d=" M3.5,0 C3.5,1.105 2.605,2 1.5,2 C1.5,2 -1.5,2 -1.5,2 C-2.605,2 -3.5,1.105 -3.5,0 C-3.5,-1.105 -2.605,-2 -1.5,-2 C-1.5,-2 1.5,-2 1.5,-2 C2.605,-2 3.5,-1.105 3.5,0z" style="display: block;"></path></g></g><g transform="matrix(7.799887301086439,0.041929588007761136,-0.041929588007761136,7.799887301086439,398.4376797194156,327.84027822134965)" opacity="1" style="-webkit-user-select: none; display: block;"><g opacity="1" transform="matrix(1,0,0,1,4.25,4.25)"><path fill="rgb(244,206,135)" fill-opacity="1" d=" M4,0 C4,2.209 2.209,4 0,4 C-2.209,4 -4,2.209 -4,0 C-4,-2.209 -2.209,-4 0,-4 C2.209,-4 4,-2.209 4,0z" style="display: block;"></path></g></g><g transform="matrix(7.799887301086439,0.041929588007761136,-0.041929588007761136,7.799887301086439,382.4616629179836,397.89534740939666)" opacity="1" style="-webkit-user-select: none; display: block;"><g opacity="1" transform="matrix(1,0,0,1,6.25,5.389)"><path fill="rgb(244,206,135)" fill-opacity="1" d=" M6,2.128 C6,5.138 3.314,4.854 0,4.854 C-3.314,4.854 -6,5.138 -6,2.128 C-6,-0.883 -3.314,-5.139 0,-5.139 C3.314,-5.139 6,-0.883 6,2.128z" style="display: block;"></path></g></g></g></svg>