<svg xmlns="http://www.w3.org/2000/svg" width="800" height="800" viewBox="0 0 800 800" preserveAspectRatio="xMidYMid meet" style="width: 100%; height: 100%;"><defs><clipPath id="animationMask_xOrMcehvUJ"><rect width="800" height="800" x="0" y="0"></rect></clipPath></defs><g clip-path="url(#animationMask_xOrMcehvUJ)"><g transform="matrix(7.8000024878954894,0,0,7.8000024878954894,148.44991976537045,148.44991976537045)" opacity="1" style="-webkit-user-select: none;"><g opacity="1" transform="matrix(1,0,0,1,32.25,32.25)"><path fill="rgb(119,178,211)" fill-opacity="1" d=" M32,0 C32,17.673 17.673,32 0,32 C-17.673,32 -32,17.673 -32,0 C-32,-17.673 -17.673,-32 0,-32 C17.673,-32 32,-17.673 32,0z"></path></g></g><g style="-webkit-user-select: none; display: none;"><g><path style="display: none;"></path></g></g><g transform="matrix(7.799633566266365,-0.07337584979673288,0.07337605013185726,7.7996548612914305,241.08448289405445,298.1402621890463)" opacity="1" style="-webkit-user-select: none;"><g opacity="1" transform="matrix(1,0,0,1,20.25,14.25)"><path fill="rgb(255,255,255)" fill-opacity="1" d=" M20,10 C20,12.209 18.209,14 16,14 C16,14 -16,14 -16,14 C-18.209,14 -20,12.209 -20,10 C-20,10 -20,-10 -20,-10 C-20,-12.209 -18.209,-14 -16,-14 C-16,-14 16,-14 16,-14 C18.209,-14 20,-12.209 20,-10 C20,-10 20,10 20,10z"></path></g></g><g style="-webkit-user-select: none; display: none;"><g><path style="display: none;"></path></g></g><g transform="matrix(7.7995605798526215,-0.07337516316958732,0.07337605013185726,7.7996548612914305,241.5246376921083,344.93846549159525)" opacity="1" style="-webkit-user-select: none;"><g opacity="1" transform="matrix(1,0,0,1,20.25,3.25)"><path fill="rgb(79,94,114)" fill-opacity="1" d=" M20,3 C20,3 -20,3 -20,3 C-20,3 -20,-3 -20,-3 C-20,-3 20,-3 20,-3 C20,-3 20,3 20,3z"></path></g></g><g style="-webkit-user-select: none; display: none;"><g><path style="display: none;"></path></g></g><g transform="matrix(7.761815024994511,-0.07302006800515014,0.07302006800515014,7.761815024994511,367.43262104075075,453.0442113467739)" opacity="1" style="-webkit-user-select: none;"><g opacity="1" transform="matrix(1,0,0,1,2.25,2.25)"><path fill="rgb(224,153,94)" fill-opacity="1" d=" M2,0 C2,-1.105 1.105,-2 0,-2 C-1.105,-2 -2,-1.105 -2,0 C-2,1.105 -1.105,2 0,2 C1.105,2 2,1.105 2,0z"></path></g></g><g style="-webkit-user-select: none; display: none;"><g><path style="display: none;"></path></g></g><g transform="matrix(7.782586936756099,-0.07321548188766909,0.07321548188766909,7.782586936756099,429.78244455805157,452.410914226546)" opacity="1" style="-webkit-user-select: none;"><g opacity="1" transform="matrix(1,0,0,1,2.25,2.25)"><path fill="rgb(224,153,94)" fill-opacity="1" d=" M2,0 C2,-1.105 1.105,-2 0,-2 C-1.105,-2 -2,-1.105 -2,0 C-2,1.105 -1.105,2 0,2 C1.105,2 2,1.105 2,0z"></path></g></g><g style="-webkit-user-select: none; display: none;"><g><path style="display: none;"></path></g></g><g transform="matrix(7.975608053215657,-0.07503134776503416,0.07503134776503416,7.975608053215657,491.74106134779345,451.3937024127361)" opacity="1" style="-webkit-user-select: none;"><g opacity="1" transform="matrix(1,0,0,1,2.25,2.25)"><path fill="rgb(224,153,94)" fill-opacity="1" d=" M2,0 C2,-1.105 1.105,-2 0,-2 C-1.105,-2 -2,-1.105 -2,0 C-2,1.105 -1.105,2 0,2 C1.105,2 2,1.105 2,0z"></path></g></g><g style="-webkit-user-select: none; display: none;"><g><path style="display: none;"></path></g></g></g></svg>