<svg xmlns="http://www.w3.org/2000/svg" width="800" height="800" viewBox="0 0 800 800" preserveAspectRatio="xMidYMid meet" style="width: 100%; height: 100%;"><defs><clipPath id="animationMask_FIdbf8chwb"><rect width="800" height="800" x="0" y="0"></rect></clipPath></defs><g clip-path="url(#animationMask_FIdbf8chwb)"><g transform="matrix(7.803273594452454,0,0,7.803273594452454,148.34442657890835,148.34442657890835)" opacity="1" style="-webkit-user-select: none;"><g opacity="1" transform="matrix(1,0,0,1,32.25,32.25)"><path fill="rgb(198,91,91)" fill-opacity="1" d=" M32,0 C32,17.673 17.673,32 0,32 C-17.673,32 -32,17.673 -32,0 C-32,-17.673 -17.673,-32 0,-32 C17.673,-32 32,-17.673 32,0z"></path></g></g><g style="-webkit-user-select: none; display: none;"><g><path style="display: none;"></path></g></g><g transform="matrix(7.792255096408399,-0.14785029058595067,0.14785029058595067,7.792255096408399,229.38642437846767,239.14742455351535)" opacity="1" style="-webkit-user-select: none;"><g opacity="1" transform="matrix(1,0,0,1,21.496,18.649)"><path fill="rgb(244,206,135)" fill-opacity="1" d=" M-15.046,18.4 C-19.445999999999998,18.4 -21.246,15.281 -19.046,11.471 C-19.046,11.471 -4,-14.589 -4,-14.589 C-1.7999999999999998,-18.4 1.7999999999999998,-18.4 4,-14.589 C4,-14.589 19.046,11.471 19.046,11.471 C21.246,15.281 19.445999999999998,18.4 15.046,18.4 C15.046,18.4 -15.046,18.4 -15.046,18.4z"></path></g></g><g style="-webkit-user-select: none; display: none;"><g><path style="display: none;"></path></g></g><g transform="matrix(7.728880189492797,-0.14664781475740032,0.14664781475740032,7.728880189492797,381.09852707261604,321.22407232965634)" opacity="1" style="-webkit-user-select: none;"><g opacity="1" transform="matrix(1,0,0,1,2.25,6.25)"><path fill="rgb(79,94,114)" fill-opacity="1" d=" M2,4 C2,5.105 1.105,6 0,6 C-1.105,6 -2,5.105 -2,4 C-2,4 -2,-4 -2,-4 C-2,-5.105 -1.105,-6 0,-6 C1.105,-6 2,-5.105 2,-4 C2,-4 2,4 2,4z"></path></g></g><g style="-webkit-user-select: none; display: none;"><g><path style="display: none;"></path></g></g><g transform="matrix(7.728149482369703,-0.14663395031647197,0.14663395031647197,7.728149482369703,383.46573727645614,445.3305900528802)" opacity="1" style="-webkit-user-select: none;"><g opacity="1" transform="matrix(1,0,0,1,2.25,2.25)"><path fill="rgb(79,94,114)" fill-opacity="1" d=" M2,0 C2,1.105 1.105,2 0,2 C-1.105,2 -2,1.105 -2,0 C-2,-1.105 -1.105,-2 0,-2 C1.105,-2 2,-1.105 2,0z"></path></g></g><g style="-webkit-user-select: none; display: none;"><g><path style="display: none;"></path></g></g></g></svg>