<svg xmlns="http://www.w3.org/2000/svg" width="800" height="800" viewBox="0 0 800 800" preserveAspectRatio="xMidYMid meet" style="width: 100%; height: 100%;"><defs><clipPath id="animationMask_jOedj5eTpZ"><rect width="800" height="800" x="0" y="0"></rect></clipPath><mask id="ly_TuzUxEEDnr" mask-type="luminance"><g clip-path="url(#cp_6OOxAcDU)" transform="matrix(1.7,0,0,1.7,145,145)" opacity="1"><g transform="matrix(1,0,0,1,0,0)" opacity="1"><rect width="300" height="300" fill="#000000"></rect></g><g transform="matrix(1,0,0,1,150,150)" opacity="1" style="-webkit-user-select: none;"><g opacity="1" transform="matrix(1,0,0,1,-0.016,-0.016)"><path fill="rgb(255,255,255)" fill-opacity="1" d=" M0,-150 C82.785,-150 150,-82.785 150,0 C150,82.785 82.785,150 0,150 C-82.785,150 -150,82.785 -150,0 C-150,-82.785 -82.785,-150 0,-150z"></path></g></g></g></mask><clipPath id="cp_6OOxAcDU"><path d="M0,0 L300,0 L300,300 L0,300z"></path></clipPath></defs><g clip-path="url(#animationMask_jOedj5eTpZ)"><g transform="matrix(7.799999980580592,0,0,7.799999980580592,148.4500006262759,148.4500006262759)" opacity="1" style="-webkit-user-select: none;"><g opacity="1" transform="matrix(1,0,0,1,32.25,32.25)"><path fill="rgb(224,224,209)" fill-opacity="1" d=" M32,0 C32,17.673 17.673,32 0,32 C-17.673,32 -32,17.673 -32,0 C-32,-17.673 -17.673,-32 0,-32 C17.673,-32 32,-17.673 32,0z"></path></g></g><g style="-webkit-user-select: none; display: none;"><g><path style="display: none;"></path></g></g><g mask="url(#ly_TuzUxEEDnr)"><g transform="matrix(7.8,0,0,7.8,226.45000000000002,226.45000000000002)" opacity="1" style="-webkit-user-select: none;"><g opacity="1" transform="matrix(1,0,0,1,22.25,22.25)"><path fill="rgb(198,91,91)" fill-opacity="1" d=" M0,-16 C8.822,-16 16,-8.822 16,0 C16,8.822 8.822,16 0,16 C-8.822,16 -16,8.822 -16,0 C-16,-8.822 -8.822,-16 0,-16z M0,-22 C-12.15,-22 -22,-12.15 -22,0 C-22,12.15 -12.15,22 0,22 C12.15,22 22,12.15 22,0 C22,-12.15 12.15,-22 0,-22z"></path></g></g></g><g transform="matrix(7.8,0,0,7.8,272.3052,272.30719999999997)" opacity="1" style="-webkit-user-select: none;"><g opacity="1" transform="matrix(1,0,0,1,16.371,16.371)"><path fill="rgb(198,91,91)" fill-opacity="1" d=" M11.879,16.121 C11.879,16.121 -16.121,-11.879 -16.121,-11.879 C-16.121,-11.879 -11.879,-16.121 -11.879,-16.121 C-11.879,-16.121 16.121,11.879 16.121,11.879 C16.121,11.879 11.879,16.121 11.879,16.121z"></path></g></g></g></svg>