<svg xmlns="http://www.w3.org/2000/svg" width="800" height="800" viewBox="0 0 800 800" preserveAspectRatio="xMidYMid meet" style="width: 100%; height: 100%;"><defs><clipPath id="animationMask_dFcFw15C2l"><rect width="800" height="800" x="0" y="0"></rect></clipPath></defs><g clip-path="url(#animationMask_dFcFw15C2l)"><g transform="matrix(7.799999988788343,0,0,7.799999988788343,148.45000036157592,148.45000036157592)" opacity="1" style="-webkit-user-select: none;"><g opacity="1" transform="matrix(1,0,0,1,32.25,32.25)"><path fill="rgb(117,193,175)" fill-opacity="1" d=" M32,0 C32,17.673 17.673,32 0,32 C-17.673,32 -32,17.673 -32,0 C-32,-17.673 -17.673,-32 0,-32 C17.673,-32 32,-17.673 32,0z"></path></g></g><g style="-webkit-user-select: none; display: none;"><g><path style="display: none;"></path></g></g><g transform="matrix(7.799887227836219,0.04192958761399243,-0.04192958761399243,7.799887227836219,238.02736751056895,218.30710519904446)" opacity="1" style="-webkit-user-select: none;"><g opacity="1" transform="matrix(1,0,0,1,20.89,23.182)"><path fill="rgb(224,224,209)" fill-opacity="1" d=" M3.465,-21.833 C1.561,-22.933 -1.559,-22.933 -3.464,-21.833 C-3.464,-21.833 -17.174,-13.917 -17.174,-13.917 C-19.08,-12.817 -20.639,-10.117 -20.639,-7.917 C-20.639,-7.917 -20.639,7.917 -20.639,7.917 C-20.639,10.116 -19.08,12.815999999999999 -17.174,13.917 C-17.174,13.917 -3.464,21.833 -3.464,21.833 C-1.559,22.932 1.561,22.932 3.465,21.833 C3.465,21.833 17.176,13.917 17.176,13.917 C19.081999999999997,12.815999999999999 20.639,10.116 20.639,7.917 C20.639,7.917 20.639,-7.917 20.639,-7.917 C20.639,-10.117 19.081999999999997,-12.817 17.176,-13.917 C17.176,-13.917 3.465,-21.833 3.465,-21.833z"></path></g></g><g style="-webkit-user-select: none; display: none;"><g><path style="display: none;"></path></g></g><g transform="matrix(7.799887301872055,0.04192958801198434,-0.04192958801198434,7.799887301872055,261.6587725557921,228.3689152153284)" opacity="1" style="-webkit-user-select: none;"><g opacity="1" transform="matrix(1,0,0,1,17.854,9.992)"><path fill="rgb(255,255,255)" fill-opacity="1" d=" M0,9.742 C-1.123,9.742 -2.203,9.49 -2.964,9.051 C-2.964,9.051 -16.675,1.135 -16.675,1.135 C-17.266000000000002,0.794 -17.604,0.38 -17.604,-0.001 C-17.604,-0.38 -17.266000000000002,-0.7929999999999999 -16.675,-1.133 C-16.675,-1.133 -2.964,-9.051 -2.964,-9.051 C-2.203,-9.49 -1.123,-9.742 0,-9.742 C1.123,-9.742 2.203,-9.49 2.964,-9.051 C2.964,-9.051 16.675,-1.133 16.675,-1.133 C17.266000000000002,-0.7929999999999999 17.604,-0.38 17.604,-0.001 C17.604,0.38 17.266000000000002,0.794 16.675,1.135 C16.675,1.135 2.964,9.051 2.964,9.051 C2.203,9.49 1.123,9.742 0,9.742z"></path></g></g><g style="-webkit-user-select: none; display: none;"><g><path style="display: none;"></path></g></g><g transform="matrix(7.799888507629387,0.04192959449373288,-0.04192959449373288,7.799888507629387,243.96687514892756,324.01007228123)" opacity="1" style="-webkit-user-select: none;"><g opacity="1" transform="matrix(1,0,0,1,9.57,15.593)"><path fill="rgb(255,255,255)" fill-opacity="1" d=" M8.395,15.344 C8.094999999999999,15.344 7.736,15.226999999999999 7.356,15.008 C7.356,15.008 -6.355,7.092 -6.355,7.092 C-7.962000000000001,6.164999999999999 -9.32,3.814 -9.32,1.958 C-9.32,1.958 -9.32,-13.874 -9.32,-13.874 C-9.32,-14.316 -9.23,-15.344 -8.395,-15.344 C-8.094999999999999,-15.344 -7.736000000000001,-15.226999999999999 -7.355,-15.008 C-7.355,-15.008 6.356,-7.092 6.356,-7.092 C7.962,-6.164 9.32,-3.8129999999999997 9.32,-1.958 C9.32,-1.958 9.32,13.874 9.32,13.874 C9.32,14.391 9.208,14.816 9.004,15.07 C8.854,15.257 8.66,15.344 8.395,15.344z"></path></g></g><g style="-webkit-user-select: none; display: none;"><g><path style="display: none;"></path></g></g><g transform="matrix(7.799890312067222,0.04192960419378778,-0.04192960419378778,7.799890312067222,406.25285803171045,324.88104405180127)" opacity="1" style="-webkit-user-select: none;"><g opacity="1" transform="matrix(1,0,0,1,9.57,15.593)"><path fill="rgb(255,255,255)" fill-opacity="1" d=" M-8.394,15.344 C-9.23,15.344 -9.32,14.316 -9.32,13.874 C-9.32,13.874 -9.32,-1.958 -9.32,-1.958 C-9.32,-3.8129999999999997 -7.962,-6.164 -6.356,-7.092 C-6.356,-7.092 7.356,-15.008 7.356,-15.008 C7.736,-15.226999999999999 8.095,-15.344 8.394,-15.344 C9.229,-15.344 9.32,-14.316 9.32,-13.874 C9.32,-13.874 9.32,1.958 9.32,1.958 C9.32,3.814 7.962,6.164999999999999 6.356,7.092 C6.356,7.092 -7.356,15.008 -7.356,15.008 C-7.736,15.226999999999999 -8.095,15.344 -8.394,15.344z"></path></g></g><g style="-webkit-user-select: none; display: none;"><g><path style="display: none;"></path></g></g><g transform="matrix(7.79987500618869,0.04192952191449884,-0.04192952191449884,7.79987500618869,380.4217774425242,293.9501042845845)" opacity="1" style="-webkit-user-select: none;"><g opacity="1" transform="matrix(1,0,0,1,2.583,1.666)"><path fill="rgb(79,94,114)" fill-opacity="1" d=" M0,1.417 C-1.265,1.417 -2.333,0.769 -2.333,0.001 C-2.333,-0.767 -1.265,-1.417 0,-1.417 C1.265,-1.417 2.333,-0.767 2.333,0.001 C2.333,0.769 1.265,1.417 0,1.417z"></path></g></g><g style="-webkit-user-select: none; display: none;"><g><path style="display: none;"></path></g></g><g transform="matrix(7.799806972466209,0.041929156187938424,-0.041929156187938424,7.799806972466209,255.29604880116443,445.7567950078345)" opacity="1" style="-webkit-user-select: none;"><g opacity="1" transform="matrix(1,0,0,1,1.666,2.327)"><path fill="rgb(79,94,114)" fill-opacity="1" d=" M0,2.077 C-0.768,2.077 -1.416,1.126 -1.416,0.001 C-1.416,-1.125 -0.768,-2.077 0,-2.077 C0.768,-2.077 1.416,-1.125 1.416,0.001 C1.416,1.126 0.768,2.077 0,2.077z"></path></g></g><g style="-webkit-user-select: none; display: none;"><g><path style="display: none;"></path></g></g><g transform="matrix(7.7998881626192595,0.04192959263907371,-0.04192959263907371,7.7998881626192595,514.3189145535548,447.14660543241087)" opacity="1" style="-webkit-user-select: none; display: block;"><g opacity="1" transform="matrix(1,0,0,1,1.666,2.327)"><path fill="rgb(79,94,114)" fill-opacity="1" d=" M0,2.077 C-0.769,2.077 -1.416,1.126 -1.416,0.001 C-1.416,-1.125 -0.769,-2.077 0,-2.077 C0.768,-2.077 1.416,-1.125 1.416,0.001 C1.416,1.126 0.768,2.077 0,2.077z" style="display: block;"></path></g></g><g style="-webkit-user-select: none; display: none;"><g><path style="display: none;"></path></g></g><g transform="matrix(7.80121043608958,0.04193670073944799,-0.04193670073944799,7.80121043608958,255.7937281793947,352.6415179822237)" opacity="1" style="-webkit-user-select: none; display: block;"><g opacity="1" transform="matrix(1,0,0,1,1.666,2.327)"><path fill="rgb(79,94,114)" fill-opacity="1" d=" M0,2.077 C-0.768,2.077 -1.416,1.126 -1.416,0.001 C-1.416,-1.125 -0.768,-2.077 0,-2.077 C0.768,-2.077 1.416,-1.125 1.416,0.001 C1.416,1.126 0.768,2.077 0,2.077z" style="display: block;"></path></g></g><g style="-webkit-user-select: none; display: none;"><g><path style="display: none;"></path></g></g><g transform="matrix(7.803189242451689,0.04194733814128568,-0.04194733814128568,7.803189242451689,347.2854562305921,413.091897556714)" opacity="1" style="-webkit-user-select: none; display: block;"><g opacity="1" transform="matrix(1,0,0,1,1.666,2.327)"><path fill="rgb(79,94,114)" fill-opacity="1" d=" M-0.001,2.077 C-0.769,2.077 -1.417,1.1260000000000001 -1.417,-0.001 C-1.417,-1.126 -0.769,-2.077 -0.001,-2.077 C0.767,-2.077 1.417,-1.126 1.417,-0.001 C1.417,1.1260000000000001 0.767,2.077 -0.001,2.077z" style="display: block;"></path></g></g><g style="-webkit-user-select: none; display: none;"><g><path style="display: none;"></path></g></g><g transform="matrix(7.786404308533975,0.04185710794477897,-0.04185710794477897,7.786404308533975,425.63142365075345,413.5510477794061)" opacity="1" style="-webkit-user-select: none; display: block;"><g opacity="1" transform="matrix(1,0,0,1,1.667,2.327)"><path fill="rgb(79,94,114)" fill-opacity="1" d=" M-0.001,2.077 C-0.77,2.077 -1.417,1.1260000000000001 -1.417,-0.001 C-1.417,-1.126 -0.77,-2.077 -0.001,-2.077 C0.767,-2.077 1.417,-1.126 1.417,-0.001 C1.417,1.1260000000000001 0.767,2.077 -0.001,2.077z" style="display: block;"></path></g></g><g style="-webkit-user-select: none; display: none;"><g><path style="display: none;"></path></g></g><g transform="matrix(7.711796272571149,0.041456040071714474,-0.041456040071714474,7.711796272571149,346.97461561514336,499.25958431096745)" opacity="1" style="-webkit-user-select: none; display: block;"><g opacity="1" transform="matrix(1,0,0,1,1.666,2.327)"><path fill="rgb(79,94,114)" fill-opacity="1" d=" M-0.001,2.077 C-0.769,2.077 -1.417,1.126 -1.417,0 C-1.417,-1.125 -0.769,-2.077 -0.001,-2.077 C0.767,-2.077 1.417,-1.125 1.417,0 C1.417,1.126 0.767,2.077 -0.001,2.077z" style="display: block;"></path></g></g><g style="-webkit-user-select: none; display: none;"><g><path style="display: none;"></path></g></g></g></svg>