<svg xmlns="http://www.w3.org/2000/svg" width="800" height="800" viewBox="0 0 800 800" preserveAspectRatio="xMidYMid meet" style="width: 100%; height: 100%;"><defs><clipPath id="animationMask_Zdx8uI1dsE"><rect width="800" height="800" x="0" y="0"></rect></clipPath></defs><g clip-path="url(#animationMask_Zdx8uI1dsE)"><g transform="matrix(7.800001202208796,0,0,7.800001202208796,148.4499612287663,148.4499612287663)" opacity="1" style="-webkit-user-select: none;"><g opacity="1" transform="matrix(1,0,0,1,32.25,32.25)"><path fill="rgb(224,153,94)" fill-opacity="1" d=" M32,0 C32,17.673 17.673,32 0,32 C-17.673,32 -32,17.673 -32,0 C-32,-17.673 -17.673,-32 0,-32 C17.673,-32 32,-17.673 32,0z"></path></g></g><g style="-webkit-user-select: none; display: none;"><g><path style="display: none;"></path></g></g><g transform="matrix(7.8,0,0,7.8,273.25,242.05)" opacity="1" style="-webkit-user-select: none;"><g opacity="1" transform="matrix(-1,0,0,1,16.25,20.25)"><path fill="rgb(224,224,209)" fill-opacity="1" d=" M4,-11 C4,-11 4,-20 4,-20 C4,-20 -13,-20 -13,-20 C-14.657,-20 -16,-18.657 -16,-17 C-16,-17 -16,17 -16,17 C-16,18.657 -14.657,20 -13,20 C-13,20 13,20 13,20 C14.657,20 16,18.657 16,17 C16,17 16,-8 16,-8 C16,-8 7,-8 7,-8 C5.343,-8 4,-9.343 4,-11z"></path></g><g opacity="1" transform="matrix(1,0,0,1,16.25,20.25)"><path fill="rgb(224,224,209)" fill-opacity="1" d=" M4,-11 C4,-11 4,-20 4,-20 C4,-20 -13,-20 -13,-20 C-14.657,-20 -16,-18.657 -16,-17 C-16,-17 -16,17 -16,17 C-16,18.657 -14.657,20 -13,20 C-13,20 13,20 13,20 C14.657,20 16,18.657 16,17 C16,17 16,-8 16,-8 C16,-8 7,-8 7,-8 C5.343,-8 4,-9.343 4,-11z"></path></g></g><g transform="matrix(7.8,0,0,7.8,439.1234,332.09159999999997)" opacity="0.2" style="-webkit-user-select: none;"><g opacity="1" transform="matrix(1,0,0,1,5.492,4.853)"><path fill="rgb(35,30,33)" fill-opacity="1" d=" M-5.492,-4.853 C-5.492,-4.853 5.492,4.853 5.492,4.853 C5.492,4.853 5.492,-4.147 5.492,-4.147 C5.492,-4.147 -5.492,-4.853 -5.492,-4.853z"></path></g></g><g transform="matrix(7.8,0,0,7.8,429.25,242.05)" opacity="1" style="-webkit-user-select: none;"><g opacity="1" transform="matrix(1,0,0,1,6.25,6.25)"><path fill="rgb(255,255,255)" fill-opacity="1" d=" M-6,-6 C-6,-6 -6,3 -6,3 C-6,4.657 -4.657,6 -3,6 C-3,6 6,6 6,6 C6,6 -6,-6 -6,-6z"></path></g></g><g></g><g transform="matrix(7.8,0,0,7.8,322.00440000000003,322)" opacity="0.2" style="-webkit-user-select: none;"><g opacity="1" transform="matrix(1,0,0,1,10,10)"><path fill="rgb(35,30,33)" fill-opacity="1" d=" M-10,-8 C-10,-8 -0.375,-8 -0.375,-8 C-0.375,-8 -0.375,-10 -0.375,-10 C-0.375,-10 -10,-10 -10,-10 C-10,-10 -10,-8 -10,-8z"></path></g></g><g transform="matrix(7.8,0,0,7.8,322.0016,360.9968)" opacity="0.2" style="-webkit-user-select: none;"><g opacity="1" transform="matrix(1,0,0,1,10,5)"><path fill="rgb(35,30,33)" fill-opacity="1" d=" M-10,-3 C-10,-3 10,-3 10,-3 C10,-3 10,-5 10,-5 C10,-5 -10,-5 -10,-5 C-10,-5 -10,-3 -10,-3z"></path></g></g><g transform="matrix(7.8,0,0,7.8,321.9984,399.9968)" opacity="0.2" style="-webkit-user-select: none;"><g opacity="1" transform="matrix(1,0,0,1,10,0)"><path fill="rgb(35,30,33)" fill-opacity="1" d=" M-10,2 C-10,2 10,2 10,2 C10,2 10,0 10,0 C10,0 -10,0 -10,0 C-10,0 -10,2 -10,2z"></path></g></g><g transform="matrix(7.8,0,0,7.8,322,439.0016)" opacity="0.2" style="-webkit-user-select: none;"><g opacity="1" transform="matrix(1,0,0,1,10,-5)"><path fill="rgb(35,30,33)" fill-opacity="1" d=" M-10,7 C-10,7 10,7 10,7 C10,7 10,5 10,5 C10,5 -10,5 -10,5 C-10,5 -10,7 -10,7z"></path></g></g><g transform="matrix(7.8,0,0,7.8,322,477.9984)" opacity="0.2" style="-webkit-user-select: none;"><g opacity="1" transform="matrix(1,0,0,1,10,-10)"><path fill="rgb(35,30,33)" fill-opacity="1" d=" M-10,12 C-10,12 10,12 10,12 C10,12 10,10 10,10 C10,10 -10,10 -10,10 C-10,10 -10,12 -10,12z"></path></g></g></g></svg>