<svg xmlns="http://www.w3.org/2000/svg" width="800" height="800" viewBox="0 0 800 800" preserveAspectRatio="xMidYMid meet" style="width: 100%; height: 100%;"><defs><clipPath id="animationMask_6xn1xXfAoX"><rect width="800" height="800" x="0" y="0"></rect></clipPath></defs><g clip-path="url(#animationMask_6xn1xXfAoX)"><g transform="matrix(7.80000120656038,0,0,7.80000120656038,147.14696108842773,148.44996108842773)" opacity="1" style="-webkit-user-select: none;"><g opacity="1" transform="matrix(1,0,0,1,32.334,32.25)"><path fill="rgb(79,94,114)" fill-opacity="1" d=" M31.917,0 C31.917,17.673 17.59,32 -0.083,32 C-17.755999999999997,32 -32.083,17.673 -32.083,0 C-32.083,-17.673 -17.755999999999997,-32 -0.083,-32 C17.59,-32 31.917,-17.673 31.917,0z"></path></g></g><g style="-webkit-user-select: none; display: none;"><g><path style="display: none;"></path></g></g><g transform="matrix(7.799937699758701,0.031174988098460914,-0.031174988098460914,7.799937699758701,336.15901427284666,272.99150328795145)" opacity="1" style="-webkit-user-select: none;"><g opacity="1" transform="matrix(1,0,0,1,3.25,7.25)"><path fill="rgb(244,206,135)" fill-opacity="1" d=" M-3,7 C-3,7 3,7 3,7 C3,7 3,-7 3,-7 C3,-7 -3,-7 -3,-7 C-3,-7 -3,7 -3,7z"></path></g></g><g transform="matrix(7.799937699758701,0.031174988098460914,-0.031174988098460914,7.799937699758701,335.59641589993925,413.3888857119971)" opacity="1" style="-webkit-user-select: none; display: block;"><g opacity="1" transform="matrix(1,0,0,1,3.25,7.25)"><path fill="rgb(244,206,135)" fill-opacity="1" d=" M-3,7 C-3,7 3,7 3,7 C3,7 3,-7 3,-7 C3,-7 -3,-7 -3,-7 C-3,-7 -3,7 -3,7z" style="display: block;"></path></g></g><g transform="matrix(7.799937699758701,0.031174988098460914,-0.031174988098460914,7.799937699758701,414.1580046713233,273.3051112623823)" opacity="1" style="-webkit-user-select: none; display: block;"><g opacity="1" transform="matrix(1,0,0,1,3.25,7.25)"><path fill="rgb(244,206,135)" fill-opacity="1" d=" M-3,7 C-3,7 3,7 3,7 C3,7 3,-7 3,-7 C3,-7 -3,-7 -3,-7 C-3,-7 -3,7 -3,7z" style="display: block;"></path></g></g><g transform="matrix(7.799937699758701,0.031174988098460914,-0.031174988098460914,7.799937699758701,413.5970142728467,413.70250328795146)" opacity="1" style="-webkit-user-select: none; display: block;"><g opacity="1" transform="matrix(1,0,0,1,3.25,7.25)"><path fill="rgb(244,206,135)" fill-opacity="1" d=" M-3,7 C-3,7 3,7 3,7 C3,7 3,-7 3,-7 C3,-7 -3,-7 -3,-7 C-3,-7 -3,7 -3,7z" style="display: block;"></path></g></g><g transform="matrix(7.799940710758939,0.031175000132902753,-0.031175000132902753,7.799940710758939,305.0820200458943,241.66930685550344)" opacity="1" style="-webkit-user-select: none;"><g opacity="1" transform="matrix(1,0,0,1,12.25,20.25)"><path fill="rgb(224,153,94)" fill-opacity="1" d=" M8,-20 C8,-20 -8,-20 -8,-20 C-10.209,-20 -12,-18.209 -12,-16 C-12,-16 -12,16 -12,16 C-12,18.209 -10.209,20 -8,20 C-8,20 8,20 8,20 C10.209,20 12,18.209 12,16 C12,16 12,-16 12,-16 C12,-18.209 10.209,-20 8,-20z M-2,16 C-2,16 -8,16 -8,16 C-8,16 -8,2 -8,2 C-8,2 -2,2 -2,2 C-2,2 -2,16 -2,16z M-2,-2 C-2,-2 -8,-2 -8,-2 C-8,-2 -8,-16 -8,-16 C-8,-16 -2,-16 -2,-16 C-2,-16 -2,-2 -2,-2z M8,16 C8,16 2,16 2,16 C2,16 2,2 2,2 C2,2 8,2 8,2 C8,2 8,16 8,16z M8,-2 C8,-2 2,-2 2,-2 C2,-2 2,-16 2,-16 C2,-16 8,-16 8,-16 C8,-16 8,-2 8,-2z"></path></g></g><g style="-webkit-user-select: none; display: none;"><g><path style="display: none;"></path></g></g><g transform="matrix(7.800482710852339,0.031177166412572094,-0.031177166412572094,7.800482710852339,437.14875698057074,374.797105398889)" opacity="1" style="-webkit-user-select: none;"><g opacity="1" transform="matrix(1,0,0,1,3.25,3.25)"><path fill="rgb(244,206,135)" fill-opacity="1" d=" M3,0 C3,1.657 1.657,3 0,3 C-1.657,3 -3,1.657 -3,0 C-3,-1.657 -1.657,-3 0,-3 C1.657,-3 3,-1.657 3,0z"></path></g></g><g style="-webkit-user-select: none; display: none;"><g><path style="display: none;"></path></g></g></g></svg>