<svg xmlns="http://www.w3.org/2000/svg" width="800" height="800" viewBox="0 0 800 800" preserveAspectRatio="xMidYMid meet" style="width: 100%; height: 100%;"><defs><clipPath id="animationMask_j8Xc7IoS3e"><rect width="800" height="800" x="0" y="0"></rect></clipPath></defs><g clip-path="url(#animationMask_j8Xc7IoS3e)"><g transform="matrix(7.802383846934649,0,0,7.802383846934649,148.37312093635757,148.37312093635757)" opacity="1" style="-webkit-user-select: none;"><g opacity="1" transform="matrix(1,0,0,1,32.25,32.25)"><path fill="rgb(198,91,91)" fill-opacity="1" d=" M32,0 C32,17.673 17.673,32 0,32 C-17.673,32 -32,17.673 -32,0 C-32,-17.673 -17.673,-32 0,-32 C17.673,-32 32,-17.673 32,0z"></path></g></g><g style="-webkit-user-select: none; display: none;"><g><path style="display: none;"></path></g></g><g transform="matrix(7.802644230435452,-0.03826740165781457,0.03826740165781457,7.802644230435452,210.11496146920425,264.2111782455044)" opacity="1" style="-webkit-user-select: none;"><g opacity="1" transform="matrix(1,0,0,1,24.25,15.886)"><path fill="rgb(255,255,255)" fill-opacity="1" d=" M16,-0.363 C16,-6.832000000000001 12.152999999999999,-12.391 6.63,-14.913 C4.904,-15.637 4,-14.318 4,-13.247 C4,-13.247 4,-4.747 4,-4.747 C4,-3.919 4.672,-3.363 5.5,-3.363 C5.5,-3.363 8.561,-3.363 8.561,-3.363 C10.033,-3.363 10.443999999999999,-2.2359999999999998 9.475,-1.001 C9.475,-1.001 1.762,8.827 1.762,8.827 C0.793,10.061 -0.793,10.061 -1.762,8.827 C-1.762,8.827 -9.475,-1.001 -9.475,-1.001 C-10.443999999999999,-2.2359999999999998 -10.033,-3.363 -8.561,-3.363 C-8.561,-3.363 -5.5,-3.363 -5.5,-3.363 C-4.672,-3.363 -4,-3.919 -4,-4.747 C-4,-4.747 -4,-13.247 -4,-13.247 C-4,-14.352 -5.504,-15.389999999999999 -6.753,-14.857 C-6.755,-14.856 -6.758,-14.857999999999999 -6.76,-14.857 C-11.071,-12.837 -14.332999999999998,-8.953 -15.508,-4.238 C-20.313,-3.5100000000000007 -24,0.6279999999999992 -24,5.637 C-24,11.16 -19.523,15.637 -14,15.637 C-14,15.637 16,15.637 16,15.637 C20.418,15.637 24,12.055 24,7.637 C24,3.2189999999999994 20.418,-0.363 16,-0.363z"></path></g></g><g style="-webkit-user-select: none; display: none;"><g><path style="display: none;"></path></g></g></g></svg>