<svg xmlns="http://www.w3.org/2000/svg" width="800" height="800" viewBox="0 0 800 800" preserveAspectRatio="xMidYMid meet" style="width: 100%; height: 100%;"><defs><clipPath id="animationMask_J1R4j7YbRX"><rect width="800" height="800" x="0" y="0"></rect></clipPath></defs><g clip-path="url(#animationMask_J1R4j7YbRX)"><g transform="matrix(7.799999941865395,0,0,7.799999941865395,148.450001874841,148.450001874841)" opacity="1" style="-webkit-user-select: none;"><g opacity="1" transform="matrix(1,0,0,1,32.25,32.25)"><path fill="rgb(117,193,175)" fill-opacity="1" d=" M-32,0 C-32,-17.673 -17.673,-32 0,-32 C17.673,-32 32,-17.673 32,0 C32,17.673 17.673,32 0,32 C-17.673,32 -32,17.673 -32,0z"></path></g></g><g style="-webkit-user-select: none; display: none;"><g><path style="display: none;"></path></g></g><g transform="matrix(7.8,0,0,7.8,335.65,242.0496)" opacity="1" style="-webkit-user-select: none;"><g opacity="1" transform="matrix(1,0,0,1,8.25,16.25)"><path fill="rgb(255,255,255)" fill-opacity="1" d=" M-8,-12 C-8,-14.209 -6.209,-16 -4,-16 C-4,-16 4,-16 4,-16 C6.209,-16 8,-14.209 8,-12 C8,-12 8,12 8,12 C8,14.209 6.209,16 4,16 C4,16 -4,16 -4,16 C-6.209,16 -8,14.209 -8,12 C-8,12 -8,-12 -8,-12z"></path></g></g><g transform="matrix(7.8,0,0,7.8,247.34519999999998,366.8508)" opacity="1" style="-webkit-user-select: none;"><g opacity="1" transform="matrix(1,0,0,1,19.571,12.535)"><path fill="rgb(255,255,255)" fill-opacity="1" d=" M15.839,-12.285 C18.561,-12.285 19.320999999999998,-10.42 17.528,-8.14 C17.528,-8.14 3.26,10.005 3.26,10.005 C1.4669999999999999,12.285 -1.466,12.285 -3.259,10.005 C-3.259,10.005 -17.528,-8.14 -17.528,-8.14 C-19.320999999999998,-10.42 -18.56,-12.285 -15.838,-12.285 C-15.838,-12.285 15.839,-12.285 15.839,-12.285z"></path></g></g><g></g></g></svg>