<svg xmlns="http://www.w3.org/2000/svg" width="800" height="800" viewBox="0 0 800 800" preserveAspectRatio="xMidYMid meet" style="width: 100%; height: 100%;"><defs><clipPath id="animationMask_3D8h1VkHy4"><rect width="800" height="800" x="0" y="0"></rect></clipPath></defs><g clip-path="url(#animationMask_3D8h1VkHy4)"><g transform="matrix(7.8,0,0,7.8,148.45000000000002,148.45000000000002)" opacity="1" style="-webkit-user-select: none;"><g opacity="1" transform="matrix(1,0,0,1,32.25,32.25)"><path fill="rgb(119,178,211)" fill-opacity="1" d=" M32,0 C32,17.673 17.673,32 0,32 C-17.673,32 -32,17.673 -32,0 C-32,-17.673 -17.673,-32 0,-32 C17.673,-32 32,-17.673 32,0z"></path></g></g><g style="-webkit-user-select: none; display: none;"><g><path style="display: none;"></path></g></g><g transform="matrix(7.749157535718692,0.8891329971462167,-0.8891329971462167,7.749157535718692,247.36445401676244,208.47303564375582)" opacity="1" style="-webkit-user-select: none;"><g opacity="1" transform="matrix(1,0,0,1,21.243,7.065)"><path fill="rgb(255,255,255)" fill-opacity="1" d=" M0.875,0.635 C1.508,0.255 1.5619999999999998,0.772 2.11,-0.978 C2.66,-2.7279999999999998 0.051000000000000156,-2.969 -1.184,-2.763 C-2.419,-2.557 -1.871,-2.042 -1.871,-2.042 C-1.458,-1.3899999999999997 -1.1869999999999998,1.013 -1.924,1.905 C-2.66,2.797 -1.321,2.969 -0.738,2.145 C-0.15500000000000003,1.3210000000000002 0.19099999999999995,1.046 0.875,0.635z"></path></g><g opacity="1" transform="matrix(1,0,0,1,22.25,22.25)"><path fill="rgb(255,255,255)" fill-opacity="1" d=" M0,-22 C-12.15,-22 -22,-12.15 -22,0 C-22,12.151 -12.15,22 0,22 C12.15,22 22,12.151 22,0 C22,-12.15 12.15,-22 0,-22z M-17.947,-9.193 C-17.737,-8.35 -18.157,-6.834 -18.481,-4.656 C-18.858,-2.1159999999999997 -16.833000000000002,-2.665 -16.902,-0.263 C-16.971,2.1390000000000002 -15.117,3.135 -15.358,3.375 C-15.598,3.616 -16.559,3.958 -15.117,7.081 C-13.676,10.205 -12.441,11.131 -12.269,12.813 C-12.097,14.495000000000001 -10.244,16.965 -10.244,16.965 C-10.244,16.965 -10.141,17.427 -10.141,17.427 C-16.134999999999998,13.926 -20.173,7.428 -20.173,0 C-20.173,-3.311 -19.366,-6.435 -17.947,-9.193z M-7.979,17.892 C-8.082,17.447 -7.876,15.043 -4.993,14.083 C-2.1100000000000003,13.122 -2.591,11.852 -1.733,10.617 C-0.8750000000000001,9.381 -0.7030000000000001,8.453999999999999 -2.351,8.078 C-3.998,7.699999999999999 -5.714,7.425000000000001 -7.19,5.091 C-8.665000000000001,2.757 -10.725,2.6879999999999997 -11.823,1.968 C-12.921000000000001,1.2469999999999999 -13.812999999999999,1.3840000000000001 -15.152,1.213 C-16.49,1.0410000000000001 -16.044,-2.7 -15.975,-3.523 C-15.907,-4.347 -16.799,-3.249 -17.451,-3.819 C-18.103,-4.391 -16.833,-7.058 -15.564,-6.955 C-14.294,-6.852 -14.603,-6.234 -14.362,-4.828 C-14.122,-3.4200000000000004 -13.676,-3.764 -13.573,-4.21 C-13.47,-4.656 -13.401,-6.544 -12.955,-7.127 C-12.509,-7.71 -12.406,-9.289 -10.965,-9.221 C-9.523,-9.151 -9.558,-10.525 -8.494,-10.079 C-7.43,-9.631 -6.675,-9.975999999999999 -7.361,-10.559 C-8.048,-11.142 -7.67,-11.726 -6.503,-11.348 C-5.336,-10.971 -5.268,-13.029 -5.474,-14.094 C-5.680000000000001,-15.158 -6.538,-15.466 -7.601,-14.815 C-8.665,-14.163 -9.455,-14.437 -8.906,-15.535 C-8.356,-16.633 -6.194,-15.706999999999999 -4.89,-15.158 C-3.5859999999999994,-14.607999999999999 -3.243,-16.599 -3.964,-17.56 C-4.684,-18.520999999999997 -4.718999999999999,-18.075 -6.778,-17.938 C-7.598,-17.881999999999998 -7.513999999999999,-18.323 -7.116,-18.873 C-4.901999999999999,-19.711000000000002 -2.504,-20.172 0,-20.172 C2.535,-20.172 4.96,-19.698999999999998 7.197,-18.84 C7.479,-18.448 7.593,-18.137 7.396,-18.005 C6.573,-17.457 5.853,-17.945999999999998 6.092,-16.415 C6.332,-14.882 7.464999999999999,-13.062999999999999 8.357,-13.664 C9.25,-14.266 10.794,-13.51 9.455,-12.687 C8.117,-11.862 7.739,-11.932 7.122,-11.382 C6.504,-10.834 6.778,-11.107999999999999 7.396,-10.421 C8.014,-9.734 7.944999999999999,-9.597999999999999 7.087,-9.254 C6.229,-8.911999999999999 5.715,-8.157 6.538,-7.298 C7.362,-6.441 7.911,-5.72 8.838,-7.298 C9.764,-8.877 9.937,-10.25 10.725,-9.837 C11.515,-9.424999999999999 12.407,-8.157 12.99,-8.877 C13.574,-9.598 13.471,-10.079 14.26,-9.528 C15.05,-8.98 17.967000000000002,-8.945 16.01,-7.504 C14.054000000000002,-6.063 14.397,-5.444 13.471,-5.617 C12.544,-5.789 8.357,-6.681000000000001 7.396,-4.347 C6.436,-2.0130000000000003 2.9359999999999995,-0.16000000000000014 4.754,2.106 C6.5729999999999995,4.371 6.161,6.017 8.77,6.362 C11.376999999999999,6.704 12.716000000000001,5.538 13.368,6.739 C14.021,7.9399999999999995 13.504999999999999,8.078000000000001 13.539,9.896 C13.556,10.797 14.037,12.497 14.519,13.986 C10.846,17.795 5.697,20.173 0,20.173 C-2.869,20.173 -5.597,19.568 -8.07,18.484 C-7.997,18.200000000000003 -7.958,17.983999999999998 -7.979,17.892z"></path></g></g><g style="-webkit-user-select: none; display: none;"><g><path style="display: none;"></path></g><g><path style="display: none;"></path></g></g></g></svg>