<svg xmlns="http://www.w3.org/2000/svg" width="800" height="800" viewBox="0 0 800 800" preserveAspectRatio="xMidYMid meet" style="width: 100%; height: 100%;"><defs><clipPath id="animationMask_YpBv5OKGAH"><rect width="800" height="800" x="0" y="0"></rect></clipPath></defs><g clip-path="url(#animationMask_YpBv5OKGAH)"><g transform="matrix(7.800000001025642,0,0,7.800000001025642,148.44999996692306,148.44999996692306)" opacity="1" style="-webkit-user-select: none;"><g opacity="1" transform="matrix(1,0,0,1,32.25,32.25)"><path fill="rgb(119,178,211)" fill-opacity="1" d=" M32,0 C32,17.673 17.673,32 0,32 C-17.673,32 -32,17.673 -32,0 C-32,-17.673 -17.673,-32 0,-32 C17.673,-32 32,-17.673 32,0z"></path></g></g><g style="-webkit-user-select: none; display: none;"><g><path style="display: none;"></path></g></g><g transform="matrix(7.799999969973326,0,0,7.799999969973326,242.05000060804014,242.05000060804014)" opacity="1" style="-webkit-user-select: none;"><g opacity="1" transform="matrix(1,0,0,1,20.25,20.25)"><path fill="rgb(255,255,255)" fill-opacity="1" d=" M20,0 C20,11.046 11.046,20 0,20 C-11.046,20 -20,11.046 -20,0 C-20,-11.046 -11.046,-20 0,-20 C11.046,-20 20,-11.046 20,0z"></path></g></g><g style="-webkit-user-select: none; display: none;"><g><path style="display: none;"></path></g></g><g transform="matrix(7.7999999078792905,0,0,7.7999999078792905,304.4500011284787,304.4500011284787)" opacity="1" style="-webkit-user-select: none;"><g opacity="1" transform="matrix(1,0,0,1,12.25,12.25)"><path fill="rgb(117,193,175)" fill-opacity="1" d=" M12,0 C12,6.627 6.627,12 0,12 C-6.627,12 -12,6.627 -12,0 C-12,-6.627 -6.627,-12 0,-12 C6.627,-12 12,-6.627 12,0z"></path></g></g><g style="-webkit-user-select: none; display: none;"><g><path style="display: none;"></path></g></g><g transform="matrix(7.8000002629004,0,0,7.8000002629004,370.8279988826733,345.97599888267325)" opacity="1" style="-webkit-user-select: none;"><g opacity="1" transform="matrix(1,0,0,1,4.25,4.25)"><path fill="rgb(79,94,114)" fill-opacity="1" d=" M4,0 C4,2.209 2.209,4 0,4 C-2.209,4 -4,2.209 -4,0 C-4,-2.209 -2.209,-4 0,-4 C2.209,-4 4,-2.209 4,0z"></path></g></g><g style="-webkit-user-select: none; display: none;"><g><path style="display: none;"></path></g></g><g transform="matrix(7.800002173787028,0,0,7.800002173787028,406.5016690408888,347.20973395363694)" opacity="1" style="-webkit-user-select: none;"><g opacity="1" transform="matrix(1,0,0,1,2.25,2.25)"><path fill="rgb(255,255,255)" fill-opacity="1" d=" M2,0 C2,1.105 1.105,2 0,2 C-1.105,2 -2,1.105 -2,0 C-2,-1.105 -1.105,-2 0,-2 C1.105,-2 2,-1.105 2,0z"></path></g></g><g style="-webkit-user-select: none; display: none;"><g><path style="display: none;"></path></g></g><g transform="matrix(7.8000011247525975,0,0,7.8000011247525975,445.1978858053634,291.63633187852327)" opacity="1" style="-webkit-user-select: none;"><g opacity="1" transform="matrix(1,0,0,1,4.25,4.25)"><path fill="rgb(255,255,255)" fill-opacity="1" d=" M4,0 C4,2.209 2.209,4 0,4 C-2.209,4 -4,2.209 -4,0 C-4,-2.209 -2.209,-4 0,-4 C2.209,-4 4,-2.209 4,0z"></path></g></g><g style="-webkit-user-select: none; display: none;"><g><path style="display: none;"></path></g></g></g></svg>