<svg xmlns="http://www.w3.org/2000/svg" width="800" height="800" viewBox="0 0 800 800" preserveAspectRatio="xMidYMid meet" style="width: 100%; height: 100%;"><defs><clipPath id="animationMask_lBxRH2sXbS"><rect width="800" height="800" x="0" y="0"></rect></clipPath><filter id="ZEggs4vBup" filterUnits="objectBoundingBox" x="0%" y="0%" width="100%" height="100%"><feColorMatrix type="matrix" color-interpolation-filters="sRGB" values="1 0 0 0 0 0 1 0 0 0 0 0 1 0 0 0 0 0 1 0"></feColorMatrix></filter><filter id="5jzRt7np6X" filterUnits="objectBoundingBox" x="0%" y="0%" width="100%" height="100%"><feColorMatrix type="matrix" color-interpolation-filters="sRGB" values="0 0 0 0 1 0 0 0 0 1 0 0 0 0 1 0 0 0 1 0"></feColorMatrix></filter></defs><g clip-path="url(#animationMask_lBxRH2sXbS)"><g transform="matrix(7.8,0,0,7.8,148.45000000000002,148.45000000000002)" opacity="1" style="-webkit-user-select: none;"><g opacity="1" transform="matrix(1,0,0,1,32.25,32.25)"><path fill="rgb(198,91,91)" fill-opacity="1" d=" M32,0 C32,17.673 17.673,32 0,32 C-17.673,32 -32,17.673 -32,0 C-32,-17.673 -17.673,-32 0,-32 C17.673,-32 32,-17.673 32,0z"></path></g></g><g style="-webkit-user-select: none; display: none;"><g><path style="display: none;"></path></g></g><g filter="url(#5jzRt7np6X)" transform="matrix(7.796863126819307,0.22119082631395168,-0.22119082631395168,7.796863126819307,245.7122654785419,268.7800548901554)" opacity="1" style="-webkit-user-select: none;"><g opacity="1" transform="matrix(1,0,0,1,6.288,30.231)"><path fill="rgb(255,255,255)" fill-opacity="1" d=" M2,0 C2,1.105 1.105,2 0,2 C-1.105,2 -2,1.105 -2,0 C-2,-1.105 -1.105,-2 0,-2 C1.105,-2 2,-1.105 2,0z"></path></g><g opacity="1" transform="matrix(1,0,0,1,20.44,16.25)"><path fill="rgb(255,255,255)" fill-opacity="1" d=" M-16.189,-16 C-16.189,-16 -20.189,-12 -20.189,-8 C-20.189,-4 -16.189,2 -16.189,14 C-16.189,14 -12.189,14 -12.189,14 C-12.189,14 -12.189,0 -12.189,0 C-12.189,0 -8.189,0 -4.189,8 C-0.18900000000000006,16 3.811,16 7.811,16 C11.811,16 19.811,15.812 19.811,14.312 C19.811,12.567 20.189999999999998,11.022 17.999,9.375 C15.979999999999999,7.859 9.622,5.187 9.622,5.187 C9.622,5.187 2.6229999999999993,10.625 -4.376,-0.812 C-12.474,-14.043 -16.189,-16 -16.189,-16z"></path></g></g><g filter="url(#ZEggs4vBup)" style="-webkit-user-select: none; display: none;"><g><path style="display: none;"></path></g><g><path style="display: none;"></path></g></g></g></svg>