<svg xmlns="http://www.w3.org/2000/svg" width="800" height="800" viewBox="0 0 800 800" preserveAspectRatio="xMidYMid meet" style="width: 100%; height: 100%;"><defs><clipPath id="animationMask_EJJ4oI8OQ7"><rect width="800" height="800" x="0" y="0"></rect></clipPath></defs><g clip-path="url(#animationMask_EJJ4oI8OQ7)"><g transform="matrix(7.8,0,0,7.8,148.45000000000002,148.45000000000002)" opacity="1" style="-webkit-user-select: none;"><g opacity="1" transform="matrix(1,0,0,1,32.25,32.25)"><path fill="rgb(198,91,91)" fill-opacity="1" d=" M32,0 C32,17.673 17.673,32 0,32 C-17.673,32 -32,17.673 -32,0 C-32,-17.673 -17.673,-32 0,-32 C17.673,-32 32,-17.673 32,0z"></path></g></g><g style="-webkit-user-select: none; display: none;"><g><path style="display: none;"></path></g></g><g transform="matrix(7.787455030347321,0.44220374299434456,-0.44220374299434456,7.787455030347321,242.1033396183045,224.24063426128987)" opacity="1" style="-webkit-user-select: none;"><g opacity="1" transform="matrix(1,0,0,1,21.431,20.351)"><path fill="rgb(244,206,135)" fill-opacity="1" d=" M20.872,-4.937 C20.562,-5.888 19.739,-6.582000000000001 18.751,-6.727 C18.751,-6.727 7.424,-8.372 7.424,-8.372 C7.424,-8.372 2.357,-18.635 2.357,-18.635 C1.9130000000000003,-19.534000000000002 1.0010000000000001,-20.101 -0.001,-20.101 C-1.0019999999999998,-20.101 -1.9130000000000003,-19.534000000000002 -2.357,-18.635 C-2.357,-18.635 -7.423,-8.372 -7.423,-8.372 C-7.423,-8.372 -18.749,-6.727 -18.749,-6.727 C-19.74,-6.582000000000001 -20.562,-5.888 -20.87,-4.937 C-21.18,-3.986 -20.923,-2.9419999999999997 -20.206,-2.243 C-20.206,-2.243 -12.008,5.746 -12.008,5.746 C-12.008,5.746 -13.943,17.029 -13.943,17.029 C-14.110999999999999,18.015 -13.706000000000001,19.011 -12.896,19.599 C-12.441,19.933 -11.901,20.101 -11.354,20.101 C-10.936,20.101 -10.516,20.002 -10.132,19.799 C-10.132,19.799 -0.001,14.472 -0.001,14.472 C-0.001,14.472 10.132,19.799 10.132,19.799 C10.516,20.002 10.936,20.101 11.354,20.101 C11.898,20.101 12.440999999999999,19.933 12.898,19.599 C13.708,19.011 14.113,18.015 13.945,17.029 C13.945,17.029 12.01,5.746 12.01,5.746 C12.01,5.746 20.208,-2.243 20.208,-2.243 C20.923,-2.94 21.18,-3.986 20.872,-4.937z"></path></g></g><g style="-webkit-user-select: none; display: none;"><g><path style="display: none;"></path></g></g></g></svg>