<svg xmlns="http://www.w3.org/2000/svg" width="800" height="800" viewBox="0 0 800 800" preserveAspectRatio="xMidYMid meet" style="width: 100%; height: 100%;"><defs><clipPath id="animationMask_39UsPSc930"><rect width="800" height="800" x="0" y="0"></rect></clipPath></defs><g clip-path="url(#animationMask_39UsPSc930)"><g transform="matrix(7.799994216503801,0,0,7.799994216503801,148.4501865177524,148.4501865177524)" opacity="1" style="-webkit-user-select: none;"><g opacity="1" transform="matrix(1,0,0,1,32.25,32.25)"><path fill="rgb(198,91,91)" fill-opacity="1" d=" M32,0 C32,17.673 17.673,32 0,32 C-17.673,32 -32,17.673 -32,0 C-32,-17.673 -17.673,-32 0,-32 C17.673,-32 32,-17.673 32,0z"></path></g></g><g style="-webkit-user-select: none; display: none;"><g><path style="display: none;"></path></g></g><g transform="matrix(7.8,0,0,7.8,242.54139999999998,211.09319999999997)" opacity="1" style="-webkit-user-select: none;"><g opacity="1" transform="matrix(1,0,0,1,20.187,24.294)"><path fill="rgb(244,206,135)" fill-opacity="1" d=" M-3.875,23.986 C-3.875,23.986 -19.937,21.609 -19.937,7.924 C-19.937,-5.762 -0.18260000000000054,-7.764399999999999 -2.8138,-24.044 C-2.8138,-24.044 10.339,-18.449 8.304,-3.799 C8.304,-3.799 10.384,-5.127 11.975,-7.712 C11.975,-7.712 19.937,-1.5620000000000003 19.937,7.799 C19.937,17.159 9.1692,23.9552 3.9402,23.8902 C3.9402,23.8902 9.1976,15.990200000000002 4.0645999999999995,11.0792 C-3.2214,4.1072 -0.5128,-0.1253 -0.5128,-0.1253 C-0.5128,-0.1253 -15.875999999999998,8.861 -3.875,23.986z"></path></g></g></g></svg>