<svg xmlns="http://www.w3.org/2000/svg" width="800" height="800" viewBox="0 0 800 800" preserveAspectRatio="xMidYMid meet" style="width: 100%; height: 100%;"><defs><clipPath id="animationMask_r6l9pT4hIo"><rect width="800" height="800" x="0" y="0"></rect></clipPath></defs><g clip-path="url(#animationMask_r6l9pT4hIo)"><g transform="matrix(7.799994163490225,0,0,7.799994163490225,147.14718822744027,148.45018822744026)" opacity="1" style="-webkit-user-select: none;"><g opacity="1" transform="matrix(1,0,0,1,32.334,32.25)"><path fill="rgb(224,224,209)" fill-opacity="1" d=" M31.917,0 C31.917,17.673 17.59,32 -0.083,32 C-17.755999999999997,32 -32.083,17.673 -32.083,0 C-32.083,-17.673 -17.755999999999997,-32 -0.083,-32 C17.59,-32 31.917,-17.673 31.917,0z"></path></g></g><g style="-webkit-user-select: none; display: none;"><g><path style="display: none;"></path></g></g><g transform="matrix(7.799928106622116,0.033489274795559305,-0.033489274795559305,7.799928106622116,274.5048302999148,257.57203307923425)" opacity="1" style="-webkit-user-select: none;"><g opacity="1" transform="matrix(1,0,0,1,2.25,19.25)"><path fill="rgb(224,153,94)" fill-opacity="1" d=" M2,17 C2,18.105 1.105,19 0,19 C-1.105,19 -2,18.105 -2,17 C-2,17 -2,-17 -2,-17 C-2,-18.105 -1.105,-19 0,-19 C1.105,-19 2,-18.105 2,-17 C2,-17 2,17 2,17z"></path></g></g><g transform="matrix(7.799928106622116,0.033489274795559305,-0.033489274795559305,7.799928106622116,296.2320019737778,274.4654718404688)" opacity="1" style="-webkit-user-select: none;"><g opacity="1" transform="matrix(1,0,0,1,10.25,10.25)"><path fill="rgb(198,91,91)" fill-opacity="1" d=" M7,-10 C7,-10 -7,-10 -7,-10 C-8.657,-10 -10,-8.657 -10,-7 C-10,-7 -10,6 -10,6 C-10,6 -10,7 -10,7 C-10,8.657 -8.657,10 -7,10 C-7,10 7,10 7,10 C8.657,10 10,8.657 10,7 C10,7 10,-7 10,-7 C9.936,-9.699 10.689,-10.051 7,-10z"></path></g></g><g transform="matrix(7.799928106622116,0.033489274795559305,-0.033489274795559305,7.799928106622116,411.909763250642,278.94095656974764)" opacity="1" style="-webkit-user-select: none; display: block;"><g opacity="1" transform="matrix(1,0,0,1,2.837,2.304)"><path fill="rgb(117,193,175)" fill-opacity="1" d=" M2.587,1.602 C2.587,1.602 2.587,-2.053 2.587,-2.053 C2.5690000000000004,-1.1589999999999998 -1.3160000000000003,1.222 -2.587,2.053 C-2.1310000000000002,1.7719999999999998 -1.5979999999999999,1.602 -1.022,1.602 C-1.022,1.602 2.587,1.602 2.587,1.602z" style="display: block;"></path></g></g><g transform="matrix(7.799928106622116,0.033489274795559305,-0.033489274795559305,7.799928106622116,400.59200197377777,307.41347184046884)" opacity="1" style="-webkit-user-select: none; display: block;"><g opacity="1" transform="matrix(1,0,0,1,10.25,10.25)"><path fill="rgb(198,91,91)" fill-opacity="1" d=" M7,-10 C7,-10 -7,-10 -7,-10 C-8.657,-10 -10,-8.657 -10,-7 C-10,-7 -10,6 -10,6 C-10,6 -10,7 -10,7 C-10,8.657 -8.657,10 -7,10 C-7,10 7,10 7,10 C8.657,10 10,8.657 10,7 C10,7 10,-7 10,-7 C10,-8.657 8.657,-10 7,-10z" style="display: block;"></path></g></g><g transform="matrix(7.799864307173309,0.03348900087030721,-0.03348900087030721,7.799864307173309,266.77128025451526,241.93860174885825)" opacity="1" style="-webkit-user-select: none;"><g opacity="1" transform="matrix(1,0,0,1,3.25,3.25)"><path fill="rgb(224,153,94)" fill-opacity="1" d=" M3,0 C3,1.657 1.657,3 0,3 C-1.657,3 -3,1.657 -3,0 C-3,-1.657 -1.657,-3 0,-3 C1.657,-3 3,-1.657 3,0z"></path></g></g><g style="-webkit-user-select: none; display: none;"><g><path style="display: none;"></path></g></g></g></svg>