<svg xmlns="http://www.w3.org/2000/svg" width="800" height="800" viewBox="0 0 800 800" preserveAspectRatio="xMidYMid meet" style="width: 100%; height: 100%;"><defs><clipPath id="animationMask_Sk5RntwhRA"><rect width="800" height="800" x="0" y="0"></rect></clipPath></defs><g clip-path="url(#animationMask_Sk5RntwhRA)"><g transform="matrix(7.800000264841972,0,0,7.800000264841972,148.4499914588464,148.4499914588464)" opacity="1" style="-webkit-user-select: none;"><g opacity="1" transform="matrix(1,0,0,1,32.25,32.25)"><path fill="rgb(224,153,94)" fill-opacity="1" d=" M32,0 C32,17.673 17.673,32 0,32 C-17.673,32 -32,17.673 -32,0 C-32,-17.673 -17.673,-32 0,-32 C17.673,-32 32,-17.673 32,0z"></path></g></g><g style="-webkit-user-select: none; display: none;"><g><path style="display: none;"></path></g></g><g transform="matrix(7.798016985148996,0.1758723950134555,-0.1758723950134555,7.798016985148996,400.84011596510425,276.2368839043731)" opacity="1" style="-webkit-user-select: none;"><g opacity="1" transform="matrix(1,0,0,1,10.25,2.711)"><path fill="rgb(224,224,209)" fill-opacity="1" d=" M10,0.001 C10,-1.358 8.879999999999999,-2.462 7.5,-2.462 C7.5,-2.462 -5,-2.462 -5,-2.462 C-6.38,-2.462 -7.5,-1.358 -7.5,0.001 C-7.5,0.001 -7.825,2.258 -10,2.462 C-10,2.462 10,2.462 10,2.462 C10,2.462 10,0.001 10,0.001z"></path></g></g><g transform="matrix(7.798016985148996,0.1758723950134555,-0.1758723950134555,7.798016985148996,244.0826788148495,308.10962115566747)" opacity="1" style="-webkit-user-select: none;"><g opacity="1" transform="matrix(1,0,0,1,20.25,13.789)"><path fill="rgb(255,255,255)" fill-opacity="1" d=" M0,-13.538 C0,-13.538 -0.417,-13.538 -0.417,-13.538 C-0.417,-13.538 -17.5,-13.538 -17.5,-13.538 C-18.88,-13.538 -20,-12.476 -20,-11.117 C-20,-11.117 -20,11.077 -20,11.077 C-20,12.437 -18.88,13.538 -17.5,13.538 C-17.5,13.538 17.5,13.538 17.5,13.538 C18.88,13.538 20,12.437 20,11.077 C20,11.077 20,-8.615 20,-8.615 C20,-8.615 20,-11.117 20,-11.117 C20,-11.117 20,-13.538 20,-13.538 C20,-13.538 0,-13.538 0,-13.538z"></path></g></g></g></svg>