<svg xmlns="http://www.w3.org/2000/svg" width="800" height="800" viewBox="0 0 800 800" preserveAspectRatio="xMidYMid meet" style="width: 100%; height: 100%;"><defs><clipPath id="animationMask_bq456n2yJx"><rect width="800" height="800" x="0" y="0"></rect></clipPath></defs><g clip-path="url(#animationMask_bq456n2yJx)"><g transform="matrix(7.800000001522148,0,0,7.800000001522148,148.44999995091075,148.44999995091075)" opacity="1" style="-webkit-user-select: none;"><g opacity="1" transform="matrix(1,0,0,1,32.25,32.25)"><path fill="rgb(117,193,175)" fill-opacity="1" d=" M-32,-32 C-32,-32 32,-32 32,-32 C32,-32 32,32 32,32 C32,32 -32,32 -32,32 C-32,32 -32,-32 -32,-32z M-32,32 C-32,32 32,32 32,32 C32,32 32,-32 32,-32 C32,-32 -32,-32 -32,-32 C-32,-32 -32,32 -32,32z M32,0 C32,17.673 17.673,32 0,32 C-17.673,32 -32,17.673 -32,0 C-32,-17.673 -17.673,-32 0,-32 C17.673,-32 32,-17.673 32,0z"></path><g opacity="1" transform="matrix(1,0,0,1,0,0)"></g></g></g><g style="-webkit-user-select: none; display: none;"><g><path style="display: none;"></path><g></g></g></g><g transform="matrix(1.7449109523445168,7.602321080032464,-7.602321080032464,1.7449109523445168,530.3273753410568,192.02408727961216)" opacity="1" style="-webkit-user-select: none;"><g opacity="1" transform="matrix(1,0,0,1,22.314,22.186)"><path fill="rgb(79,94,114)" fill-opacity="1" d=" M-4.5,0 C-4.5,2.485 -2.485,4.5 0,4.5 C2.485,4.5 4.5,2.485 4.5,0 C4.5,-2.485 2.485,-4.5 0,-4.5 C-2.485,-4.5 -4.5,-2.485 -4.5,0z"></path></g><g opacity="1" transform="matrix(1,0,0,1,22.25,22.25)"><path fill="rgb(255,255,255)" fill-opacity="1" d=" M21.947,-1.427 C21.899,-1.9740000000000002 21.436,-2.574 20.918,-2.758 C20.918,-2.758 16.79,-4.227 16.79,-4.227 C16.272,-4.4110000000000005 15.700999999999999,-4.987 15.52,-5.507 C15.52,-5.507 14.868,-7.087 14.868,-7.087 C14.63,-7.583 14.628,-8.395 14.864,-8.892 C14.864,-8.892 16.739,-12.836 16.739,-12.836 C16.975,-13.333 16.868000000000002,-14.074 16.501,-14.484 C16.501,-14.484 14.484,-16.501 14.484,-16.501 C14.074,-16.868000000000002 13.333,-16.975 12.836,-16.739 C12.836,-16.739 8.892,-14.864 8.892,-14.864 C8.395,-14.628 7.583,-14.63 7.087,-14.868 C7.087,-14.868 5.507,-15.519 5.507,-15.519 C4.987,-15.7 4.4110000000000005,-16.272 4.227,-16.79 C4.227,-16.79 2.758,-20.918 2.758,-20.918 C2.574,-21.436 1.9740000000000002,-21.899 1.427,-21.947 C1.427,-21.947 0.82,-22 0,-22 C-0.82,-22 -1.427,-21.947 -1.427,-21.947 C-1.9740000000000002,-21.899 -2.574,-21.436 -2.758,-20.918 C-2.758,-20.918 -4.227,-16.79 -4.227,-16.79 C-4.4110000000000005,-16.272 -4.987,-15.7 -5.507,-15.519 C-5.507,-15.519 -7.085,-14.868 -7.085,-14.868 C-7.58,-14.63 -8.392,-14.628 -8.889,-14.864 C-8.889,-14.864 -12.836,-16.739 -12.836,-16.739 C-13.333,-16.975 -14.074,-16.868000000000002 -14.484,-16.501 C-14.484,-16.501 -16.501,-14.484 -16.501,-14.484 C-16.868000000000002,-14.074 -16.975,-13.333 -16.739,-12.836 C-16.739,-12.836 -14.864,-8.892 -14.864,-8.892 C-14.628,-8.395 -14.63,-7.583 -14.868,-7.087 C-14.868,-7.087 -15.519,-5.507 -15.519,-5.507 C-15.7,-4.987 -16.272,-4.4110000000000005 -16.79,-4.227 C-16.79,-4.227 -20.918,-2.758 -20.918,-2.758 C-21.436,-2.574 -21.899,-1.9740000000000002 -21.947,-1.427 C-21.947,-1.427 -22,-0.82 -22,0 C-22,0.819 -21.947,1.427 -21.947,1.427 C-21.899,1.9740000000000002 -21.436,2.574 -20.918,2.758 C-20.918,2.758 -16.788,4.227 -16.788,4.227 C-16.269000000000002,4.4110000000000005 -15.697999999999999,4.987 -15.517,5.507 C-15.517,5.507 -14.865,7.087 -14.865,7.087 C-14.627,7.583 -14.625,8.395 -14.861,8.892 C-14.861,8.892 -16.736,12.836 -16.736,12.836 C-16.972,13.333 -16.865000000000002,14.074 -16.498,14.484 C-16.498,14.484 -14.481,16.501 -14.481,16.501 C-14.071,16.868000000000002 -13.33,16.975 -12.833,16.739 C-12.833,16.739 -8.889,14.864 -8.889,14.864 C-8.392,14.628 -7.58,14.63 -7.085,14.868 C-7.085,14.868 -5.504,15.519 -5.504,15.519 C-4.984,15.7 -4.409,16.272 -4.224,16.79 C-4.224,16.79 -2.755,20.92 -2.755,20.92 C-2.5709999999999997,21.439 -1.972,21.901 -1.424,21.948 C-1.424,21.948 -0.82,22 0,22 C0.82,22 1.427,21.947 1.427,21.947 C1.9740000000000002,21.899 2.574,21.436 2.758,20.918 C2.758,20.918 4.227,16.788 4.227,16.788 C4.4110000000000005,16.269000000000002 4.987,15.697999999999999 5.507,15.517 C5.507,15.517 7.087,14.865 7.087,14.865 C7.583,14.627 8.395,14.625 8.892,14.861 C8.892,14.861 12.836,16.736 12.836,16.736 C13.333,16.972 14.074,16.865000000000002 14.484,16.498 C14.484,16.498 16.501,14.481 16.501,14.481 C16.868000000000002,14.071 16.975,13.33 16.739,12.833 C16.739,12.833 14.864,8.889 14.864,8.889 C14.628,8.392 14.63,7.58 14.868,7.085 C14.868,7.085 15.519,5.504 15.519,5.504 C15.7,4.984 16.272,4.409 16.79,4.224 C16.79,4.224 20.92,2.755 20.92,2.755 C21.439,2.5709999999999997 21.901,1.972 21.948,1.424 C21.948,1.424 22,0.819 22,0 C22,-0.82 21.947,-1.427 21.947,-1.427z M0,10 C-5.523,10 -10,5.522 -10,0 C-10,-5.523 -5.523,-10 0,-10 C5.523,-10 10,-5.523 10,0 C10,5.522 5.523,10 0,10z"></path></g></g><g style="-webkit-user-select: none; display: none;"><g><path style="display: none;"></path></g><g><path style="display: none;"></path></g></g></g></svg>