<svg xmlns="http://www.w3.org/2000/svg" width="800" height="800" viewBox="0 0 800 800" preserveAspectRatio="xMidYMid meet" style="width: 100%; height: 100%;"><defs><clipPath id="animationMask_CROi3O3y2T"><rect width="800" height="800" x="0" y="0"></rect></clipPath></defs><g clip-path="url(#animationMask_CROi3O3y2T)"><g transform="matrix(7.800000000785627,0,0,7.800000000785627,148.4499999746635,148.4499999746635)" opacity="1" style="-webkit-user-select: none;"><g opacity="1" transform="matrix(1,0,0,1,32.25,32.25)"><path fill="rgb(117,193,175)" fill-opacity="1" d=" M32,0 C32,17.673 17.673,32 0,32 C-17.673,32 -32,17.673 -32,0 C-32,-17.673 -17.673,-32 0,-32 C17.673,-32 32,-17.673 32,0z"></path></g></g><g style="-webkit-user-select: none; display: none;"><g><path style="display: none;"></path></g></g><g transform="matrix(7.796407596038604,-0.2367036046019442,0.2367036046019442,7.796407596038604,237.32949818702892,246.91599417340765)" opacity="1" style="-webkit-user-select: none;"><g opacity="1" transform="matrix(1,0,0,1,20.25,20.25)"><path fill="rgb(198,91,91)" fill-opacity="1" d=" M20,16 C20,18.209 18.209,20 16,20 C16,20 -16,20 -16,20 C-18.209,20 -20,18.209 -20,16 C-20,16 -20,-16 -20,-16 C-20,-18.209 -18.209,-20 -16,-20 C-16,-20 16,-20 16,-20 C18.209,-20 20,-18.209 20,-16 C20,-16 20,16 20,16z"></path></g></g><g transform="matrix(7.796407596038604,-0.2367036046019442,0.2367036046019442,7.796407596038604,241.11628507678245,371.6581097793691)" opacity="1" style="-webkit-user-select: none;"><g opacity="1" transform="matrix(1,0,0,1,20.25,2.25)"><path fill="rgb(244,206,135)" fill-opacity="1" d=" M20,2 C20,2 -20,2 -20,2 C-20,2 -20,-2 -20,-2 C-20,-2 20,-2 20,-2 C20,-2 20,2 20,2z"></path></g></g><g transform="matrix(7.796407596038604,-0.2367036046019442,0.2367036046019442,7.796407596038604,330.8872050691517,244.07342138363765)" opacity="1" style="-webkit-user-select: none; display: block;"><g opacity="1" transform="matrix(1,0,0,1,2.25,20.25)"><path fill="rgb(244,206,135)" fill-opacity="1" d=" M2,20 C2,20 -2,20 -2,20 C-2,20 -2,-20 -2,-20 C-2,-20 2,-20 2,-20 C2,-20 2,20 2,20z" style="display: block;"></path></g></g><g transform="matrix(7.799708064333591,-0.23680380879633428,0.23680380879633428,7.799708064333591,335.74810532273244,291.8804218256243)" opacity="1" style="-webkit-user-select: none; display: block;"><g opacity="1" transform="matrix(1,0,0,1,7.302,6.71)"><path fill="rgb(244,206,135)" fill-opacity="1" d=" M0,-3.46 C0.915,-3.46 1.7750000000000001,-3.1029999999999998 2.422,-2.456 C3.757,-1.121 3.757,1.052 2.422,2.387 C1.6600000000000001,3.149 0.31000000000000005,3.46 -2.235,3.46 C-2.643,3.46 -3.0580000000000003,3.452 -3.478,3.443 C-3.536,0.831 -3.499,-1.378 -2.422,-2.456 C-1.7750000000000001,-3.1029999999999998 -0.915,-3.46 0,-3.46z M0,-6.46 C-1.644,-6.46 -3.2880000000000003,-5.832 -4.543,-4.577 C-7.052,-2.068 -6.425,2.106 -6.425,6.389 C-4.997,6.389 -3.581,6.46 -2.235,6.46 C0.4570000000000003,6.46 2.87,6.181 4.542,4.508 C7.052,1.999 7.052,-2.068 4.542,-4.577 C3.288,-5.832 1.644,-6.46 0,-6.46z" style="display: block;"></path></g></g><g style="-webkit-user-select: none; display: none;"><g><path style="display: none;"></path></g></g><g transform="matrix(7.782930618552183,-0.23629443549285403,0.23629443549285403,7.782930618552183,252.24292616607164,379.1280806041182)" opacity="1" style="-webkit-user-select: none; display: block;"><g opacity="1" transform="matrix(1,0,0,1,7.302,6.71)"><path fill="rgb(244,206,135)" fill-opacity="1" d=" M2.235,-3.46 C2.643,-3.46 3.0580000000000003,-3.452 3.478,-3.443 C3.536,-0.831 3.499,1.378 2.422,2.456 C1.7750000000000001,3.1029999999999998 0.915,3.46 0,3.46 C-0.915,3.46 -1.7750000000000001,3.1029999999999998 -2.422,2.456 C-3.757,1.121 -3.757,-1.052 -2.422,-2.387 C-1.6600000000000001,-3.149 -0.31099999999999994,-3.46 2.235,-3.46z M2.235,-6.46 C-0.4570000000000003,-6.46 -2.87,-6.18 -4.543,-4.508 C-7.052,-1.999 -7.052,2.068 -4.543,4.577 C-3.2880000000000003,5.832 -1.644,6.46 0,6.46 C1.644,6.46 3.2880000000000003,5.832 4.543,4.577 C7.052,2.068 6.425,-2.106 6.425,-6.389 C4.997,-6.389 3.581,-6.46 2.235,-6.46z" style="display: block;"></path></g></g><g style="-webkit-user-select: none; display: none;"><g><path style="display: none;"></path></g></g><g transform="matrix(7.796407596038604,-0.2367036046019442,0.2367036046019442,7.796407596038604,353.06111787173757,386.1061032499676)" opacity="1" style="-webkit-user-select: none; display: block;"><g opacity="1" transform="matrix(1,0,0,1,4.564,5.898)"><path fill="rgb(244,206,135)" fill-opacity="1" d=" M2.814,5.648 C1.9860000000000002,5.648 1.314,4.976 1.314,4.148 C1.314,0.02999999999999936 -3.2870000000000004,-2.599 -3.333,-2.624 C-4.054,-3.0300000000000002 -4.314,-3.942 -3.912,-4.665 C-3.509,-5.386 -2.5999999999999996,-5.648000000000001 -1.876,-5.248 C-1.6229999999999998,-5.107 4.314,-1.7510000000000003 4.314,4.148 C4.314,4.976 3.642,5.648 2.814,5.648z" style="display: block;"></path></g></g><g transform="matrix(7.796407596038604,-0.2367036046019442,0.2367036046019442,7.796407596038604,275.49878185734866,308.01367005496064)" opacity="1" style="-webkit-user-select: none; display: block;"><g opacity="1" transform="matrix(1,0,0,1,5.026,5.511)"><path fill="rgb(244,206,135)" fill-opacity="1" d=" M3.072,5.261 C2.88,5.261 2.684,5.223999999999999 2.495,5.145 C2.228,5.0329999999999995 -4.04,2.347 -4.686,-3.517 C-4.777,-4.341 -4.182,-5.082 -3.359,-5.173 C-2.537,-5.261 -1.793,-4.6690000000000005 -1.702,-3.845 C-1.2489999999999999,0.28100000000000014 3.603,2.3569999999999998 3.652,2.377 C4.416,2.6969999999999996 4.777,3.5749999999999997 4.458,4.34 C4.218,4.915 3.659,5.261 3.072,5.261z" style="display: block;"></path></g></g></g></svg>