<svg xmlns="http://www.w3.org/2000/svg" width="800" height="800" viewBox="0 0 800 800" preserveAspectRatio="xMidYMid meet" style="width: 100%; height: 100%;"><defs><clipPath id="animationMask_Y2Mc0FJtnd"><rect width="800" height="800" x="0" y="0"></rect></clipPath><mask id="ly_o8PkQ2CLh6" mask-type="luminance"><g clip-path="url(#cp_NhFcAwIZ)" transform="matrix(1.62,0,0,1.62,156.99999999999997,156.99999999999997)" opacity="1"><g transform="matrix(1,0,0,1,0,0)" opacity="1"><rect width="300" height="300" fill="#000000"></rect></g><g transform="matrix(1,0,0,1,150,150)" opacity="1" style="-webkit-user-select: none;"><g opacity="1" transform="matrix(1,0,0,1,-0.016,-0.016)"><path fill="rgb(255,255,255)" fill-opacity="1" d=" M0,-150 C82.785,-150 150,-82.785 150,0 C150,82.785 82.785,150 0,150 C-82.785,150 -150,82.785 -150,0 C-150,-82.785 -82.785,-150 0,-150z"></path></g></g></g></mask><clipPath id="cp_NhFcAwIZ"><path d="M0,0 L300,0 L300,300 L0,300z"></path></clipPath><mask id="ly_mKrdVmImnC" mask-type="luminance"><g clip-path="url(#cp_3OQ9L8Mz)" transform="matrix(1.62,0,0,1.62,156.99999999999997,156.99999999999997)" opacity="1"><g transform="matrix(1,0,0,1,0,0)" opacity="1"><rect width="300" height="300" fill="#000000"></rect></g><g transform="matrix(1,0,0,1,150,150)" opacity="1" style="-webkit-user-select: none;"><g opacity="1" transform="matrix(1,0,0,1,-0.016,-0.016)"><path fill="rgb(255,255,255)" fill-opacity="1" d=" M0,-150 C82.785,-150 150,-82.785 150,0 C150,82.785 82.785,150 0,150 C-82.785,150 -150,82.785 -150,0 C-150,-82.785 -82.785,-150 0,-150z"></path></g></g></g></mask><clipPath id="cp_3OQ9L8Mz"><path d="M0,0 L300,0 L300,300 L0,300z"></path></clipPath></defs><g clip-path="url(#animationMask_Y2Mc0FJtnd)"><g transform="matrix(7.8000000004531955,0,0,7.8000000004531955,148.44999998538444,148.44999998538444)" opacity="1" style="-webkit-user-select: none;"><g opacity="1" transform="matrix(1,0,0,1,32.25,32.25)"><path fill="rgb(79,94,114)" fill-opacity="1" d=" M32,0 C32,17.673 17.673,32 0,32 C-17.673,32 -32,17.673 -32,0 C-32,-17.673 -17.673,-32 0,-32 C17.673,-32 32,-17.673 32,0z"></path></g></g><g style="-webkit-user-select: none; display: none;"><g><path style="display: none;"></path></g></g><g mask="url(#ly_mKrdVmImnC)"><g transform="matrix(-7.8,9.551929559814543e-16,-9.551929559814543e-16,-7.8,589.1500000000001,589.15)" opacity="1" style="-webkit-user-select: none;"><g opacity="1" transform="matrix(1,0,0,1,24.25,24.25)"><path fill="rgb(255,255,255)" fill-opacity="1" d=" M0,-21 C11.579,-21 21,-11.579 21,0 C21,11.579 11.579,21 0,21 C-11.579,21 -21,11.579 -21,0 C-21,-11.579 -11.579,-21 0,-21z M0,-24 C-13.255,-24 -24,-13.255 -24,0 C-24,13.255 -13.255,24 0,24 C13.255,24 24,13.255 24,0 C24,-13.255 13.255,-24 0,-24z"></path></g></g></g><g mask="url(#ly_o8PkQ2CLh6)"><g transform="matrix(-7.8,9.551929559814543e-16,-9.551929559814543e-16,-7.8,507.25,589.15)" opacity="1" style="-webkit-user-select: none;"><g opacity="1" transform="matrix(1,0,0,1,13.75,24.25)"><path fill="rgb(255,255,255)" fill-opacity="1" d=" M0,-21 C2.439,-21 4.965,-18.995 6.931,-15.5 C9.233,-11.408000000000001 10.5,-5.904 10.5,0 C10.5,5.904 9.233,11.408000000000001 6.931,15.5 C4.965,18.995 2.439,21 0,21 C-2.439,21 -4.965,18.995 -6.931,15.5 C-9.233,11.408000000000001 -10.5,5.904 -10.5,0 C-10.5,-5.904 -9.233,-11.408000000000001 -6.931,-15.5 C-4.965,-18.995 -2.439,-21 0,-21z M0,-24 C-7.456,-24 -13.5,-13.255 -13.5,0 C-13.5,13.255 -7.456,24 0,24 C7.456,24 13.5,13.255 13.5,0 C13.5,-13.255 7.456,-24 0,-24z"></path></g></g></g><g transform="matrix(-7.8,9.551929559814543e-16,-9.551929559814543e-16,-7.8,413.65000000000003,589.1479999999999)" opacity="1" style="-webkit-user-select: none;"><g opacity="1" transform="matrix(1,0,0,1,1.75,24.25)"><path fill="rgb(255,255,255)" fill-opacity="1" d=" M1.5,24 C1.5,24 -1.5,24 -1.5,24 C-1.5,24 -1.5,-24 -1.5,-24 C-1.5,-24 1.5,-24 1.5,-24 C1.5,-24 1.5,24 1.5,24z"></path></g></g><g transform="matrix(-7.8,9.551929559814543e-16,-9.551929559814543e-16,-7.8,552.225,519.6944)" opacity="1" style="-webkit-user-select: none;"><g opacity="1" transform="matrix(1,0,0,1,19.51,4.048)"><path fill="rgb(255,255,255)" fill-opacity="1" d=" M0.006,3.798 C-7.419,3.798 -14.441000000000003,1.9360000000000002 -19.26,-1.309 C-19.26,-1.309 -17.584,-3.798 -17.584,-3.798 C-13.248,-0.8780000000000001 -6.837,0.798 0.006,0.798 C6.8420000000000005,0.798 13.249999999999998,-0.8740000000000001 17.586,-3.79 C17.586,-3.79 19.26,-1.301 19.26,-1.301 C14.442000000000002,1.9390000000000003 7.424,3.798 0.006,3.798z"></path></g></g><g transform="matrix(-7.8,9.551929559814543e-16,-9.551929559814543e-16,-7.8,552.216,342.29139999999995)" opacity="1" style="-webkit-user-select: none;"><g opacity="1" transform="matrix(1,0,0,1,19.51,4.048)"><path fill="rgb(255,255,255)" fill-opacity="1" d=" M17.584,3.798 C13.248,0.8780000000000001 6.837,-0.798 -0.006,-0.798 C-6.843,-0.798 -13.249999999999998,0.8759999999999999 -17.586,3.792 C-17.586,3.792 -19.26,1.301 -19.26,1.301 C-14.442000000000002,-1.9390000000000003 -7.424,-3.798 -0.006,-3.798 C7.419,-3.798 14.441000000000003,-1.9360000000000002 19.26,1.309 C19.26,1.309 17.584,3.798 17.584,3.798z"></path></g></g><g transform="matrix(-7.8,9.551929559814543e-16,-9.551929559814543e-16,-7.8,589.1536,413.65)" opacity="1" style="-webkit-user-select: none;"><g opacity="1" transform="matrix(1,0,0,1,24.25,1.75)"><path fill="rgb(255,255,255)" fill-opacity="1" d=" M24,1.5 C24,1.5 -24,1.5 -24,1.5 C-24,1.5 -24,-1.5 -24,-1.5 C-24,-1.5 24,-1.5 24,-1.5 C24,-1.5 24,1.5 24,1.5z"></path></g></g><g></g></g></svg>